<?xml version="1.0" encoding="utf-8"?>
<!-- Generator: Adobe Illustrator 19.2.1, SVG Export Plug-In . SVG Version: 6.00 Build 0)  -->
<svg version="1.1" id="Calque_1" xmlns="http://www.w3.org/2000/svg" xmlns:xlink="http://www.w3.org/1999/xlink" x="0px" y="0px"
	 viewBox="0 0 100 100" style="enable-background:new 0 0 100 100;" xml:space="preserve">
<style type="text/css">
	.st0{fill:#E3DBD5;}
	.st1{fill:#7DA9BB;}
	.st2{fill:#B29E8D;}
	.st3{fill:#508BA3;}
</style>
<title>boutons_settings_9juin2016</title>
<polygon class="st0" points="44.3,60.7 52.9,58.6 56.2,58 73.3,49.4 78,41.4 60.9,21.6 69.4,3.9 69.5,0 0,0 0,72.8 29.3,53.5 "/>
<polygon class="st0" points="60.9,21.6 78,41.4 87.4,36.9 100,36.9 100,0 69.5,0 69.4,3.9 "/>
<polygon class="st0" points="100,36.9 87.4,36.9 78,41.4 73.3,49.4 56.2,58 56.2,66.2 47,69.7 37.3,86.2 50.3,100 100,100 "/>
<polygon class="st0" points="47,69.7 56.2,66.2 56.2,58 52.9,58.6 44.3,60.7 29.3,53.5 0,72.8 0,100 50.3,100 37.3,86.2 "/>
<path class="st1" d="M34.9,72.1l-6.8-14.8c-0.2-0.5-0.8-0.9-1.4-0.9h0c-0.6,0-1.1,0.3-1.4,0.9l-6.8,14.8c-0.2,0.5-0.2,1,0.1,1.4
	c0.3,0.4,0.8,0.7,1.3,0.7h13.5c0.5,0,1-0.3,1.3-0.7C35,73.2,35.1,72.6,34.9,72.1z"/>
<path class="st1" d="M47.4,59.2l-6.8-14.8c-0.2-0.5-0.8-0.9-1.4-0.9h0c-0.6,0-1.1,0.3-1.4,0.9l-6.8,14.8c-0.2,0.5-0.2,1,0.1,1.4
	c0.3,0.4,0.8,0.7,1.3,0.7H46c0.5,0,1-0.3,1.3-0.7C47.5,60.2,47.6,59.7,47.4,59.2z"/>
<path class="st1" d="M55.4,84.7l-6.8-14.8c-0.2-0.5-0.8-0.9-1.4-0.9h0c-0.6,0-1.1,0.3-1.4,0.9l-6.8,14.8c-0.2,0.5-0.2,1,0.1,1.4
	c0.3,0.4,0.8,0.7,1.3,0.7H54c0.5,0,1-0.3,1.3-0.7C55.5,85.7,55.6,85.2,55.4,84.7z"/>
<path class="st1" d="M63,51.7l-6.8-14.8C56,36.4,55.5,36,54.9,36c-0.6,0-1.1,0.3-1.4,0.9l-6.7,14.8c-0.2,0.5-0.2,1,0.1,1.4
	c0.3,0.4,0.8,0.7,1.3,0.7h13.5c0.5,0,1-0.3,1.3-0.7C63.2,52.7,63.2,52.2,63,51.7z"/>
<polygon class="st2" points="23.1,31.2 18.8,26.9 14.6,31.2 12.5,29 16.7,24.8 12.5,20.6 14.6,18.4 18.8,22.7 23.1,18.4 25.2,20.6 
	20.9,24.8 25.2,29 "/>
<polygon class="st2" points="30.5,47.7 26.3,43.5 22.1,47.7 19.9,45.6 24.2,41.4 19.9,37.1 22.1,35 26.3,39.2 30.5,35 32.6,37.1 
	28.4,41.4 32.6,45.6 "/>
<polygon class="st2" points="30.9,24.1 28.8,21.9 33.1,17.7 28.8,13.5 31,11.3 35.2,15.6 39.4,11.4 41.5,13.5 37.3,17.7 41.6,21.9 
	39.4,24.1 35.2,19.8 "/>
<polygon class="st2" points="16.7,16.6 14.6,14.4 18.8,10.2 14.6,6 16.7,3.8 21,8.1 25.2,3.9 27.3,6 23.1,10.2 27.3,14.4 25.2,16.6 
	21,12.3 "/>
<polygon class="st2" points="83.4,90.9 79.1,86.7 74.9,90.9 72.8,88.8 77,84.5 72.8,80.3 74.9,78.2 79.1,82.4 83.4,78.2 85.5,80.3 
	81.3,84.5 85.5,88.8 "/>
<circle class="st3" cx="6.5" cy="92.5" r="2.3"/>
<circle class="st3" cx="6.7" cy="86.6" r="2.3"/>
<circle class="st3" cx="13.5" cy="89.8" r="2.3"/>
<circle class="st3" cx="12.8" cy="83.7" r="2.3"/>
<circle class="st3" cx="8.9" cy="78.3" r="2.3"/>
<circle class="st3" cx="5.4" cy="70.2" r="2.3"/>
<circle class="st3" cx="25.1" cy="83.5" r="2.3"/>
<circle class="st3" cx="34" cy="88.9" r="2.3"/>
<circle class="st3" cx="39" cy="92.8" r="2.3"/>
<circle class="st3" cx="77.3" cy="42.1" r="2.3"/>
<circle class="st3" cx="80.9" cy="47.3" r="2.3"/>
<circle class="st3" cx="75.1" cy="50.2" r="2.3"/>
<circle class="st3" cx="73.2" cy="57" r="2.3"/>
<circle class="st3" cx="79.3" cy="55.2" r="2.3"/>
<circle class="st3" cx="92.2" cy="39.4" r="2.3"/>
<circle class="st3" cx="95.9" cy="44.7" r="2.3"/>
<circle class="st3" cx="89.9" cy="44.8" r="2.3"/>
<circle class="st3" cx="95.5" cy="41.2" r="2.3"/>
<circle class="st3" cx="96.9" cy="34.7" r="2.3"/>
<circle class="st3" cx="93.8" cy="26.9" r="2.3"/>
<circle class="st3" cx="93.8" cy="17.9" r="2.3"/>
<circle class="st3" cx="87.3" cy="51.5" r="2.3"/>
<polygon class="st2" points="6,11.3 8.2,9.1 3.9,4.9 8.2,0.7 7.5,0 4.6,0 1.8,2.8 0,1 0,8.9 1.8,7 "/>
<path class="st3" d="M1.8,89.8c1.3,0,2.3-1,2.3-2.3s-1-2.3-2.3-2.3c-0.7,0-1.4,0.3-1.8,0.9v2.9C0.4,89.5,1.1,89.8,1.8,89.8z"/>
<path class="st3" d="M96.2,22.8c0,1.3,1,2.3,2.3,2.3c0.6,0,1.1-0.2,1.5-0.5V21c-0.4-0.3-0.9-0.5-1.5-0.5
	C97.2,20.4,96.2,21.5,96.2,22.8z"/>
</svg>
