<svg xmlns="http://www.w3.org/2000/svg" xmlns:xlink="http://www.w3.org/1999/xlink" viewBox="0 0 100 100"><defs><style>.a{fill:none;}.b{fill:#b29e8d;}.c,.h{fill:#e3dbd5;}.d{fill:#ccdde4;}.e{fill:#508ba3;}.f,.g,.h{fill-rule:evenodd;}.f{fill:url(#a);}.g{fill:url(#b);}</style><pattern id="a" width="28.67" height="21.99" patternTransform="translate(4.33 -3.17) scale(0.3)" patternUnits="userSpaceOnUse" viewBox="0 0 28.67 21.99"><rect class="a" width="28.67" height="21.99"/><rect class="d" width="28.67" height="21.99"/><rect class="e" width="28.67" height="5.85"/></pattern><pattern id="b" width="28.67" height="21.99" patternTransform="translate(25.54 19.07) rotate(50) scale(0.5)" patternUnits="userSpaceOnUse" viewBox="0 0 28.67 21.99"><rect class="a" width="28.67" height="21.99"/><rect class="b" width="28.67" height="21.99"/><rect class="c" width="28.67" height="8.3"/></pattern></defs><title>boutons_settings_9juin2016</title><polygon class="f" points="39.32 55.71 41.36 47.1 41.96 43.81 50.56 26.7 58.61 21.99 78.4 39.1 96.06 30.59 100 30.52 100 100 27.23 100 46.48 70.73 39.32 55.71"/><polygon class="d" points="78.4 39.1 58.61 21.99 63.11 12.62 63.09 0 100 0 100 30.52 96.06 30.59 78.4 39.1"/><polygon class="g" points="63.09 0 63.11 12.62 58.61 21.99 50.56 26.7 41.96 43.81 33.84 43.75 30.35 52.95 13.85 62.66 0 49.65 0 0 63.09 0"/><polygon class="h" points="30.35 52.95 33.84 43.75 41.96 43.81 41.36 47.1 39.32 55.71 46.48 70.73 27.23 100 0 100 0 49.65 13.85 62.66 30.35 52.95"/></svg>