<?xml version="1.0" encoding="utf-8"?>
<!-- Generator: Adobe Illustrator 16.0.4, SVG Export Plug-In . SVG Version: 6.00 Build 0)  -->
<!DOCTYPE svg PUBLIC "-//W3C//DTD SVG 1.1//EN" "http://www.w3.org/Graphics/SVG/1.1/DTD/svg11.dtd">
<svg version="1.1" id="picto" xmlns="http://www.w3.org/2000/svg" xmlns:xlink="http://www.w3.org/1999/xlink" x="0px" y="0px"
	 width="20px" height="20px" viewBox="0 0 20 20" enable-background="new 0 0 20 20" xml:space="preserve">
<g>
	<path d="M19.5,0.5v19h-19v-19H19.5 M20,0H0v20h20V0L20,0z"/>
</g>
<polygon points="14.529,7.24 14.069,7.734 15.699,9.25 10.75,9.25 10.75,4.297 12.267,5.929 12.761,5.469 10.001,2.5 7.24,5.469 
	7.734,5.929 9.25,4.299 9.25,9.25 4.297,9.25 5.927,7.734 5.467,7.24 2.498,10 5.467,12.761 5.927,12.266 4.296,10.75 9.25,10.75 
	9.25,15.701 7.734,14.071 7.24,14.531 10.001,17.5 12.761,14.531 12.267,14.071 10.75,15.703 10.75,10.75 15.7,10.75 14.069,12.266 
	14.529,12.761 17.498,10 "/>
</svg>
