<?xml version="1.0" encoding="utf-8"?>
<!-- Generator: Adobe Illustrator 16.0.4, SVG Export Plug-In . SVG Version: 6.00 Build 0)  -->
<!DOCTYPE svg PUBLIC "-//W3C//DTD SVG 1.1//EN" "http://www.w3.org/Graphics/SVG/1.1/DTD/svg11.dtd">
<svg version="1.1" id="picto" xmlns="http://www.w3.org/2000/svg" xmlns:xlink="http://www.w3.org/1999/xlink" x="0px" y="0px"
	 width="20px" height="20px" viewBox="0 0 20 20" enable-background="new 0 0 20 20" xml:space="preserve">
<rect fill="none" width="20" height="20"/>
<g>
	<path d="M1.756,12.922H0.451v-8.25h1.305V12.922z"/>
	<path d="M2.658,9.962c0-0.569,0.112-1.083,0.338-1.539c0.226-0.457,0.543-0.808,0.951-1.053c0.408-0.246,0.877-0.368,1.406-0.368
		c0.785,0,1.421,0.252,1.91,0.757c0.488,0.505,0.752,1.174,0.792,2.009l0.005,0.306c0,0.573-0.109,1.085-0.33,1.536
		c-0.22,0.451-0.535,0.8-0.945,1.047s-0.883,0.371-1.42,0.371c-0.82,0-1.477-0.273-1.969-0.819
		c-0.492-0.546-0.738-1.273-0.738-2.183V9.962z M3.963,10.075c0,0.598,0.123,1.066,0.371,1.404c0.246,0.339,0.59,0.508,1.031,0.508
		c0.439,0,0.783-0.172,1.028-0.516s0.368-0.847,0.368-1.509c0-0.587-0.127-1.053-0.379-1.396C6.13,8.222,5.787,8.05,5.354,8.05
		c-0.426,0-0.764,0.169-1.015,0.507C4.088,8.896,3.963,9.402,3.963,10.075z"/>
	<path d="M10.102,7.11l0.037,0.671c0.43-0.519,0.994-0.779,1.691-0.779c1.211,0,1.826,0.693,1.848,2.079v3.84h-1.305V9.157
		c0-0.369-0.08-0.642-0.238-0.819c-0.16-0.178-0.42-0.266-0.782-0.266c-0.526,0-0.919,0.238-1.177,0.714v4.136H8.871V7.11H10.102z"
		/>
	<path d="M14.504,9.973c0-0.902,0.212-1.623,0.637-2.162c0.424-0.539,0.987-0.809,1.689-0.809c0.662,0,1.184,0.231,1.562,0.693
		l0.059-0.585h1.177v5.634c0,0.763-0.237,1.364-0.712,1.805s-1.114,0.661-1.92,0.661c-0.426,0-0.842-0.089-1.249-0.266
		c-0.406-0.178-0.715-0.409-0.927-0.696l0.618-0.784c0.401,0.476,0.896,0.714,1.482,0.714c0.433,0,0.775-0.117,1.026-0.352
		c0.25-0.235,0.375-0.58,0.375-1.034v-0.392c-0.375,0.419-0.877,0.628-1.504,0.628c-0.68,0-1.236-0.271-1.667-0.811
		C14.72,11.678,14.504,10.929,14.504,9.973z M15.804,10.086c0,0.583,0.119,1.043,0.357,1.378c0.237,0.334,0.568,0.502,0.991,0.502
		c0.525,0,0.916-0.226,1.17-0.677V8.732c-0.246-0.44-0.633-0.661-1.16-0.661c-0.43,0-0.764,0.17-1.001,0.51
		C15.923,8.922,15.804,9.423,15.804,10.086z"/>
</g>
</svg>
