<?xml version="1.0" encoding="utf-8"?>
<!-- Generator: Adobe Illustrator 16.0.4, SVG Export Plug-In . SVG Version: 6.00 Build 0)  -->
<!DOCTYPE svg PUBLIC "-//W3C//DTD SVG 1.1//EN" "http://www.w3.org/Graphics/SVG/1.1/DTD/svg11.dtd">
<svg version="1.1" id="picto" xmlns="http://www.w3.org/2000/svg" xmlns:xlink="http://www.w3.org/1999/xlink" x="0px" y="0px"
	 width="20px" height="20px" viewBox="0 0 20 20" enable-background="new 0 0 20 20" xml:space="preserve">
<rect fill="none" width="20" height="20"/>
<g>
	<path d="M5.189,12.922c-0.057-0.111-0.107-0.292-0.15-0.542c-0.416,0.433-0.924,0.65-1.525,0.65c-0.583,0-1.06-0.167-1.429-0.5
		s-0.553-0.745-0.553-1.235c0-0.62,0.23-1.095,0.69-1.426c0.46-0.331,1.118-0.497,1.974-0.497h0.8V8.99
		c0-0.301-0.084-0.542-0.252-0.723C4.575,8.087,4.319,7.997,3.976,7.997c-0.297,0-0.541,0.074-0.73,0.223
		C3.055,8.368,2.96,8.557,2.96,8.786H1.655c0-0.319,0.105-0.617,0.317-0.895c0.211-0.277,0.499-0.495,0.862-0.652
		c0.363-0.158,0.769-0.236,1.216-0.236c0.68,0,1.223,0.171,1.627,0.513c0.405,0.342,0.612,0.823,0.623,1.442v2.621
		c0,0.523,0.073,0.94,0.22,1.251v0.091H5.189z M3.755,11.982c0.258,0,0.5-0.062,0.728-0.188c0.228-0.125,0.398-0.293,0.513-0.505
		v-1.096H4.292c-0.483,0-0.847,0.084-1.09,0.252s-0.365,0.406-0.365,0.714c0,0.25,0.083,0.45,0.25,0.599
		C3.253,11.908,3.476,11.982,3.755,11.982z"/>
	<path d="M12.768,10.075c0,0.902-0.201,1.62-0.604,2.154c-0.402,0.534-0.957,0.8-1.662,0.8c-0.68,0-1.21-0.245-1.59-0.736
		l-0.064,0.628H7.666v-8.25h1.305v2.997c0.376-0.444,0.883-0.666,1.52-0.666c0.709,0,1.266,0.263,1.67,0.79S12.768,9.055,12.768,10
		V10.075z M11.463,9.962c0-0.63-0.111-1.103-0.333-1.418s-0.544-0.473-0.967-0.473c-0.566,0-0.963,0.247-1.192,0.741v2.396
		c0.233,0.505,0.634,0.757,1.203,0.757c0.408,0,0.723-0.152,0.945-0.457s0.336-0.765,0.344-1.38V9.962z"/>
	<path d="M16.248,11.987c0.326,0,0.597-0.095,0.812-0.285s0.329-0.424,0.344-0.704h1.229c-0.014,0.362-0.127,0.699-0.338,1.013
		c-0.211,0.313-0.498,0.561-0.859,0.744s-0.752,0.274-1.171,0.274c-0.813,0-1.458-0.263-1.934-0.79s-0.714-1.253-0.714-2.181V9.925
		c0-0.884,0.236-1.593,0.709-2.124c0.473-0.532,1.117-0.798,1.934-0.798c0.69,0,1.254,0.201,1.688,0.604
		c0.436,0.402,0.663,0.932,0.685,1.587h-1.229c-0.015-0.333-0.128-0.607-0.341-0.822S16.578,8.05,16.248,8.05
		c-0.422,0-0.748,0.153-0.977,0.459c-0.229,0.306-0.346,0.771-0.349,1.394v0.209c0,0.63,0.114,1.1,0.341,1.41
		C15.49,11.833,15.819,11.987,16.248,11.987z"/>
</g>
</svg>
