<?xml version="1.0" encoding="utf-8"?>
<!-- Generator: Adobe Illustrator 16.0.4, SVG Export Plug-In . SVG Version: 6.00 Build 0)  -->
<!DOCTYPE svg PUBLIC "-//W3C//DTD SVG 1.1//EN" "http://www.w3.org/Graphics/SVG/1.1/DTD/svg11.dtd">
<svg version="1.1" id="picto" xmlns="http://www.w3.org/2000/svg" xmlns:xlink="http://www.w3.org/1999/xlink" x="0px" y="0px"
	 width="20px" height="20px" viewBox="0 0 20 20" enable-background="new 0 0 20 20" xml:space="preserve">
<rect fill="none" width="20" height="20"/>
<path d="M10,2.32c1.393,0,2.678,0.344,3.854,1.031c1.178,0.686,2.109,1.617,2.797,2.793C17.336,7.322,17.68,8.607,17.68,10
	c0,1.395-0.344,2.68-1.029,3.855c-0.688,1.178-1.619,2.109-2.797,2.795C12.678,17.338,11.393,17.68,10,17.68
	c-1.395,0-2.68-0.342-3.855-1.029c-1.178-0.686-2.109-1.617-2.795-2.795C2.662,12.68,2.32,11.395,2.32,10
	c0-1.393,0.342-2.678,1.029-3.855c0.686-1.176,1.617-2.107,2.795-2.793C7.32,2.664,8.605,2.32,10,2.32z M12.74,7.531
	c-0.014,0.006-0.045,0.037-0.096,0.094s-0.096,0.09-0.135,0.096c0.014,0,0.027-0.018,0.045-0.051
	c0.016-0.033,0.033-0.068,0.051-0.109c0.016-0.039,0.027-0.062,0.033-0.07c0.041-0.047,0.115-0.096,0.221-0.15
	c0.094-0.039,0.268-0.078,0.52-0.119c0.227-0.053,0.396-0.018,0.51,0.109c-0.014-0.012,0.02-0.057,0.096-0.129
	c0.076-0.074,0.125-0.113,0.145-0.121c0.021-0.012,0.07-0.027,0.15-0.045c0.08-0.016,0.131-0.041,0.15-0.074l0.02-0.221
	c-0.08,0.008-0.139-0.016-0.176-0.068c-0.035-0.055-0.057-0.125-0.064-0.211c0,0.014-0.02,0.039-0.059,0.08
	c0-0.047-0.016-0.074-0.047-0.08c-0.029-0.008-0.066-0.004-0.113,0.01s-0.078,0.016-0.09,0.01c-0.068-0.02-0.117-0.045-0.15-0.074
	S13.689,6.32,13.67,6.24s-0.033-0.129-0.041-0.148c-0.014-0.035-0.045-0.068-0.094-0.105c-0.051-0.037-0.082-0.072-0.096-0.105
	c-0.006-0.014-0.016-0.031-0.025-0.055s-0.02-0.045-0.029-0.066c-0.01-0.02-0.023-0.037-0.041-0.055
	c-0.016-0.016-0.035-0.023-0.055-0.023s-0.043,0.016-0.07,0.049c-0.025,0.033-0.051,0.066-0.074,0.1S13.105,5.881,13.1,5.881
	c-0.02-0.014-0.041-0.018-0.061-0.016c-0.02,0.004-0.035,0.008-0.045,0.01c-0.01,0.004-0.025,0.014-0.045,0.031
	c-0.02,0.016-0.037,0.027-0.049,0.035c-0.021,0.012-0.049,0.023-0.086,0.029c-0.037,0.008-0.064,0.014-0.086,0.02
	c0.102-0.033,0.098-0.07-0.01-0.109c-0.066-0.027-0.119-0.037-0.16-0.031c0.061-0.025,0.086-0.066,0.076-0.119
	s-0.039-0.1-0.086-0.139H12.6c-0.006-0.027-0.035-0.057-0.086-0.086c-0.049-0.029-0.107-0.059-0.174-0.086
	c-0.066-0.025-0.111-0.045-0.131-0.059c-0.053-0.033-0.166-0.066-0.34-0.096s-0.283-0.031-0.33-0.006
	c-0.033,0.041-0.049,0.076-0.045,0.105c0.004,0.031,0.018,0.076,0.041,0.141c0.023,0.062,0.035,0.105,0.035,0.125
	c0.006,0.039-0.012,0.084-0.057,0.129c-0.043,0.047-0.064,0.088-0.064,0.121c0,0.047,0.047,0.098,0.141,0.154s0.127,0.129,0.1,0.215
	c-0.02,0.055-0.074,0.107-0.16,0.16c-0.086,0.055-0.141,0.094-0.16,0.121c-0.033,0.053-0.039,0.113-0.014,0.186
	c0.021,0.068,0.057,0.123,0.104,0.164c0.014,0.014,0.02,0.027,0.016,0.041c-0.004,0.012-0.016,0.027-0.035,0.045
	c-0.02,0.016-0.039,0.029-0.055,0.039c-0.018,0.01-0.039,0.021-0.064,0.035l-0.031,0.02C11.217,7.094,11.148,7.074,11.084,7
	c-0.062-0.072-0.107-0.16-0.135-0.26c-0.047-0.166-0.1-0.266-0.16-0.299c-0.152-0.055-0.25-0.051-0.289,0.01
	c-0.033-0.088-0.17-0.174-0.41-0.26C9.924,6.131,9.729,6.117,9.51,6.15c0.039-0.006,0.039-0.057,0-0.15
	C9.463,5.9,9.398,5.861,9.32,5.881C9.34,5.84,9.354,5.783,9.359,5.705c0.006-0.076,0.01-0.121,0.01-0.135
	C9.389,5.484,9.43,5.408,9.49,5.34C9.496,5.334,9.52,5.305,9.559,5.256C9.6,5.205,9.631,5.16,9.654,5.121
	C9.678,5.08,9.68,5.061,9.66,5.061c0.232,0.027,0.398-0.01,0.5-0.109c0.033-0.033,0.07-0.09,0.113-0.17
	c0.045-0.08,0.08-0.137,0.105-0.17c0.061-0.041,0.107-0.059,0.141-0.057c0.033,0.004,0.082,0.023,0.145,0.057
	c0.064,0.033,0.111,0.049,0.145,0.049c0.094,0.008,0.146-0.029,0.156-0.109s-0.016-0.146-0.076-0.201
	c0.08,0.008,0.092-0.049,0.031-0.168c-0.033-0.047-0.061-0.078-0.08-0.09c-0.08-0.027-0.17-0.012-0.27,0.049
	c-0.055,0.027-0.047,0.053,0.02,0.08c-0.008-0.006-0.039,0.029-0.096,0.105S10.383,4.461,10.33,4.5
	c-0.055,0.041-0.107,0.023-0.16-0.049c-0.008-0.008-0.025-0.053-0.055-0.135c-0.031-0.084-0.062-0.129-0.096-0.135
	c-0.053,0-0.107,0.049-0.16,0.148c0.02-0.053-0.018-0.104-0.109-0.148C9.656,4.135,9.576,4.107,9.51,4.1
	c0.127-0.078,0.1-0.168-0.08-0.27C9.383,3.803,9.314,3.787,9.225,3.781C9.135,3.773,9.07,3.787,9.029,3.82
	C8.996,3.867,8.979,3.906,8.975,3.936s0.014,0.057,0.051,0.08c0.035,0.023,0.07,0.041,0.104,0.055s0.072,0.027,0.115,0.041
	S9.316,4.135,9.33,4.141c0.094,0.066,0.119,0.113,0.08,0.141C9.396,4.287,9.367,4.299,9.324,4.316
	C9.281,4.332,9.242,4.348,9.209,4.361S9.156,4.387,9.148,4.4c-0.02,0.027-0.02,0.074,0,0.141c0.021,0.066,0.014,0.113-0.02,0.141
	c-0.033-0.035-0.062-0.094-0.09-0.176C9.014,4.422,8.99,4.367,8.969,4.34C9.016,4.4,8.934,4.42,8.719,4.4l-0.1-0.01
	c-0.027,0-0.08,0.006-0.16,0.02S8.311,4.428,8.254,4.42C8.197,4.414,8.152,4.387,8.119,4.34c-0.025-0.053-0.025-0.119,0-0.199
	c0.008-0.027,0.02-0.033,0.041-0.02C8.133,4.1,8.096,4.068,8.049,4.025s-0.08-0.072-0.1-0.084C7.643,4.041,7.33,4.178,7.01,4.35
	c0.039,0.008,0.08,0.004,0.119-0.01C7.162,4.328,7.205,4.305,7.26,4.275c0.053-0.029,0.086-0.049,0.1-0.055
	c0.227-0.094,0.367-0.117,0.42-0.07L7.83,4.1c0.092,0.107,0.16,0.191,0.199,0.25C7.982,4.324,7.883,4.32,7.73,4.34
	C7.596,4.381,7.523,4.42,7.51,4.461c0.047,0.08,0.062,0.139,0.049,0.18c-0.025-0.02-0.064-0.053-0.113-0.1
	c-0.051-0.047-0.1-0.084-0.146-0.109C7.252,4.404,7.203,4.387,7.15,4.381c-0.107,0-0.182,0.004-0.221,0.01
	C5.957,4.924,5.172,5.664,4.58,6.611c0.045,0.047,0.086,0.072,0.119,0.08C4.727,6.697,4.742,6.727,4.75,6.779
	c0.006,0.055,0.014,0.092,0.023,0.111C4.785,6.91,4.822,6.9,4.889,6.861c0.061,0.053,0.07,0.117,0.031,0.189
	c0.006-0.008,0.152,0.082,0.439,0.27c0.127,0.113,0.197,0.184,0.209,0.211c0.021,0.072-0.012,0.133-0.1,0.18
	c-0.006-0.014-0.035-0.043-0.09-0.09C5.326,7.574,5.297,7.561,5.289,7.58C5.27,7.613,5.271,7.676,5.295,7.766S5.354,7.896,5.4,7.891
	c-0.047,0-0.08,0.053-0.096,0.16C5.287,8.158,5.279,8.275,5.279,8.406c0,0.129-0.004,0.207-0.01,0.234l0.02,0.01
	C5.27,8.73,5.287,8.846,5.344,8.996s0.129,0.215,0.215,0.195c-0.086,0.02-0.02,0.162,0.201,0.43c0.039,0.053,0.066,0.084,0.08,0.09
	c0.02,0.014,0.059,0.039,0.119,0.074c0.061,0.037,0.109,0.07,0.15,0.1c0.039,0.031,0.074,0.066,0.1,0.105
	c0.027,0.033,0.061,0.109,0.1,0.225c0.041,0.117,0.088,0.195,0.141,0.236c-0.014,0.039,0.018,0.107,0.096,0.199
	c0.076,0.094,0.111,0.17,0.105,0.23c-0.008,0-0.016,0.004-0.025,0.01C6.613,10.898,6.605,10.9,6.6,10.9
	c0.02,0.047,0.072,0.094,0.154,0.141c0.084,0.047,0.135,0.09,0.156,0.129c0.006,0.021,0.012,0.055,0.02,0.102
	c0.006,0.045,0.016,0.082,0.029,0.109S7,11.414,7.039,11.4c0.014-0.133-0.066-0.34-0.24-0.619c-0.1-0.168-0.156-0.264-0.17-0.291
	c-0.02-0.033-0.037-0.084-0.055-0.154c-0.016-0.07-0.031-0.119-0.045-0.145c0.014,0,0.033,0.004,0.061,0.014
	c0.025,0.01,0.055,0.021,0.084,0.035c0.031,0.014,0.057,0.027,0.076,0.041s0.025,0.023,0.02,0.029
	c-0.02,0.047-0.014,0.105,0.02,0.176s0.074,0.131,0.121,0.184c0.045,0.055,0.102,0.117,0.17,0.191
	c0.066,0.072,0.105,0.115,0.119,0.129c0.041,0.041,0.086,0.105,0.141,0.195c0.053,0.09,0.053,0.135,0,0.135
	c0.061,0,0.127,0.033,0.199,0.1c0.074,0.068,0.131,0.135,0.17,0.201c0.033,0.053,0.061,0.139,0.08,0.26
	C7.809,12,7.826,12.08,7.84,12.121c0.014,0.047,0.041,0.092,0.084,0.135s0.086,0.074,0.125,0.096l0.16,0.08L8.34,12.5
	c0.033,0.014,0.094,0.049,0.186,0.105c0.09,0.057,0.16,0.096,0.215,0.115c0.066,0.027,0.119,0.039,0.158,0.039
	c0.041,0,0.09-0.008,0.146-0.023c0.057-0.018,0.102-0.029,0.135-0.035c0.1-0.014,0.197,0.037,0.289,0.15
	c0.094,0.113,0.164,0.184,0.211,0.209c0.24,0.127,0.424,0.164,0.549,0.109c-0.012,0.008-0.01,0.033,0.006,0.076
	c0.018,0.043,0.043,0.096,0.08,0.154c0.037,0.061,0.066,0.109,0.09,0.145c0.023,0.037,0.041,0.066,0.055,0.086
	c0.033,0.039,0.094,0.09,0.18,0.15c0.088,0.061,0.146,0.109,0.182,0.15c0.039-0.027,0.062-0.057,0.068-0.09
	c-0.02,0.053,0.004,0.119,0.07,0.199s0.127,0.113,0.18,0.1c0.094-0.02,0.141-0.127,0.141-0.32c-0.207,0.1-0.369,0.041-0.49-0.18
	c0-0.006-0.008-0.025-0.025-0.055c-0.016-0.031-0.029-0.059-0.039-0.086c-0.01-0.025-0.018-0.055-0.025-0.084
	c-0.006-0.029-0.006-0.055,0-0.074c0.008-0.021,0.023-0.031,0.051-0.031c0.059,0,0.092-0.012,0.1-0.035
	c0.006-0.023,0-0.064-0.02-0.125c-0.021-0.061-0.033-0.104-0.041-0.129c-0.006-0.055-0.043-0.121-0.109-0.201
	s-0.107-0.129-0.121-0.15c-0.033,0.061-0.086,0.088-0.16,0.082c-0.072-0.008-0.125-0.037-0.16-0.092
	c0,0.008-0.004,0.025-0.014,0.055c-0.01,0.031-0.016,0.053-0.016,0.066c-0.086,0-0.137-0.004-0.15-0.01
	c0.008-0.02,0.016-0.08,0.025-0.176s0.021-0.172,0.035-0.225c0.008-0.027,0.025-0.066,0.055-0.119
	c0.031-0.055,0.055-0.104,0.076-0.146c0.02-0.043,0.033-0.084,0.039-0.125c0.008-0.039-0.008-0.072-0.045-0.094
	c-0.037-0.025-0.096-0.033-0.176-0.025c-0.125,0.006-0.213,0.072-0.26,0.199c-0.006,0.02-0.016,0.055-0.029,0.105
	c-0.014,0.049-0.029,0.088-0.051,0.115c-0.02,0.025-0.049,0.049-0.09,0.07c-0.047,0.02-0.125,0.025-0.24,0.02
	c-0.113-0.008-0.193-0.023-0.238-0.051c-0.088-0.053-0.162-0.15-0.227-0.289C8.871,11.891,8.84,11.768,8.84,11.66
	c0-0.066,0.008-0.154,0.025-0.264c0.016-0.111,0.025-0.193,0.029-0.25S8.879,11.008,8.84,10.9c0.02-0.014,0.049-0.045,0.09-0.094
	c0.039-0.051,0.072-0.086,0.1-0.105c0.014-0.008,0.029-0.012,0.045-0.016c0.018-0.004,0.031-0.004,0.045,0s0.027-0.002,0.041-0.016
	c0.014-0.012,0.023-0.033,0.029-0.059c-0.006-0.008-0.02-0.018-0.041-0.031c-0.02-0.02-0.033-0.029-0.039-0.029
	c0.047,0.02,0.141,0.014,0.285-0.016c0.143-0.029,0.234-0.023,0.275,0.016c0.1,0.074,0.172,0.066,0.219-0.02
	c0-0.008-0.008-0.039-0.023-0.096c-0.018-0.057-0.02-0.102-0.006-0.135c0.033,0.18,0.129,0.211,0.289,0.09
	c0.021,0.02,0.072,0.037,0.156,0.051c0.082,0.014,0.141,0.029,0.174,0.049c0.021,0.014,0.045,0.031,0.07,0.055
	c0.027,0.023,0.045,0.039,0.055,0.045c0.012,0.008,0.027,0.006,0.051-0.004s0.053-0.031,0.084-0.066
	c0.068,0.094,0.107,0.174,0.121,0.24c0.074,0.268,0.137,0.414,0.189,0.441c0.047,0.02,0.084,0.025,0.111,0.02
	c0.025-0.008,0.041-0.039,0.045-0.096c0.002-0.057,0.002-0.104,0-0.139c-0.004-0.037-0.01-0.078-0.016-0.125l-0.01-0.08v-0.18
	l-0.01-0.082c-0.1-0.02-0.162-0.059-0.186-0.119S10.967,10.279,11,10.215c0.033-0.062,0.082-0.125,0.15-0.184
	c0.006-0.008,0.033-0.02,0.08-0.035c0.045-0.018,0.098-0.039,0.154-0.066c0.057-0.025,0.098-0.053,0.125-0.078
	c0.141-0.127,0.189-0.244,0.15-0.352c0.047,0,0.082-0.029,0.109-0.09c-0.006,0-0.023-0.01-0.051-0.029
	c-0.025-0.02-0.051-0.037-0.074-0.051s-0.039-0.02-0.045-0.02c0.061-0.033,0.066-0.086,0.02-0.16
	c0.033-0.02,0.059-0.057,0.076-0.109c0.016-0.055,0.041-0.086,0.074-0.1C11.83,9.02,11.9,9.027,11.98,8.961
	c0.045-0.053,0.049-0.107,0.01-0.16c0.033-0.047,0.102-0.082,0.205-0.105c0.102-0.023,0.164-0.055,0.184-0.094
	c0.047,0.012,0.074,0.006,0.08-0.021c0.008-0.025,0.01-0.066,0.01-0.119s0.01-0.094,0.031-0.121c0.025-0.033,0.076-0.062,0.15-0.09
	c0.072-0.025,0.115-0.043,0.129-0.049l0.17-0.111c0.02-0.025,0.02-0.039,0-0.039c0.119,0.014,0.223-0.023,0.311-0.109
	c0.066-0.074,0.047-0.141-0.061-0.201c0.02-0.039,0.01-0.07-0.029-0.094c-0.041-0.023-0.09-0.043-0.15-0.057
	c0.02-0.006,0.059-0.008,0.115-0.004c0.057,0.002,0.092-0.002,0.105-0.016c0.1-0.066,0.076-0.119-0.07-0.16
	C13.057,7.377,12.912,7.418,12.74,7.531z M11.109,16.301c1.373-0.24,2.543-0.869,3.51-1.891c-0.02-0.02-0.061-0.035-0.125-0.045
	c-0.062-0.01-0.105-0.021-0.125-0.035c-0.119-0.045-0.199-0.072-0.24-0.08c0.008-0.047-0.002-0.09-0.025-0.129
	c-0.021-0.041-0.049-0.07-0.08-0.09c-0.029-0.021-0.07-0.047-0.123-0.08c-0.055-0.033-0.092-0.057-0.111-0.07
	c-0.014-0.014-0.037-0.033-0.07-0.061s-0.057-0.045-0.068-0.055c-0.014-0.01-0.039-0.025-0.076-0.045s-0.064-0.025-0.084-0.02
	c-0.021,0.006-0.055,0.01-0.102,0.01l-0.029,0.01c-0.02,0.006-0.039,0.016-0.055,0.025c-0.018,0.01-0.035,0.02-0.055,0.029
	c-0.021,0.01-0.033,0.021-0.041,0.029c-0.006,0.012-0.006,0.02,0,0.025c-0.141-0.113-0.26-0.186-0.359-0.219
	c-0.033-0.008-0.07-0.025-0.109-0.057c-0.041-0.029-0.076-0.053-0.105-0.068c-0.029-0.018-0.064-0.021-0.1-0.016
	c-0.037,0.006-0.076,0.029-0.115,0.07c-0.033,0.033-0.055,0.084-0.061,0.15s-0.014,0.109-0.02,0.129
	c-0.047-0.033-0.047-0.092,0-0.174c0.047-0.084,0.053-0.146,0.02-0.186c-0.02-0.041-0.055-0.055-0.105-0.045
	c-0.049,0.01-0.09,0.025-0.119,0.045s-0.068,0.049-0.115,0.084c-0.047,0.037-0.076,0.059-0.09,0.066
	c-0.014,0.006-0.043,0.023-0.086,0.055c-0.043,0.029-0.07,0.055-0.084,0.074c-0.02,0.027-0.041,0.066-0.061,0.121
	c-0.02,0.053-0.037,0.09-0.049,0.109c-0.014-0.027-0.053-0.049-0.115-0.064c-0.064-0.018-0.096-0.035-0.096-0.057
	c0.014,0.068,0.027,0.184,0.041,0.352c0.012,0.166,0.029,0.293,0.049,0.379c0.047,0.207,0.006,0.367-0.119,0.48
	c-0.18,0.168-0.277,0.301-0.291,0.4c-0.027,0.146,0.014,0.232,0.121,0.26c0,0.047-0.027,0.115-0.08,0.205
	c-0.055,0.09-0.078,0.162-0.07,0.215C11.09,16.18,11.096,16.234,11.109,16.301z"/>
</svg>
