<?xml version="1.0" encoding="utf-8"?>
<!-- Generator: Adobe Illustrator 16.0.4, SVG Export Plug-In . SVG Version: 6.00 Build 0)  -->
<!DOCTYPE svg PUBLIC "-//W3C//DTD SVG 1.1//EN" "http://www.w3.org/Graphics/SVG/1.1/DTD/svg11.dtd">
<svg version="1.1" id="picto" xmlns="http://www.w3.org/2000/svg" xmlns:xlink="http://www.w3.org/1999/xlink" x="0px" y="0px"
	 width="20px" height="20px" viewBox="0 0 20 20" enable-background="new 0 0 20 20" xml:space="preserve">
<rect fill="none" width="20" height="20"/>
<path d="M17.555,9.68c-0.029-0.115-0.074-0.229-0.139-0.334c-1.566-2.584-4.35-4.127-7.449-4.127c-3.105,0-5.867,1.548-7.391,4.142
	c-0.059,0.1-0.102,0.205-0.131,0.313c-0.061,0.096-0.07,0.452-0.012,0.545c0.025,0.142,0.066,0.279,0.143,0.407
	c1.697,2.891,4.391,4.548,7.385,4.548c0.002,0,0.002,0,0.002,0c2.99,0,5.707-1.652,7.453-4.532c0.082-0.134,0.125-0.28,0.152-0.431
	C17.627,10.121,17.617,9.773,17.555,9.68z M14.066,9.221c-0.418,1.863-2.076,3.259-4.066,3.259c-1.998,0-3.664-1.405-4.072-3.28
	c1.08-0.942,2.496-1.48,4.039-1.48C11.523,7.719,12.961,8.266,14.066,9.221z"/>
</svg>
