<?xml version="1.0" encoding="utf-8"?>
<!-- Generator: Adobe Illustrator 16.0.4, SVG Export Plug-In . SVG Version: 6.00 Build 0)  -->
<!DOCTYPE svg PUBLIC "-//W3C//DTD SVG 1.1//EN" "http://www.w3.org/Graphics/SVG/1.1/DTD/svg11.dtd">
<svg version="1.1" id="picto" xmlns="http://www.w3.org/2000/svg" xmlns:xlink="http://www.w3.org/1999/xlink" x="0px" y="0px"
	 width="20px" height="20px" viewBox="0 0 20 20" enable-background="new 0 0 20 20" xml:space="preserve">
<rect fill="none" width="20" height="20"/>
<g>
	<path d="M5.848,12.922H4.543v-8.25h1.305V12.922z"/>
	<path d="M10.74,12.922c-0.057-0.111-0.107-0.292-0.15-0.542c-0.415,0.433-0.924,0.65-1.525,0.65c-0.583,0-1.06-0.167-1.428-0.5
		c-0.369-0.333-0.554-0.745-0.554-1.235c0-0.62,0.229-1.095,0.69-1.426c0.46-0.331,1.117-0.497,1.974-0.497h0.8V8.99
		c0-0.301-0.084-0.542-0.252-0.723c-0.168-0.181-0.424-0.271-0.768-0.271c-0.298,0-0.541,0.074-0.73,0.223
		c-0.19,0.148-0.285,0.337-0.285,0.566H7.207c0-0.319,0.105-0.617,0.316-0.895c0.211-0.277,0.498-0.495,0.862-0.652
		c0.363-0.158,0.769-0.236,1.216-0.236c0.681,0,1.223,0.171,1.628,0.513c0.405,0.342,0.612,0.823,0.623,1.442v2.621
		c0,0.523,0.073,0.94,0.22,1.251v0.091H10.74z M9.307,11.982c0.258,0,0.5-0.062,0.728-0.188s0.398-0.293,0.513-0.505v-1.096H9.844
		c-0.483,0-0.847,0.084-1.09,0.252c-0.244,0.168-0.365,0.406-0.365,0.714c0,0.25,0.083,0.45,0.249,0.599
		C8.805,11.908,9.027,11.982,9.307,11.982z"/>
	<path d="M14.855,5.698V7.11h1.025v0.967h-1.025v3.244c0,0.222,0.043,0.382,0.131,0.48c0.088,0.099,0.244,0.148,0.471,0.148
		c0.15,0,0.303-0.018,0.456-0.054v1.01c-0.298,0.083-0.583,0.124-0.859,0.124c-1.003,0-1.504-0.553-1.504-1.66V8.077h-0.956V7.11
		h0.956V5.698H14.855z"/>
</g>
</svg>
