<?xml version="1.0" encoding="utf-8"?>
<!-- Generator: Adobe Illustrator 16.0.4, SVG Export Plug-In . SVG Version: 6.00 Build 0)  -->
<!DOCTYPE svg PUBLIC "-//W3C//DTD SVG 1.1//EN" "http://www.w3.org/Graphics/SVG/1.1/DTD/svg11.dtd">
<svg version="1.1" id="picto" xmlns="http://www.w3.org/2000/svg" xmlns:xlink="http://www.w3.org/1999/xlink" x="0px" y="0px"
	 width="20px" height="20px" viewBox="0 0 20 20" enable-background="new 0 0 20 20" xml:space="preserve">
<rect fill="none" width="20" height="20"/>
<path fill="#94BF3D" d="M10,2.32c1.393,0,2.678,0.344,3.854,1.03c1.178,0.687,2.109,1.618,2.797,2.794
	C17.336,7.322,17.68,8.607,17.68,10c0,1.394-0.344,2.679-1.029,3.855c-0.688,1.177-1.619,2.108-2.797,2.795
	C12.678,17.338,11.393,17.68,10,17.68c-1.395,0-2.68-0.342-3.855-1.029c-1.178-0.687-2.109-1.618-2.795-2.795
	C2.662,12.679,2.32,11.394,2.32,10c0-1.393,0.342-2.678,1.029-3.855c0.686-1.176,1.617-2.107,2.795-2.794
	C7.32,2.664,8.605,2.32,10,2.32z M12.74,7.531c-0.014,0.006-0.045,0.037-0.096,0.094s-0.096,0.089-0.135,0.096
	c0.014,0,0.027-0.018,0.045-0.051c0.016-0.033,0.033-0.069,0.051-0.109c0.016-0.04,0.027-0.063,0.033-0.07
	c0.041-0.047,0.115-0.097,0.221-0.15c0.094-0.039,0.268-0.079,0.52-0.119c0.227-0.054,0.396-0.018,0.51,0.109
	c-0.014-0.013,0.02-0.057,0.096-0.13s0.125-0.112,0.145-0.12c0.021-0.013,0.07-0.028,0.15-0.045c0.08-0.016,0.131-0.041,0.15-0.074
	l0.02-0.221c-0.08,0.007-0.139-0.017-0.176-0.069c-0.035-0.054-0.057-0.124-0.064-0.21c0,0.013-0.02,0.039-0.059,0.079
	c0-0.046-0.016-0.073-0.047-0.079c-0.029-0.008-0.066-0.004-0.113,0.01s-0.078,0.016-0.09,0.01c-0.068-0.02-0.117-0.045-0.15-0.075
	c-0.033-0.029-0.061-0.085-0.08-0.165s-0.033-0.13-0.041-0.149c-0.014-0.034-0.045-0.068-0.094-0.104
	c-0.051-0.037-0.082-0.072-0.096-0.105c-0.006-0.014-0.016-0.032-0.025-0.055c-0.01-0.023-0.02-0.045-0.029-0.066
	c-0.01-0.02-0.023-0.037-0.041-0.055c-0.016-0.016-0.035-0.024-0.055-0.024s-0.043,0.017-0.07,0.05
	c-0.025,0.033-0.051,0.066-0.074,0.1S13.105,5.881,13.1,5.881c-0.02-0.014-0.041-0.019-0.061-0.016
	c-0.02,0.004-0.035,0.007-0.045,0.01c-0.01,0.004-0.025,0.014-0.045,0.03S12.912,5.934,12.9,5.941
	c-0.021,0.012-0.049,0.022-0.086,0.029s-0.064,0.014-0.086,0.02c0.102-0.033,0.098-0.07-0.01-0.109
	c-0.066-0.027-0.119-0.037-0.16-0.031c0.061-0.025,0.086-0.066,0.076-0.119s-0.039-0.1-0.086-0.14H12.6
	c-0.006-0.027-0.035-0.056-0.086-0.085c-0.049-0.03-0.107-0.059-0.174-0.086c-0.066-0.025-0.111-0.046-0.131-0.06
	c-0.053-0.033-0.166-0.065-0.34-0.095c-0.174-0.03-0.283-0.031-0.33-0.006c-0.033,0.041-0.049,0.076-0.045,0.105
	c0.004,0.031,0.018,0.076,0.041,0.141c0.023,0.062,0.035,0.104,0.035,0.125c0.006,0.039-0.012,0.083-0.057,0.129
	c-0.043,0.047-0.064,0.088-0.064,0.121c0,0.047,0.047,0.098,0.141,0.154s0.127,0.129,0.1,0.215c-0.02,0.054-0.074,0.107-0.16,0.16
	c-0.086,0.054-0.141,0.094-0.16,0.121c-0.033,0.053-0.039,0.113-0.014,0.185c0.021,0.069,0.057,0.124,0.104,0.165
	c0.014,0.014,0.02,0.026,0.016,0.04c-0.004,0.013-0.016,0.028-0.035,0.045s-0.039,0.029-0.055,0.04
	c-0.018,0.01-0.039,0.021-0.064,0.034l-0.031,0.021C11.217,7.094,11.148,7.074,11.084,7c-0.062-0.072-0.107-0.16-0.135-0.26
	c-0.047-0.166-0.1-0.267-0.16-0.299c-0.152-0.055-0.25-0.051-0.289,0.009c-0.033-0.087-0.17-0.173-0.41-0.259
	C9.924,6.131,9.729,6.117,9.51,6.15c0.039-0.006,0.039-0.057,0-0.15C9.463,5.9,9.398,5.86,9.32,5.881
	C9.34,5.84,9.354,5.782,9.359,5.705c0.006-0.076,0.01-0.121,0.01-0.135C9.389,5.484,9.43,5.407,9.49,5.34
	C9.496,5.334,9.52,5.305,9.559,5.256C9.6,5.205,9.631,5.16,9.654,5.12s0.025-0.06,0.006-0.06c0.232,0.027,0.398-0.01,0.5-0.11
	c0.033-0.033,0.07-0.09,0.113-0.17c0.045-0.079,0.08-0.136,0.105-0.17c0.061-0.04,0.107-0.059,0.141-0.056
	c0.033,0.004,0.082,0.022,0.145,0.056c0.064,0.034,0.111,0.05,0.145,0.05c0.094,0.007,0.146-0.029,0.156-0.109
	s-0.016-0.146-0.076-0.201c0.08,0.008,0.092-0.049,0.031-0.169c-0.033-0.047-0.061-0.077-0.08-0.09
	c-0.08-0.027-0.17-0.011-0.27,0.05c-0.055,0.026-0.047,0.053,0.02,0.08c-0.008-0.007-0.039,0.028-0.096,0.104
	C10.438,4.402,10.383,4.461,10.33,4.5c-0.055,0.041-0.107,0.023-0.16-0.049c-0.008-0.008-0.025-0.053-0.055-0.136
	c-0.031-0.083-0.062-0.128-0.096-0.135c-0.053,0-0.107,0.05-0.16,0.149c0.02-0.053-0.018-0.104-0.109-0.149
	C9.656,4.134,9.576,4.107,9.51,4.1c0.127-0.079,0.1-0.169-0.08-0.27C9.383,3.803,9.314,3.787,9.225,3.78S9.07,3.787,9.029,3.82
	C8.996,3.867,8.979,3.905,8.975,3.936c-0.004,0.029,0.014,0.057,0.051,0.08c0.035,0.023,0.07,0.041,0.104,0.055
	s0.072,0.027,0.115,0.04c0.043,0.014,0.072,0.023,0.086,0.03c0.094,0.066,0.119,0.113,0.08,0.14
	C9.396,4.287,9.367,4.299,9.324,4.315S9.242,4.348,9.209,4.36C9.176,4.374,9.156,4.387,9.148,4.4c-0.02,0.027-0.02,0.073,0,0.141
	c0.021,0.066,0.014,0.113-0.02,0.14c-0.033-0.034-0.062-0.093-0.09-0.175C9.014,4.422,8.99,4.367,8.969,4.34
	C9.016,4.4,8.934,4.42,8.719,4.4l-0.1-0.01c-0.027,0-0.08,0.006-0.16,0.02S8.311,4.428,8.254,4.42
	C8.197,4.414,8.152,4.387,8.119,4.34c-0.025-0.053-0.025-0.119,0-0.199C8.127,4.113,8.139,4.107,8.16,4.12
	C8.133,4.1,8.096,4.068,8.049,4.025s-0.08-0.072-0.1-0.085C7.643,4.041,7.33,4.178,7.01,4.35c0.039,0.008,0.08,0.004,0.119-0.01
	C7.162,4.327,7.205,4.305,7.26,4.275c0.053-0.029,0.086-0.049,0.1-0.055c0.227-0.094,0.367-0.117,0.42-0.07L7.83,4.1
	c0.092,0.107,0.16,0.191,0.199,0.25C7.982,4.324,7.883,4.32,7.73,4.34C7.596,4.381,7.523,4.42,7.51,4.461
	c0.047,0.08,0.062,0.139,0.049,0.18c-0.025-0.021-0.064-0.053-0.113-0.1c-0.051-0.047-0.1-0.084-0.146-0.11S7.203,4.387,7.15,4.381
	c-0.107,0-0.182,0.003-0.221,0.01C5.957,4.924,5.172,5.664,4.58,6.61c0.045,0.047,0.086,0.073,0.119,0.081
	C4.727,6.697,4.742,6.727,4.75,6.779c0.006,0.055,0.014,0.092,0.023,0.111C4.785,6.91,4.822,6.9,4.889,6.86
	c0.061,0.054,0.07,0.117,0.031,0.19c0.006-0.008,0.152,0.082,0.439,0.27c0.127,0.113,0.197,0.184,0.209,0.211
	c0.021,0.072-0.012,0.133-0.1,0.18c-0.006-0.014-0.035-0.044-0.09-0.09C5.326,7.574,5.297,7.561,5.289,7.58
	C5.27,7.613,5.271,7.676,5.295,7.766S5.354,7.896,5.4,7.891c-0.047,0-0.08,0.053-0.096,0.16C5.287,8.157,5.279,8.275,5.279,8.405
	S5.275,8.613,5.27,8.641l0.02,0.01C5.27,8.73,5.287,8.846,5.344,8.995C5.4,9.146,5.473,9.211,5.559,9.19
	C5.473,9.211,5.539,9.354,5.76,9.621c0.039,0.053,0.066,0.083,0.08,0.09c0.02,0.013,0.059,0.038,0.119,0.074
	c0.061,0.037,0.109,0.07,0.15,0.1c0.039,0.031,0.074,0.066,0.1,0.105c0.027,0.033,0.061,0.108,0.1,0.225
	c0.041,0.117,0.088,0.195,0.141,0.236c-0.014,0.039,0.018,0.106,0.096,0.199c0.076,0.094,0.111,0.17,0.105,0.23
	c-0.008,0-0.016,0.003-0.025,0.01C6.613,10.897,6.605,10.9,6.6,10.9c0.02,0.047,0.072,0.094,0.154,0.141
	c0.084,0.046,0.135,0.09,0.156,0.129c0.006,0.021,0.012,0.054,0.02,0.101c0.006,0.046,0.016,0.083,0.029,0.11
	C6.973,11.407,7,11.414,7.039,11.4c0.014-0.133-0.066-0.34-0.24-0.62c-0.1-0.167-0.156-0.263-0.17-0.29
	c-0.02-0.033-0.037-0.084-0.055-0.154c-0.016-0.07-0.031-0.119-0.045-0.146c0.014,0,0.033,0.005,0.061,0.015
	c0.025,0.01,0.055,0.021,0.084,0.035c0.031,0.014,0.057,0.027,0.076,0.04c0.02,0.014,0.025,0.023,0.02,0.03
	c-0.02,0.047-0.014,0.105,0.02,0.175c0.033,0.07,0.074,0.132,0.121,0.185c0.045,0.054,0.102,0.117,0.17,0.191
	c0.066,0.072,0.105,0.115,0.119,0.129c0.041,0.04,0.086,0.105,0.141,0.195c0.053,0.09,0.053,0.135,0,0.135
	c0.061,0,0.127,0.033,0.199,0.1c0.074,0.067,0.131,0.135,0.17,0.2c0.033,0.054,0.061,0.14,0.08,0.261
	C7.809,12,7.826,12.08,7.84,12.121c0.014,0.046,0.041,0.092,0.084,0.135s0.086,0.074,0.125,0.095l0.16,0.08L8.34,12.5
	c0.033,0.014,0.094,0.049,0.186,0.105c0.09,0.057,0.16,0.096,0.215,0.115c0.066,0.026,0.119,0.039,0.158,0.039
	c0.041,0,0.09-0.008,0.146-0.024s0.102-0.028,0.135-0.034c0.1-0.014,0.197,0.036,0.289,0.149c0.094,0.113,0.164,0.184,0.211,0.21
	c0.24,0.127,0.424,0.163,0.549,0.109c-0.012,0.008-0.01,0.033,0.006,0.076c0.018,0.043,0.043,0.095,0.08,0.154
	c0.037,0.061,0.066,0.108,0.09,0.145c0.023,0.037,0.041,0.065,0.055,0.086c0.033,0.039,0.094,0.09,0.18,0.149
	c0.088,0.061,0.146,0.11,0.182,0.15c0.039-0.026,0.062-0.057,0.068-0.09c-0.02,0.054,0.004,0.119,0.07,0.2
	c0.066,0.079,0.127,0.113,0.18,0.1c0.094-0.021,0.141-0.127,0.141-0.32c-0.207,0.1-0.369,0.04-0.49-0.18
	c0-0.007-0.008-0.025-0.025-0.055c-0.016-0.031-0.029-0.059-0.039-0.086c-0.01-0.026-0.018-0.055-0.025-0.085
	c-0.006-0.029-0.006-0.054,0-0.074c0.008-0.021,0.023-0.03,0.051-0.03c0.059,0,0.092-0.012,0.1-0.035
	c0.006-0.023,0-0.064-0.02-0.125c-0.021-0.061-0.033-0.104-0.041-0.13c-0.006-0.054-0.043-0.12-0.109-0.2s-0.107-0.13-0.121-0.15
	c-0.033,0.061-0.086,0.088-0.16,0.081c-0.072-0.007-0.125-0.037-0.16-0.091c0,0.007-0.004,0.025-0.014,0.055
	c-0.01,0.031-0.016,0.053-0.016,0.065c-0.086,0-0.137-0.003-0.15-0.01c0.008-0.02,0.016-0.079,0.025-0.175
	c0.01-0.097,0.021-0.172,0.035-0.226c0.008-0.026,0.025-0.065,0.055-0.119c0.031-0.054,0.055-0.103,0.076-0.146
	c0.02-0.043,0.033-0.085,0.039-0.125c0.008-0.04-0.008-0.072-0.045-0.095c-0.037-0.024-0.096-0.032-0.176-0.024
	c-0.125,0.006-0.213,0.072-0.26,0.199c-0.006,0.02-0.016,0.055-0.029,0.105c-0.014,0.049-0.029,0.088-0.051,0.114
	c-0.02,0.026-0.049,0.05-0.09,0.07c-0.047,0.02-0.125,0.026-0.24,0.02c-0.113-0.007-0.193-0.022-0.238-0.05
	c-0.088-0.053-0.162-0.15-0.227-0.29c-0.062-0.14-0.094-0.263-0.094-0.37c0-0.066,0.008-0.154,0.025-0.265
	c0.016-0.11,0.025-0.193,0.029-0.25S8.879,11.008,8.84,10.9c0.02-0.014,0.049-0.045,0.09-0.095c0.039-0.05,0.072-0.085,0.1-0.104
	c0.014-0.008,0.029-0.013,0.045-0.016c0.018-0.004,0.031-0.004,0.045,0c0.014,0.003,0.027-0.002,0.041-0.016
	c0.014-0.013,0.023-0.033,0.029-0.059c-0.006-0.008-0.02-0.018-0.041-0.031c-0.02-0.02-0.033-0.029-0.039-0.029
	c0.047,0.02,0.141,0.014,0.285-0.016c0.143-0.029,0.234-0.024,0.275,0.016c0.1,0.073,0.172,0.066,0.219-0.02
	c0-0.008-0.008-0.039-0.023-0.096c-0.018-0.057-0.02-0.102-0.006-0.135c0.033,0.18,0.129,0.21,0.289,0.09
	c0.021,0.02,0.072,0.036,0.156,0.05c0.082,0.014,0.141,0.03,0.174,0.05c0.021,0.014,0.045,0.031,0.07,0.055
	c0.027,0.023,0.045,0.039,0.055,0.045c0.012,0.008,0.027,0.006,0.051-0.004c0.023-0.011,0.053-0.032,0.084-0.066
	c0.068,0.094,0.107,0.174,0.121,0.24c0.074,0.268,0.137,0.414,0.189,0.441c0.047,0.02,0.084,0.025,0.111,0.02
	c0.025-0.008,0.041-0.039,0.045-0.096c0.002-0.057,0.002-0.104,0-0.14c-0.004-0.036-0.01-0.078-0.016-0.124l-0.01-0.081v-0.18
	l-0.01-0.081c-0.1-0.02-0.162-0.059-0.186-0.119S10.967,10.279,11,10.215c0.033-0.062,0.082-0.125,0.15-0.184
	c0.006-0.008,0.033-0.02,0.08-0.036c0.045-0.017,0.098-0.038,0.154-0.065c0.057-0.025,0.098-0.053,0.125-0.079
	c0.141-0.127,0.189-0.243,0.15-0.351c0.047,0,0.082-0.029,0.109-0.09c-0.006,0-0.023-0.01-0.051-0.029
	c-0.025-0.021-0.051-0.037-0.074-0.051s-0.039-0.02-0.045-0.02c0.061-0.033,0.066-0.087,0.02-0.16
	c0.033-0.02,0.059-0.057,0.076-0.11c0.016-0.054,0.041-0.086,0.074-0.1C11.83,9.02,11.9,9.027,11.98,8.961
	c0.045-0.054,0.049-0.107,0.01-0.16c0.033-0.047,0.102-0.082,0.205-0.105c0.102-0.023,0.164-0.055,0.184-0.095
	c0.047,0.013,0.074,0.007,0.08-0.021c0.008-0.026,0.01-0.066,0.01-0.119c0-0.054,0.01-0.094,0.031-0.121
	c0.025-0.033,0.076-0.062,0.15-0.09c0.072-0.025,0.115-0.043,0.129-0.05l0.17-0.11c0.02-0.025,0.02-0.039,0-0.039
	c0.119,0.014,0.223-0.023,0.311-0.11c0.066-0.073,0.047-0.14-0.061-0.2c0.02-0.04,0.01-0.071-0.029-0.095
	c-0.041-0.023-0.09-0.042-0.15-0.056c0.02-0.006,0.059-0.008,0.115-0.005s0.092-0.001,0.105-0.015c0.1-0.066,0.076-0.12-0.07-0.16
	C13.057,7.377,12.912,7.417,12.74,7.531z M11.109,16.301c1.373-0.24,2.543-0.87,3.51-1.891c-0.02-0.02-0.061-0.035-0.125-0.045
	c-0.062-0.01-0.105-0.021-0.125-0.035c-0.119-0.046-0.199-0.073-0.24-0.08c0.008-0.047-0.002-0.09-0.025-0.13
	c-0.021-0.04-0.049-0.069-0.08-0.09c-0.029-0.021-0.07-0.046-0.123-0.079c-0.055-0.034-0.092-0.057-0.111-0.07
	c-0.014-0.014-0.037-0.033-0.07-0.061s-0.057-0.045-0.068-0.055c-0.014-0.01-0.039-0.025-0.076-0.045s-0.064-0.026-0.084-0.02
	c-0.021,0.006-0.055,0.01-0.102,0.01l-0.029,0.01c-0.02,0.006-0.039,0.015-0.055,0.025c-0.018,0.01-0.035,0.02-0.055,0.029
	c-0.021,0.01-0.033,0.021-0.041,0.029c-0.006,0.011-0.006,0.02,0,0.025c-0.141-0.113-0.26-0.186-0.359-0.22
	c-0.033-0.007-0.07-0.024-0.109-0.056c-0.041-0.029-0.076-0.053-0.105-0.069s-0.064-0.021-0.1-0.015
	c-0.037,0.006-0.076,0.029-0.115,0.07c-0.033,0.033-0.055,0.083-0.061,0.149s-0.014,0.11-0.02,0.13
	c-0.047-0.033-0.047-0.092,0-0.175s0.053-0.146,0.02-0.185c-0.02-0.041-0.055-0.055-0.105-0.046
	c-0.049,0.011-0.09,0.025-0.119,0.046c-0.029,0.02-0.068,0.048-0.115,0.084c-0.047,0.037-0.076,0.059-0.09,0.065
	s-0.043,0.024-0.086,0.056c-0.043,0.029-0.07,0.055-0.084,0.074c-0.02,0.027-0.041,0.066-0.061,0.12s-0.037,0.091-0.049,0.11
	c-0.014-0.027-0.053-0.049-0.115-0.064c-0.064-0.018-0.096-0.036-0.096-0.057c0.014,0.067,0.027,0.184,0.041,0.352
	c0.012,0.166,0.029,0.293,0.049,0.379c0.047,0.207,0.006,0.367-0.119,0.48c-0.18,0.167-0.277,0.3-0.291,0.4
	c-0.027,0.146,0.014,0.232,0.121,0.26c0,0.047-0.027,0.115-0.08,0.205c-0.055,0.09-0.078,0.161-0.07,0.215
	C11.09,16.18,11.096,16.234,11.109,16.301z"/>
</svg>
