<svg xmlns="http://www.w3.org/2000/svg" viewBox="0 0 100 100"><defs><style>.a{fill:#99bbc9;}.b{fill:#7da9bb;}.c{fill:#ccdde4;}.d{fill:#508ba3;}</style></defs><title>boutons_settings_9juin2016</title><polygon class="a" points="44.29 60.68 52.9 58.64 56.19 58.04 73.3 49.44 78.01 41.39 60.9 21.6 69.41 3.94 69.48 0 0 0 0 72.77 29.27 53.52 44.29 60.68"/><polygon class="b" points="60.9 21.6 78.01 41.39 87.38 36.89 100 36.91 100 0 69.48 0 69.41 3.94 60.9 21.6"/><polygon class="c" points="100 36.91 87.38 36.89 78.01 41.39 73.3 49.44 56.19 58.04 56.25 66.16 47.05 69.65 37.34 86.15 50.35 100 100 100 100 36.91"/><polygon class="d" points="47.05 69.65 56.25 66.16 56.19 58.04 52.9 58.64 44.29 60.68 29.27 53.52 0 72.77 0 100 50.35 100 37.34 86.15 47.05 69.65"/></svg>