<?xml version="1.0" encoding="utf-8"?>
<!-- Generator: Adobe Illustrator 16.0.4, SVG Export Plug-In . SVG Version: 6.00 Build 0)  -->
<!DOCTYPE svg PUBLIC "-//W3C//DTD SVG 1.1//EN" "http://www.w3.org/Graphics/SVG/1.1/DTD/svg11.dtd">
<svg version="1.1" id="picto" xmlns="http://www.w3.org/2000/svg" xmlns:xlink="http://www.w3.org/1999/xlink" x="0px" y="0px"
	 width="20px" height="20px" viewBox="0 0 20 20" enable-background="new 0 0 20 20" xml:space="preserve">
<rect fill="none" width="20" height="20"/>
<g>
	<path d="M16.559,9.665c0.008,0.013,0.02,0.035,0.029,0.072l0.008,0.03l-0.014,0.074c-0.012,0.063-0.021,0.085-0.021,0.085
		c-1.562,2.574-3.967,4.051-6.6,4.051c-0.672,0-1.328-0.099-1.957-0.286l-0.793,0.774c0.871,0.325,1.793,0.512,2.75,0.512l0,0
		c2.99,0,5.707-1.652,7.455-4.532c0.08-0.134,0.125-0.28,0.15-0.431c0.059-0.09,0.049-0.438-0.012-0.531
		c-0.031-0.115-0.076-0.229-0.139-0.334c-0.59-0.973-1.354-1.797-2.238-2.448l-0.734,0.715C15.283,8.005,16.01,8.759,16.559,9.665z"
		/>
	<path d="M3.438,9.924c0-0.001-0.01-0.021-0.021-0.085l-0.014-0.07l0.01-0.039c0.006-0.022,0.014-0.041,0.025-0.06
		c1.342-2.284,3.781-3.648,6.529-3.648c0.707,0,1.395,0.094,2.051,0.268l0.809-0.788c-0.902-0.304-1.861-0.479-2.859-0.479
		c-3.105,0-5.869,1.548-7.393,4.142c-0.059,0.1-0.102,0.205-0.129,0.313C2.383,9.573,2.373,9.93,2.432,10.022
		c0.027,0.142,0.068,0.279,0.143,0.407c0.654,1.112,1.457,2.037,2.365,2.76l0.729-0.71C4.811,11.821,4.051,10.968,3.438,9.924z"/>
</g>
<line fill="none" stroke="#000000" stroke-linecap="round" stroke-miterlimit="10" x1="17.383" y1="2.806" x2="2.621" y2="17.194"/>
</svg>
