<svg viewBox="0 0 56 20" xmlns="http://www.w3.org/2000/svg"><path d="m0 0h56v20h-56z" fill="none"/><g stroke-miterlimit="10" stroke-width="1.5"><path d="m9.91 6v8a4 4 0 0 0 0-8z" fill="#f68d07" stroke="#fff"/><path d="m9.91 18.21v-16.42a8.21 8.21 0 0 0 0 16.42z" fill="#48a692" stroke="#fff"/><path d="m9.91 1.79v8.21 8.21" fill="none" stroke="#1d1d1b" stroke-linecap="square"/><path d="m46.07 14v-8a4 4 0 1 0 0 8z" fill="#48a692" stroke="#fff"/><path d="m46.07 1.79v16.42a8.21 8.21 0 0 0 0-16.42z" fill="#f68d07" stroke="#fff"/><path d="m46.07 18.21v-8.21-8.21" fill="none" stroke="#1d1d1b" stroke-linecap="square"/><path d="m28 15.68v-11.36a5.68 5.68 0 1 0 0 11.36z" fill="#48a692" stroke="#fff"/><path d="m28 4.32v11.36a5.68 5.68 0 1 0 0-11.36z" fill="#f68d07" stroke="#fff"/><path d="m27.99 18.21v-8.21-8.21" fill="none" stroke="#1d1d1b" stroke-linecap="square"/></g></svg>