<svg xmlns="http://www.w3.org/2000/svg" xmlns:xlink="http://www.w3.org/1999/xlink" viewBox="0 0 200 100"><defs><style>.cls-1{fill:none;}.cls-2{clip-path:url(#clip-path);}.cls-3{fill:#e3dbd5;}.cls-4{fill:#9bd836;}.cls-4,.cls-5,.cls-6{stroke:#fff;stroke-miterlimit:10;stroke-width:1.5px;}.cls-5{fill:#e775bb;}.cls-6{fill:#6686c2;}</style><clipPath id="clip-path"><rect class="cls-1" width="200" height="100"/></clipPath></defs><title>large-7</title><g id="Calque_1" data-name="Calque 1"><g class="cls-2"><rect class="cls-3" width="200" height="100"/><polygon class="cls-3" points="53 30.3 43.8 33.8 43.8 42 47.1 41.4 55.7 39.3 70.7 46.5 200 27.2 200 0 49.7 0 62.7 13.8 53 30.3"/><rect class="cls-4" x="168.45" y="17.15" width="28.2" height="28.2" transform="translate(31.37 138.23) rotate(-45)"/><rect class="cls-4" x="168.45" y="17.15" width="28.2" height="28.2" transform="translate(31.37 138.23) rotate(-45)"/><rect class="cls-4" x="168.45" y="17.15" width="28.2" height="28.2" transform="translate(31.37 138.23) rotate(-45)"/><polygon class="cls-3" points="55.7 39.3 47.1 41.4 43.8 42 26.7 50.6 22 58.6 39.1 78.4 30.6 96.1 30.5 100 100 100 100 27.2 70.7 46.5 55.7 39.3"/><rect class="cls-1" width="100" height="100"/><polygon class="cls-3" points="39.1 78.4 22 58.6 12.6 63.1 0 63.1 0 100 30.5 100 30.6 96.1 39.1 78.4"/><rect class="cls-1" width="100" height="100"/><polygon class="cls-3" points="0 63.1 12.6 63.1 22 58.6 26.7 50.6 43.8 42 43.8 33.8 53 30.3 62.7 13.8 49.7 0 0 0 0 63.1"/><rect class="cls-4" x="46.37" y="39.03" width="78.2" height="78.2" transform="translate(-30.21 83.32) rotate(-45)"/><rect class="cls-5" x="37.2" y="39.7" width="40.4" height="40.4" transform="translate(-25.54 58.13) rotate(-45)"/><rect class="cls-6" x="0.83" y="72.8" width="21" height="21" transform="translate(-55.58 32.41) rotate(-45)"/><rect class="cls-5" x="17.2" y="53.8" width="10.8" height="10.8" transform="translate(-35.24 33.32) rotate(-45)"/><rect class="cls-6" x="17.66" y="-7.14" width="25.8" height="25.8" transform="translate(4.88 23.3) rotate(-45)"/><rect class="cls-4" x="20.5" y="16.6" width="13.6" height="13.6" transform="translate(-8.55 26.16) rotate(-45)"/><rect class="cls-4" x="151.61" y="94.51" width="13.6" height="13.6" transform="translate(-25.24 141.69) rotate(-45)"/><rect class="cls-5" x="96.96" y="36.03" width="24.28" height="24.28" transform="translate(-2.11 91.26) rotate(-45)"/><rect class="cls-5" x="189.82" y="44.2" width="24.28" height="24.28" transform="translate(19.31 159.31) rotate(-45)"/><rect class="cls-5" x="146.41" y="49.74" width="13.73" height="13.73" transform="translate(4.87 124.96) rotate(-45)"/><rect class="cls-5" x="176.78" y="72.83" width="7.41" height="7.41" transform="translate(-1.26 150.04) rotate(-45)"/><rect class="cls-6" x="45" y="18.4" width="11.2" height="11.2" transform="translate(-2.15 42.81) rotate(-45)"/><rect class="cls-6" x="116.14" y="73.79" width="11.2" height="11.2" transform="translate(-20.48 109.33) rotate(-45)"/><rect class="cls-6" x="185.08" y="40.72" width="11.2" height="11.2" transform="translate(23.1 148.4) rotate(-45)"/><rect class="cls-6" x="172.33" y="13.43" width="11.2" height="11.2" transform="translate(38.66 131.39) rotate(-45)"/><rect class="cls-5" x="60.1" y="10.8" width="10.2" height="10.2" transform="translate(7.85 50.76) rotate(-45)"/><rect class="cls-5" x="144.19" y="26.74" width="10.2" height="10.2" transform="translate(21.21 114.89) rotate(-45)"/><rect class="cls-5" x="171.88" y="83.93" width="10.2" height="10.2" transform="translate(-11.11 151.22) rotate(-45)"/><rect class="cls-4" x="-11.2" y="3.4" width="28.2" height="28.2" transform="translate(-11.52 7.18) rotate(-45)"/><rect class="cls-6" x="84.35" y="10.78" width="7.4" height="7.4" transform="translate(15.55 66.5) rotate(-45)"/><rect class="cls-6" x="75.91" y="23.46" width="7.4" height="7.4" transform="translate(4.11 64.25) rotate(-45)"/><rect class="cls-6" x="90.81" y="20.35" width="5.74" height="5.74" transform="translate(11.02 73.05) rotate(-45)"/><rect class="cls-6" x="94.29" y="-1.01" width="5.74" height="5.74" transform="translate(27.14 69.25) rotate(-45)"/></g></g></svg>