<svg viewBox="0 0 56 20" xmlns="http://www.w3.org/2000/svg" xmlns:xlink="http://www.w3.org/1999/xlink"><clipPath id="a"><path d="m79 0h200v100h-200z"/></clipPath><path d="m0 0h18.7v20h-18.7z" fill="#fc8d62"/><path d="m18.7 0h18.7v20h-18.7z" fill="#ffd92f"/><path d="m37.3 0h18.7v20h-18.7z" fill="#a6d854"/><path d="m0 0h56v20h-56z" fill="none"/><g clip-path="url(#a)"><path d="m82.63-71.22 1.15 4 3.22 1.36 2.4 4.23 6 2.86 20.6 18.33 21 19 11.32 10.39-5.32 5.27 2.38 2.21-14.55 4-14.56 4.29-14.5 4-14.46 4.2-1.56 7.45-1.3 5.16-5.39-.32-9.66 4.85-5.4-1.37-6.23 1.08-1 3.21-4.77-1.35-2.61-2.18-6.81-1.11-.56-4-3.81-3-2.52-3.37-2.87-2.11-3.72-5.18-2.81-2.35-6.35-3.23.77-3.34-1.79-2.64-2.85-1.76 1-5-.62-3.06.72-3.67-4.17-4.53 7.1-3.23 1.43-2.36 4.63-2.78 8.49-3.52 7.07 2.5 5.06-3 8.67-4.06 7.72-2.19.54-3.49-.53-4.45-5.32-3-1.38-4 .52-5.59 2.26-3.72 7.07-4.87 4.24.73 1.6-1.6 2.42-.58 5.12-3.89z" fill="#ffd92f"/><g fill="none"><path d="m82.63-71.22 1.15 4 3.22 1.36 2.4 4.23 6 2.86 20.6 18.33 21 19 11.32 10.39-5.32 5.27 2.38 2.21-14.55 4-14.56 4.29-14.5 4-14.46 4.2-1.56 7.45-1.3 5.16-5.39-.32-9.66 4.85-5.4-1.37-6.23 1.08-1 3.21-4.77-1.35-2.61-2.18-6.81-1.11-.56-4-3.81-3-2.52-3.37-2.87-2.11-3.72-5.18-2.81-2.35-6.35-3.23.77-3.34-1.79-2.64-2.85-1.76 1-5-.62-3.06.72-3.67-4.17-4.53 7.1-3.23 1.43-2.36 4.63-2.78 8.49-3.52 7.07 2.5 5.06-3 8.67-4.06 7.72-2.19.54-3.49-.53-4.45-5.32-3-1.38-4 .52-5.59 2.26-3.72 7.07-4.87 4.24.73 1.6-1.6 2.42-.58 5.12-3.89z"/><path d="m82.63-71.22 1.15 4 3.22 1.36 2.4 4.23 6 2.86 20.6 18.33 21 19 11.32 10.39-5.32 5.27 2.38 2.21-14.55 4-14.56 4.29-14.5 4-14.46 4.2-1.56 7.45-1.3 5.16-5.39-.32-9.66 4.85-5.4-1.37-6.23 1.08-1 3.21-4.77-1.35-2.61-2.18-6.81-1.11-.56-4-3.81-3-2.52-3.37-2.87-2.11-3.72-5.18-2.81-2.35-6.35-3.23.77-3.34-1.79-2.64-2.85-1.76 1-5-.62-3.06.72-3.67-4.17-4.53 7.1-3.23 1.43-2.36 4.63-2.78 8.49-3.52 7.07 2.5 5.06-3 8.67-4.06 7.72-2.19.54-3.49-.53-4.45-5.32-3-1.38-4 .52-5.59 2.26-3.72 7.07-4.87 4.24.73 1.6-1.6 2.42-.58 5.12-3.89z"/></g></g></svg>