<svg viewBox="0 0 200 100" xmlns="http://www.w3.org/2000/svg" xmlns:xlink="http://www.w3.org/1999/xlink"><clipPath id="a"><path d="m0 0h200v100h-200z"/></clipPath><pattern id="b" height="72" patternTransform="matrix(0 -1 1 0 -120.38 -9.77)" patternUnits="userSpaceOnUse" viewBox="0 0 72 72" width="72"><path d="m0 0h72v72h-72z" fill="none"/><path d="m71.75 66h72.5" fill="none" stroke="#b27713" stroke-width="2.4"/><path d="m71.75 42h72.5" fill="none" stroke="#b27713" stroke-width="2.4"/><path d="m71.75 18h72.5" fill="none" stroke="#b27713" stroke-width="2.4"/><path d="m71.75 54h72.5" fill="none" stroke="#b27713" stroke-width="2.4"/><path d="m71.75 30h72.5" fill="none" stroke="#b27713" stroke-width="2.4"/><path d="m71.75 6h72.5" fill="none" stroke="#b27713" stroke-width="2.4"/><path d="m-.25 66h72.5" fill="none" stroke="#b27713" stroke-width="2.4"/><path d="m-.25 42h72.5" fill="none" stroke="#b27713" stroke-width="2.4"/><path d="m-.25 18h72.5" fill="none" stroke="#b27713" stroke-width="2.4"/><path d="m-.25 54h72.5" fill="none" stroke="#b27713" stroke-width="2.4"/><path d="m-.25 30h72.5" fill="none" stroke="#b27713" stroke-width="2.4"/><path d="m-.25 6h72.5" fill="none" stroke="#b27713" stroke-width="2.4"/><path d="m-72.25 66h72.5" fill="none" stroke="#b27713" stroke-width="2.4"/><path d="m-72.25 42h72.5" fill="none" stroke="#b27713" stroke-width="2.4"/><path d="m-72.25 18h72.5" fill="none" stroke="#b27713" stroke-width="2.4"/><path d="m-72.25 54h72.5" fill="none" stroke="#b27713" stroke-width="2.4"/><path d="m-72.25 30h72.5" fill="none" stroke="#b27713" stroke-width="2.4"/><path d="m-72.25 6h72.5" fill="none" stroke="#b27713" stroke-width="2.4"/></pattern><g clip-path="url(#a)"><g fill="#ffd92f"><path d="m94 100.47 3.18 7.79-.18 2.18 3.9 4.51 2.81 1.77 1.23 1.89 5 .63 2.27 1.58 4.43 1.05 4-.36 2.55 2.2 2.16 1.14 2.5 3.16-5 2.42-5.07 2.33-6.07 5.7-1 .4-2 3.33-3.5 2.22-1.91 2.46-7.65 7.47-3.64-5-5.52-1.8-3 1.36-3.39-1.36-2 .36-1.3-1.63-2.68-5-3.12-7.43 1.34-1.34-.27-6 1.49-1.86 5-.41 1.44-4.87-2-2.61-1.13-3.44-2-3.31.3-4.69-3-4.65-.17-2.18-2.24-3.48-2.26-4.52-.25-8.17-1.69-2-.43-1.4-4.07-.33-1.6-1.89 1.06-1.6 5.37 1.59 4 3.19 3.45 3.69 7.48 2.44-2.6 2.42-1 1.7-2.73 1.63 1.68 3.63 5.82.4 3.11-1.27 2.81 1.76 5.3 2.21z"/><path d="m127.44 54 5.42-1 4.66-.44 1.85 1.8 6.07-.39 4.33.24 4.42 2 5.59-1.21 2.5.78-1 2.06-3.11 2.93-4.08 3-1.22 2.14.55 2.19-1.33 1.7-3 .41-2.44 7.92-2.65 1.59-.21 1.13 2 4.61-4.64 2.44-3.82 2.91-5.14.93-5.62 2.14-.9 4.12 1.18 4.5 3.26 4.24-3.3 2.75-4.2 2.19.16 5.51 2.62 7.63-2.16-1.14-2.55-2.2-4 .36-4.43-1.05-2.25-1.55-5-.63-1.23-1.89-2.89-1.72-3.88-4.56.16-2.18-3.16-7.79 3.48-4.22-.68-2.25.93-.75 2.47.1 3.58-7.79v-4l.57-4.41-2.45-1.4.78-1.88 5-4.07 1.75-6.88-2.71-9.2.2-4.41 2-4 2.93 1.83 6.13.65 2.24 2.15 1.4 3 2.11 1.37 3.16-.23z"/><path d="m66.33-3.57 22.48 20.68-4.37 3.63 1.9 6 2.31 4.46 2.23.17.19 3.11 2.85 1.73 1.17 3.41 1.47 2.38 1.3-2 3.08 1.32 3.35 2.88 3.26-.15 1.31 1.26-2 4-.2 4.41 2.71 9.2-1.75 6.88-5 4.07-.78 1.88 2.45 1.4-.57 4.41v4l-3.58 7.79-2.47-.1-.87.75.64 2.29-3.44 4.18-.72-2-5.3-2.21-2.81-1.76-3.17 1.24-5.82-.4-1.68-3.63 2.73-1.63 1-1.7 2.59-2.38-7.52-2.42-3.45-3.69-4-3.19-5.37-1.59-2.11-3-3.05 2.89-3.54-3.43-3.88-.15-5.28-9 .58-10.86-7.06-7.08-9.46-12.62-1.28-3.14-3.79-.07-2-1.53-3.06.3-9.8-7.08 1.56-7.45 14.46-4.2 14.5-4 14.51-4.22z"/><path d="m3.63-71.22 1.15 4 3.22 1.36 2.4 4.23 6 2.86 20.6 18.33 20.95 19 11.28 10.38-5.23 5.28 2.38 2.21-14.6 4.04-14.51 4.25-14.5 4-14.46 4.17-1.56 7.45-1.3 5.16-5.39-.32-9.66 4.88-5.4-1.37-6.23 1.08-1 3.21-4.77-1.35-2.61-2.18-6.81-1.11-.56-4-3.8-3-2.53-3.37-2.87-2.11-3.71-5.13-2.81-2.35-6.36-3.28.77-3.34-1.79-2.64-2.84-1.76 1-5-.62-3.06.72-3.67-4.18-4.53 7.1-3.23 1.43-2.36 4.63-2.78 8.49-3.52 7.07 2.5 5.06-3 8.67-4.06 7.72-2.19.54-3.49-.53-4.45-5.32-3-1.38-4 .47-5.63 2.26-3.72 7.07-4.87 4.24.73 1.6-1.6 2.42-.58 5.17-3.85z"/><path d="m6.75 20.34 9.84 7.08 3.06-.3 2 1.53 3.79.07 1.28 3.14 9.46 12.58 7.06 7.08-.58 10.86 5.28 9 3.88.15 3.5 3.47 3.09-2.91 2.11 3-1.06 1.6 1.6 1.89-.74.92-9.12-2.59-1.2.82-.61 6.65-5.17 1.88-2.78 2.23-.59 2.05-3 2.66-.27 5-2.24 2.42-8.54 2.86-.87 3.52-2.43 2.24-3.61-.24-6.79 2.57-4.35 5.64v2.36l2.46 3.77.87 3.52 4.57 5.14-6.63.4-1.67 1.67-.11 3.22-3.5-3.82-6.63 4.06-2.74-2.4-6.24-.91-3-2-2.23-2.9 2.81-3.18-.36-3.68 5.86-6.78 3.33-5-3-3.62-1.17-6.06-12.57-12.45 4-8.81 2.56-23.89 2.41-12.91 2.63-12.88 9.66-4.88 5.39.32z"/><path d="m61.06 78.6 4.07.33.43 1.4 1.69 2 .25 8.17 2.26 4.5 2.24 3.48.2 2.18 3 4.65-.3 4.69 2 3.31 1.1 3.44 2 2.61-1.44 4.92-5 .41-1.49 1.86.27 6-1.34 1.29 3.15 7.46 2.68 5-3 6.7-2.12 1.57-.4 3-4 3.77-5.92-.86-5.39-2.48-6.77-.37-3.43 3.61-4.2 4.2-8.46-9.11-3.56-3.21-2.65-4.31v-3.06l-1.22-5.56-1.88-.86-1.3-3.29-4.22-2.19-1.66-1.85-4.54-5.18-.87-3.52-2.46-3.77v-2.36l4.35-5.64 6.76-2.53 3.61.24 2.43-2.24.87-3.44 8.54-2.86 2.24-2.42.27-5 3-2.66.59-2.05 2.78-2.23 5.17-1.88.61-6.73 1.18-.82 9.12 2.61z"/></g><path d="m94 100.47 3.18 7.79-.18 2.18 3.9 4.51 2.81 1.77 1.23 1.89 5 .63 2.27 1.58 4.43 1.05 4-.36 2.55 2.2 2.16 1.14 2.5 3.16-5 2.42-5.07 2.33-6.07 5.7-1 .4-2 3.33-3.5 2.22-1.91 2.46-7.65 7.47-3.64-5-5.52-1.8-3 1.36-3.39-1.36-2 .36-1.3-1.63-2.68-5-3.12-7.43 1.34-1.34-.27-6 1.49-1.86 5-.41 1.44-4.87-2-2.61-1.13-3.44-2-3.31.3-4.69-3-4.65-.17-2.18-2.24-3.48-2.26-4.52-.25-8.17-1.69-2-.43-1.4-4.07-.33-1.6-1.89 1.06-1.6 5.37 1.59 4 3.19 3.45 3.69 7.48 2.44-2.6 2.42-1 1.7-2.73 1.63 1.68 3.63 5.82.4 3.11-1.27 2.81 1.76 5.3 2.21z" fill="none"/><path d="m127.44 54 5.42-1 4.66-.44 1.85 1.8 6.07-.39 4.33.24 4.42 2 5.59-1.21 2.5.78-1 2.06-3.11 2.93-4.08 3-1.22 2.14.55 2.19-1.33 1.7-3 .41-2.44 7.92-2.65 1.59-.21 1.13 2 4.61-4.64 2.44-3.82 2.91-5.14.93-5.62 2.14-.9 4.12 1.18 4.5 3.26 4.24-3.3 2.75-4.2 2.19.16 5.51 2.62 7.63-2.16-1.14-2.55-2.2-4 .36-4.43-1.05-2.25-1.55-5-.63-1.23-1.89-2.89-1.72-3.88-4.56.16-2.18-3.16-7.79 3.48-4.22-.68-2.25.93-.75 2.47.1 3.58-7.79v-4l.57-4.41-2.45-1.4.78-1.88 5-4.07 1.75-6.88-2.71-9.2.2-4.41 2-4 2.93 1.83 6.13.65 2.24 2.15 1.4 3 2.11 1.37 3.16-.23z" fill="none"/><path d="m66.33-3.57 22.48 20.68-4.37 3.63 1.9 6 2.31 4.46 2.23.17.19 3.11 2.85 1.73 1.17 3.41 1.47 2.38 1.3-2 3.08 1.32 3.35 2.88 3.26-.15 1.31 1.26-2 4-.2 4.41 2.71 9.2-1.75 6.88-5 4.07-.78 1.88 2.45 1.4-.57 4.41v4l-3.58 7.79-2.47-.1-.87.75.64 2.29-3.44 4.18-.72-2-5.3-2.21-2.81-1.76-3.17 1.24-5.82-.4-1.68-3.63 2.73-1.63 1-1.7 2.59-2.38-7.52-2.42-3.45-3.69-4-3.19-5.37-1.59-2.11-3-3.05 2.89-3.54-3.43-3.88-.15-5.28-9 .58-10.86-7.06-7.08-9.46-12.62-1.28-3.14-3.79-.07-2-1.53-3.06.3-9.8-7.08 1.56-7.45 14.46-4.2 14.5-4 14.51-4.22z" fill="none"/><path d="m162.28 55.75 7.39 1.58 2.75-1.33.33-2.34 2.39-1.65 1.57-3.78 3.29 1.3 7.81-.67 6.19 6.69 2.58-1.12.33 3.33-.21 3.14.9 4.59 1.56 3.56 4.13 4.47.92 3.28 4.11 4.12.11 2.82 3 3.38-.22 1.13 2.58 3.28 3.63 1.31.9.93 7.77 9.61 4.06 1.79 1.42 3.16 5.46 2.22 5.83.22 3.37 2.48 2.78.15.73 1.1-1.11.56-5.21 7.23-.55 1.83 2 4.79 3.34 1.43 5.42 7.4 4.85 6.14 2.07-.23 5.13-1.1.44-2.28 6 5.71-3.6 3.41-4.68-1.19-4-.78-4.39 2.92-3.77-1.91-1.14 4.63-4.39 2.94-4.09-.86-3.29 2.37-2.08 2.27-2-1.44-1.59 1.41-2.54 1.8-2 3.68-2.1 1.91-.63 1.74-6.21-6.8-3.49-.54-3.58-3-2.57-4-2.83-1.2-3.6-3.36-5.61 5.8-1.49-2.54-2.45 2.3.66 1.35-2.55 3.11 1.91 4.32.68 2.06-3.49 1.85-.79 2.25-2.57 3.52-4.65-1-2.72-.75-4.48-1.93-5.17-2.89-13.86 13.68-1 2.32-1.43 1.25-1.12 2.58-2.31-1 .63-1.73-2.2-2.56-.78-2.14.58-2.78 1.89-.8-.49-3.53 2.52-2.52 1.89 1.23 2.75-.93-.58-6v-5.36l-.65-3-4.54-4.24-3.18-7.25-.64-5 .37-5.68-1.14-2.16-1.84-2.18-1-2.67-3.45-2.77-4.18-5.51-2.55-4.21-1.41-4.08-3-3.61-3.26-4.24-1.18-4.54.86-4.15 5.62-2.14 5.14-.93 3.82-2.91 4.64-2.44-2-4.61.21-1.13 2.74-1.64 2.44-7.92 3-.41 1.33-1.7-.55-2.19 1.22-2.14 4.08-3 3.11-2.93z" fill="#fc8d62"/><path d="m191.4-52.47.91 4 1.16 4 1.86 1.07 1.67 1.6 2.77-2.59.53-1.44 2.21-.2 1 2.85 4.74 1.18 4.42.89h3.83l21.69-8.89 4-4 3.43 29.15-5.86 6.23-.3 8-2.76 3 .32 3-3.19 3.2h-3.7l-2.13 6.42 1 3.6-3.4 2.66-1.65.38-1 1.36-1.61 1.42-10.6 1.27-3.19 3.19h-3.44l-3.07-3-3.28 1.45-8.81-2.9-3.31.76-3.08-1.32-5.06-.25-3.22 2.49-1.58-4.46 2.42-2.61-1.12-2.34-4.22-4-.66-.62-4.59-6.95.67-3.6-1.77-2.63-2.25-6v-5.5l-3.59-6.86-4.29-5.24 6.7-4.36-2.88-5.18 5.32-.56 1.42-3.8 2.32-.12 3.16-3.16 6.4-1.81 3.16.33 3.91-.25 5.19 1.23z" fill="#66c2a5"/><path d="m205.85 19h1.68l3.19-3.19 10.6-1.27 1.61-1.54 1-1.36 1.65-.38 3.42-2.62-1-3.64 2.15-6.54h3.7l3.15-3.2 2.16 10.1 19.77 19.64 7.32 1.64-1.25 5.44 1.09 3.48-1.23 2.14 3.05 4.46.74 3.83 2.69 4.45-.34 3.78-12 1.25-3.25-3-27.89 5.94-3.68-4.37-3.28-.93-.28-.27-.85-3.54-1.22-5.91-2.27-5.6-8.44-4-3.18-2.13-6-1.52-.28-3.93z" fill="#66c2a5"/><path d="m3.63-71.22 1.15 4 3.22 1.36 2.4 4.23 6 2.86 20.6 18.33 20.95 19 11.28 10.38-5.23 5.28 2.38 2.21-14.6 4.04-14.51 4.25-14.5 4-14.46 4.17-1.56 7.45-1.3 5.16-5.39-.32-9.66 4.88-5.4-1.37-6.23 1.08-1 3.21-4.77-1.35-2.61-2.18-6.81-1.11-.56-4-3.8-3-2.53-3.37-2.87-2.11-3.71-5.13-2.81-2.35-6.36-3.28.77-3.34-1.79-2.64-2.84-1.76 1-5-.62-3.06.72-3.67-4.18-4.53 7.1-3.23 1.43-2.36 4.63-2.78 8.49-3.52 7.07 2.5 5.06-3 8.67-4.06 7.72-2.19.54-3.49-.53-4.45-5.32-3-1.38-4 .47-5.63 2.26-3.72 7.07-4.87 4.24.73 1.6-1.6 2.42-.58 5.17-3.85z" fill="none"/><path d="m6.75 20.34 9.84 7.08 3.06-.3 2 1.53 3.79.07 1.28 3.14 9.46 12.58 7.06 7.08-.58 10.86 5.28 9 3.88.15 3.5 3.47 3.09-2.91 2.11 3-1.06 1.6 1.6 1.89-.74.92-9.12-2.59-1.2.82-.61 6.65-5.17 1.88-2.78 2.23-.59 2.05-3 2.66-.27 5-2.24 2.42-8.54 2.86-.87 3.52-2.43 2.24-3.61-.24-6.79 2.57-4.35 5.64v2.36l2.46 3.77.87 3.52 4.57 5.14-6.63.4-1.67 1.67-.11 3.22-3.5-3.82-6.63 4.06-2.74-2.4-6.24-.91-3-2-2.23-2.9 2.81-3.18-.36-3.68 5.86-6.78 3.33-5-3-3.62-1.17-6.06-12.57-12.45 4-8.81 2.56-23.89 2.41-12.91 2.63-12.88 9.66-4.88 5.39.32z" fill="none"/><path d="m61.06 78.6 4.07.33.43 1.4 1.69 2 .25 8.17 2.26 4.5 2.24 3.48.2 2.18 3 4.65-.3 4.69 2 3.31 1.1 3.44 2 2.61-1.44 4.92-5 .41-1.49 1.86.27 6-1.34 1.29 3.15 7.46 2.68 5-3 6.7-2.12 1.57-.4 3-4 3.77-5.92-.86-5.39-2.48-6.77-.37-3.43 3.61-4.2 4.2-8.46-9.11-3.56-3.21-2.65-4.31v-3.06l-1.22-5.56-1.88-.86-1.3-3.29-4.22-2.19-1.66-1.85-4.54-5.18-.87-3.52-2.46-3.77v-2.36l4.35-5.64 6.76-2.53 3.61.24 2.43-2.24.87-3.44 8.54-2.86 2.24-2.42.27-5 3-2.66.59-2.05 2.78-2.23 5.17-1.88.61-6.73 1.18-.82 9.12 2.61z" fill="none"/><path d="m153.28-34.7 4.29 5.24 3.59 6.86v5.49l2.25 6 1.77 2.63-.67 3.6 4.59 7 .66.62-.86.5-2.71-2.65-2.39-1.28-4.6.21-4.63-3.07-3.49-4.57-2.55 1.82.9 1.48-2.56 3.11 2.87.43 3.54 2.69.6 5.44 1.7 6.18-1.69 3-7.13.72-.76 2.89 1.09 2-1.27 3.36 1 1.24-4.69 4.69-1.62-.57-3.51 3.25-.84 2.48-1.8.89-5.52-.71-2.43-.68-2.51 4.15 1.19 3.76 3.77 5.94-.65 2.66-.77 1.9-.61.07-3.16.23-2.11-1.37-1.4-3-2.24-2.15-6.13-.65-2.93-1.83-1.31-1.3-3.26.15-3.35-2.88-3.08-1.27-1.3 2-1.47-2.38-1.17-3.41-2.85-1.73-.19-3.11-2.23-.17-2.31-4.46-1.9-6 4.37-3.63-22.48-20.68-2.33-2.21 5.28-5.28-11.37-10.39 9.09-9.26 9.28-9.14 8.73-8.85 8.85-8.74 9-9.1 9.11-9 7.17 3.54.09 1.94 6.51 4.51 8.72 4.33 3.11-.36 4.53-.66 1 5.27-2.45 4.1.34 3.15 3.26 3.9 6.36 9.61z" fill="#a6d854"/><path d="m198.65 30.18 6 1.52 3.18 2.13 8.44 4 2.27 5.6 1.22 5.91.85 3.54.28.27-.53-.19-3.53 1.51-.74 3.3-2.13 3.59.92 5.3 2.53 1.86-5.3 5.12-1.11 2.36-1 4.34-1.72.62-4.11-4.12-.92-3.28-4.13-4.47-1.56-3.56-.9-4.59.21-3.14-.33-3.33-2.54 1.08-6.11-6.69.37-3.3 4.31-1.75 2.32-5.06 3.36-3.36z" fill="#66c2a5"/><path d="m162.28 55.75 7.39 1.58 2.75-1.33.33-2.34 2.39-1.65 1.57-3.78 3.29 1.3 7.81-.67 6.19 6.69 2.58-1.12.33 3.33-.21 3.14.9 4.59 1.56 3.56 4.13 4.47.92 3.28 4.11 4.12.11 2.82 3 3.38-.22 1.13 2.58 3.28 3.63 1.31.9.93 7.77 9.61 4.06 1.79 1.42 3.16 5.46 2.22 5.83.22 3.37 2.48 2.78.15.73 1.1-1.11.56-5.21 7.23-.55 1.83 2 4.79 3.34 1.43 5.42 7.4 4.85 6.14 2.07-.23 5.13-1.1.44-2.28 6 5.71-3.6 3.41-4.68-1.19-4-.78-4.39 2.92-3.77-1.91-1.14 4.63-4.39 2.94-4.09-.86-3.29 2.37-2.08 2.27-2-1.44-1.59 1.41-2.54 1.8-2 3.68-2.1 1.91-.63 1.74-6.21-6.8-3.49-.54-3.58-3-2.57-4-2.83-1.2-3.6-3.36-5.61 5.8-1.49-2.54-2.45 2.3.66 1.35-2.55 3.11 1.91 4.32.68 2.06-3.49 1.85-.79 2.25-2.57 3.52-4.65-1-2.72-.75-4.48-1.93-5.17-2.89-13.86 13.68-1 2.32-1.43 1.25-1.12 2.58-2.31-1 .63-1.73-2.2-2.56-.78-2.14.58-2.78 1.89-.8-.49-3.53 2.52-2.52 1.89 1.23 2.75-.93-.58-6v-5.36l-.65-3-4.54-4.24-3.18-7.25-.64-5 .37-5.68-1.14-2.16-1.84-2.18-1-2.67-3.45-2.77-4.18-5.51-2.55-4.21-1.41-4.08-3-3.61-3.26-4.24-1.18-4.54.86-4.15 5.62-2.14 5.14-.93 3.82-2.91 4.64-2.44-2-4.61.21-1.13 2.74-1.64 2.44-7.92 3-.41 1.33-1.7-.55-2.19 1.22-2.14 4.08-3 3.11-2.93z" fill="#fc8d62"/><g fill="none"><path d="m191.4-52.47.91 4 1.16 4 1.86 1.07 1.67 1.6 2.77-2.59.53-1.44 2.21-.2 1 2.85 4.74 1.18 4.42.89h3.83l21.69-8.89 4-4 3.43 29.15-5.86 6.23-.3 8-2.76 3 .32 3-3.19 3.2h-3.7l-2.13 6.42 1 3.6-3.4 2.66-1.65.38-1 1.36-1.61 1.42-10.6 1.27-3.19 3.19h-3.44l-3.07-3-3.28 1.45-8.81-2.9-3.31.76-3.08-1.32-5.06-.25-3.22 2.49-1.58-4.46 2.42-2.61-1.12-2.34-4.22-4-.66-.62-4.59-6.95.67-3.6-1.77-2.63-2.25-6v-5.5l-3.59-6.86-4.29-5.24 6.7-4.36-2.88-5.18 5.32-.56 1.42-3.8 2.32-.12 3.16-3.16 6.4-1.81 3.16.33 3.91-.25 5.19 1.23z"/><path d="m205.85 19h1.68l3.19-3.19 10.6-1.27 1.61-1.54 1-1.36 1.65-.38 3.42-2.62-1-3.64 2.15-6.54h3.7l3.15-3.2 2.16 10.1 19.77 19.64 7.32 1.64-1.25 5.44 1.09 3.48-1.23 2.14 3.05 4.46.74 3.83 2.69 4.45-.34 3.78-12 1.25-3.25-3-27.89 5.94-3.68-4.37-3.28-.93-.28-.27-.85-3.54-1.22-5.91-2.27-5.6-8.44-4-3.18-2.13-6-1.52-.28-3.93z"/><path d="m153.28-34.7 4.29 5.24 3.59 6.86v5.49l2.25 6 1.77 2.63-.67 3.6 4.59 7 .66.62-.86.5-2.71-2.65-2.39-1.28-4.6.21-4.63-3.07-3.49-4.57-2.55 1.82.9 1.48-2.56 3.11 2.87.43 3.54 2.69.6 5.44 1.7 6.18-1.69 3-7.13.72-.76 2.89 1.09 2-1.27 3.36 1 1.24-4.69 4.69-1.62-.57-3.51 3.25-.84 2.48-1.8.89-5.52-.71-2.43-.68-2.51 4.15 1.19 3.76 3.77 5.94-.65 2.66-.77 1.9-.61.07-3.16.23-2.11-1.37-1.4-3-2.24-2.15-6.13-.65-2.93-1.83-1.31-1.3-3.26.15-3.35-2.88-3.08-1.27-1.3 2-1.47-2.38-1.17-3.41-2.85-1.73-.19-3.11-2.23-.17-2.31-4.46-1.9-6 4.37-3.63-22.48-20.68-2.33-2.21 5.28-5.28-11.37-10.39 9.09-9.26 9.28-9.14 8.73-8.85 8.85-8.74 9-9.1 9.11-9 7.17 3.54.09 1.94 6.51 4.51 8.72 4.33 3.11-.36 4.53-.66 1 5.27-2.45 4.1.34 3.15 3.26 3.9 6.36 9.61z"/><path d="m198.65 30.18 6 1.52 3.18 2.13 8.44 4 2.27 5.6 1.22 5.91.85 3.54.28.27-.53-.19-3.53 1.51-.74 3.3-2.13 3.59.92 5.3 2.53 1.86-5.3 5.12-1.11 2.36-1 4.34-1.72.62-4.11-4.12-.92-3.28-4.13-4.47-1.56-3.56-.9-4.59.21-3.14-.33-3.33-2.54 1.08-6.11-6.69.37-3.3 4.31-1.75 2.32-5.06 3.36-3.36z"/><path d="m94 100.47 3.18 7.79-.18 2.18 3.9 4.51 2.81 1.77 1.23 1.89 5 .63 2.27 1.58 4.43 1.05 4-.36 2.55 2.2 2.16 1.14 2.5 3.16-5 2.42-5.07 2.33-6.07 5.7-1 .4-2 3.33-3.5 2.22-1.91 2.46-7.65 7.47-3.64-5-5.52-1.8-3 1.36-3.39-1.36-2 .36-1.3-1.63-2.68-5-3.12-7.43 1.34-1.34-.27-6 1.49-1.86 5-.41 1.44-4.87-2-2.61-1.13-3.44-2-3.31.3-4.69-3-4.65-.17-2.18-2.24-3.48-2.26-4.52-.25-8.17-1.69-2-.43-1.4-4.07-.33-1.6-1.89 1.06-1.6 5.37 1.59 4 3.19 3.45 3.69 7.48 2.44-2.6 2.42-1 1.7-2.73 1.63 1.68 3.63 5.82.4 3.11-1.27 2.81 1.76 5.3 2.21z"/><path d="m127.44 54 5.42-1 4.66-.44 1.85 1.8 6.07-.39 4.33.24 4.42 2 5.59-1.21 2.5.78-1 2.06-3.11 2.93-4.08 3-1.22 2.14.55 2.19-1.33 1.7-3 .41-2.44 7.92-2.65 1.59-.21 1.13 2 4.61-4.64 2.44-3.82 2.91-5.14.93-5.62 2.14-.9 4.12 1.18 4.5 3.26 4.24-3.3 2.75-4.2 2.19.16 5.51 2.62 7.63-2.16-1.14-2.55-2.2-4 .36-4.43-1.05-2.25-1.55-5-.63-1.23-1.89-2.89-1.72-3.88-4.56.16-2.18-3.16-7.79 3.48-4.22-.68-2.25.93-.75 2.47.1 3.58-7.79v-4l.57-4.41-2.45-1.4.78-1.88 5-4.07 1.75-6.88-2.71-9.2.2-4.41 2-4 2.93 1.83 6.13.65 2.24 2.15 1.4 3 2.11 1.37 3.16-.23z"/><path d="m191.4-52.47.91 4 1.16 4 1.86 1.07 1.67 1.6 2.77-2.59.53-1.44 2.21-.2 1 2.85 4.74 1.18 4.42.89h3.83l21.69-8.89 4-4 3.43 29.15-5.86 6.23-.3 8-2.76 3 .32 3-3.19 3.2h-3.7l-2.13 6.42 1 3.6-3.4 2.66-1.65.38-1 1.36-1.61 1.42-10.6 1.27-3.19 3.19h-3.44l-3.07-3-3.28 1.45-8.81-2.9-3.31.76-3.08-1.32-5.06-.25-3.22 2.49-1.58-4.46 2.42-2.61-1.12-2.34-4.22-4-.66-.62-4.59-6.95.67-3.6-1.77-2.63-2.25-6v-5.5l-3.59-6.86-4.29-5.24 6.7-4.36-2.88-5.18 5.32-.56 1.42-3.8 2.32-.12 3.16-3.16 6.4-1.81 3.16.33 3.91-.25 5.19 1.23z"/><path d="m205.85 19h1.68l3.19-3.19 10.6-1.27 1.61-1.54 1-1.36 1.65-.38 3.42-2.62-1-3.64 2.15-6.54h3.7l3.15-3.2 2.16 10.1 19.77 19.64 7.32 1.64-1.25 5.44 1.09 3.48-1.23 2.14 3.05 4.46.74 3.83 2.69 4.45-.34 3.78-12 1.25-3.25-3-27.89 5.94-3.68-4.37-3.28-.93-.28-.27-.85-3.54-1.22-5.91-2.27-5.6-8.44-4-3.18-2.13-6-1.52-.28-3.93z"/><path d="m3.63-71.22 1.15 4 3.22 1.36 2.4 4.23 6 2.86 20.6 18.33 20.95 19 11.28 10.38-5.23 5.28 2.38 2.21-14.6 4.04-14.51 4.25-14.5 4-14.46 4.17-1.56 7.45-1.3 5.16-5.39-.32-9.66 4.88-5.4-1.37-6.23 1.08-1 3.21-4.77-1.35-2.61-2.18-6.81-1.11-.56-4-3.8-3-2.53-3.37-2.87-2.11-3.71-5.13-2.81-2.35-6.36-3.28.77-3.34-1.79-2.64-2.84-1.76 1-5-.62-3.06.72-3.67-4.18-4.53 7.1-3.23 1.43-2.36 4.63-2.78 8.49-3.52 7.07 2.5 5.06-3 8.67-4.06 7.72-2.19.54-3.49-.53-4.45-5.32-3-1.38-4 .47-5.63 2.26-3.72 7.07-4.87 4.24.73 1.6-1.6 2.42-.58 5.17-3.85z"/><path d="m61.06 78.6 4.07.33.43 1.4 1.69 2 .25 8.17 2.26 4.5 2.24 3.48.2 2.18 3 4.65-.3 4.69 2 3.31 1.1 3.44 2 2.61-1.44 4.92-5 .41-1.49 1.86.27 6-1.34 1.29 3.15 7.46 2.68 5-3 6.7-2.12 1.57-.4 3-4 3.77-5.92-.86-5.39-2.48-6.77-.37-3.43 3.61-4.2 4.2-8.46-9.11-3.56-3.21-2.65-4.31v-3.06l-1.22-5.56-1.88-.86-1.3-3.29-4.22-2.19-1.66-1.85-4.54-5.18-.87-3.52-2.46-3.77v-2.36l4.35-5.64 6.76-2.53 3.61.24 2.43-2.24.87-3.44 8.54-2.86 2.24-2.42.27-5 3-2.66.59-2.05 2.78-2.23 5.17-1.88.61-6.73 1.18-.82 9.12 2.61z"/><path d="m153.28-34.7 4.29 5.24 3.59 6.86v5.49l2.25 6 1.77 2.63-.67 3.6 4.59 7 .66.62-.86.5-2.71-2.65-2.39-1.28-4.6.21-4.63-3.07-3.49-4.57-2.55 1.82.9 1.48-2.56 3.11 2.87.43 3.54 2.69.6 5.44 1.7 6.18-1.69 3-7.13.72-.76 2.89 1.09 2-1.27 3.36 1 1.24-4.69 4.69-1.62-.57-3.51 3.25-.84 2.48-1.8.89-5.52-.71-2.43-.68-2.51 4.15 1.19 3.76 3.77 5.94-.65 2.66-.77 1.9-.61.07-3.16.23-2.11-1.37-1.4-3-2.24-2.15-6.13-.65-2.93-1.83-1.31-1.3-3.26.15-3.35-2.88-3.08-1.27-1.3 2-1.47-2.38-1.17-3.41-2.85-1.73-.19-3.11-2.23-.17-2.31-4.46-1.9-6 4.37-3.63-22.48-20.68-2.33-2.21 5.28-5.28-11.37-10.39 9.09-9.26 9.28-9.14 8.73-8.85 8.85-8.74 9-9.1 9.11-9 7.17 3.54.09 1.94 6.51 4.51 8.72 4.33 3.11-.36 4.53-.66 1 5.27-2.45 4.1.34 3.15 3.26 3.9 6.36 9.61z"/><path d="m198.65 30.18 6 1.52 3.18 2.13 8.44 4 2.27 5.6 1.22 5.91.85 3.54.28.27-.53-.19-3.53 1.51-.74 3.3-2.13 3.59.92 5.3 2.53 1.86-5.3 5.12-1.11 2.36-1 4.34-1.72.62-4.11-4.12-.92-3.28-4.13-4.47-1.56-3.56-.9-4.59.21-3.14-.33-3.33-2.54 1.08-6.11-6.69.37-3.3 4.31-1.75 2.32-5.06 3.36-3.36z"/></g><path d="m172.42 56.04.33-2.34 2.39-1.65 1.58-3.78 3.31 1.26 7.81-.67.37-3.3 4.32-1.76 2.31-5.05 3.36-3.36.45-5.21-.28-3.93 7.48-7.3 1.68-.03-3.44-.03-3.07-2.98-3.28 1.45-8.81-2.9-3.31.76-3.08-1.32-5.06-.25-3.22 2.49-1.58-4.46 2.42-2.61-1.11-2.37-4.22-4.02-.86.5-2.72-2.59-2.39-1.28-4.6.21-4.63-3.07-3.49-4.57-2.55 1.82.9 1.48-2.56 3.11 2.87.43 3.54 2.69.6 5.44 1.7 6.18-1.69 2.97-7.14.73-.71 2.91 1.09 2.02-1.31 3.33.95 1.24-4.69 4.69-1.62-.57-3.44 3.26-.84 2.48-1.8.89-5.52-.71-2.43-.68-2.51 4.15 1.19 3.76 3.77 5.94-.65 2.66-.79 1.88 5.42-1.02 4.66-.44 1.86 1.8 6.06-.39 4.33.24 4.42 1.98 5.59-1.18 2.5.78 7.39 1.58z" fill="#66c2a5"/><path d="m165.78 97.99-6.52 21.64-13.93 9.07.34.92 1.84 2.18 1.14 2.16-.37 5.68.64 5.02 3.18 7.25 4.54 4.24.64 3.01-.04 5.36.58 6-2.75.93-1.89-1.23-2.52 2.52.49 3.53-1.89.8-.58 2.78.78 2.14 2.2 2.56-.63 1.73 2.31.98 1.12-2.58 1.43-1.25 1.04-2.32 13.86-13.68 5.17 2.89 4.51 1.89 2.73.75 4.65 1.02 2.57-3.48.79-2.25 3.49-1.85-.68-2.06-1.91-4.32 2.58-3.13-.66-1.35 2.35-2.35 1.49 2.54 5.61-5.8 3.6 3.36 2.83 1.2 2.57 4.02 3.58 3.01 3.49.54 6.21 6.8.63-1.73 2.1-1.92 2.04-3.68 2.53-1.8 1.59-1.41 2.04 1.44 2.08-2.27 3.29-2.37 4.09.86 4.39-2.92 1.14-4.63 3.77 1.91 4.39-2.92 3.98.78 4.68 1.19 3.6-3.41-6.03-5.71-.44 2.28-5.13 1.1-2.06.23-4.86-6.14-5.42-7.4-3.34-1.43-1.98-4.79.55-1.83 5.21-7.23 1.11-.56-.73-1.1-2.78-.15-3.37-2.48-5.83-.22-5.46-2.22-1.42-3.16-4.06-1.79-7.77-9.61-.9-.93-3.63-1.31-2.58-3.28.22-1.13-3.02-3.38-.11-2.82-4.11-4.12-.92-3.28-2.28-2.47-17.53 20.45z" fill="none"/><path d="m197.55 65.49-.9-4.59.21-3.13-.33-3.34-2.58 1.12-6.11-6.69-7.81.67-3.31-1.26-1.58 3.78-2.39 1.65-.33 2.34-2.75 1.29-7.39-1.58-.96 2.06-3.11 2.93-4.08 2.98-1.22 2.14.55 2.19-1.33 1.7-2.97.41-2.44 7.92-2.74 1.64-.21 1.13 1.98 4.61-4.64 2.44-3.82 2.91-5.14.93-5.62 2.14-.86 4.15 1.18 4.5 3.26 4.24 2.98 3.61 1.41 4.08 2.55 4.21 4.18 5.51 3.45 2.77.65 1.75 13.93-9.07 6.52-21.64 17.65-6.49 17.53-20.45-1.85-2z" fill="#fc8d62"/><path d="m127.44 54 5.42-1 4.66-.44 1.85 1.8 6.07-.39 4.33.24 4.42 2 5.59-1.21 2.5.78-1 2.06-3.11 2.93-4.08 3-1.22 2.14.55 2.19-1.33 1.7-3 .41-2.44 7.92-2.65 1.59-.21 1.13 2 4.61-4.64 2.44-3.82 2.91-5.14.93-5.62 2.14-.9 4.12 1.18 4.5 3.26 4.24-3.3 2.75-4.2 2.19.16 5.51 2.62 7.63-2.16-1.14-2.55-2.2-4 .36-4.43-1.05-2.25-1.55-5-.63-1.23-1.89-2.89-1.72-3.88-4.56.16-2.18-3.16-7.79 3.48-4.22-.68-2.25.93-.75 2.47.1 3.58-7.79v-4l.57-4.41-2.45-1.4.78-1.88 5-4.07 1.75-6.88-2.71-9.2.2-4.41 2-4 2.93 1.83 6.13.65 2.24 2.15 1.4 3 2.11 1.37 3.16-.23z" fill="url(#b)"/><path d="m197.55 65.49-.9-4.59.21-3.13-.33-3.34-2.58 1.12-6.11-6.69-7.81.67-3.31-1.26-1.58 3.78-2.39 1.65-.33 2.34-2.75 1.29-7.39-1.58-.96 2.06-3.11 2.93-4.08 2.98-1.22 2.14.55 2.19-1.33 1.7-2.97.41-2.44 7.92-2.74 1.64-.21 1.13 1.98 4.61-4.64 2.44-3.82 2.91-5.14.93-5.62 2.14-.86 4.15 1.18 4.5 3.26 4.24 2.98 3.61 1.41 4.08 2.55 4.21 4.18 5.51 3.45 2.77.65 1.75 13.93-9.07 6.52-21.64 17.65-6.49 17.53-20.45-1.85-2z" fill="url(#b)"/><path d="m107.64 69.76 1.75-6.88-2.71-9.2.2-4.41 2-4-1.33-1.27-3.26.15-3.35-2.88-3.08-1.27-1.3 2-1.47-2.38-1.17-3.41-2.85-1.73-.19-3.11-2.23-.17-2.31-4.46-1.9-6 4.37-3.63-13.81-12.72-.69 7.74-3.33 5 1.82 11.7-15.46 6.94-5.83 6.11 2.78 1.39-1.67 9.17 2.89 4.44-8.33 2.22-1.78 2.78-2.67-1.54-.11 2 5.28 9 3.88.15 3.54 3.51 3.09-2.91 2.11 3 5.37 1.59 4 3.19 3.45 3.69 7.48 2.44-2.6 2.42-1 1.7-2.73 1.63 1.68 3.63 5.82.4 3.11-1.27 2.81 1.76 5.3 2.21.72 2 3.48-4.22-.61-2.26.93-.75 2.47.1 3.58-7.79v-4l.57-4.41-2.45-1.4.78-1.88z" fill="url(#b)"/><path d="m55.32 75-3.54-3.43-3.88-.15-5.28-9 .11-2-6-3.46h-13.93l-16.1 10-7.22-2.64c-.93.56-1.86 1.11-2.78 1.69a58.07 58.07 0 0 0 -13.82 13.34v.39l-4 8.81 12.49 12.45 1.2 6.14 3 3.62-3.33 5-5.86 6.78.36 3.68-2.81 3.18 2.23 2.9 3 2 6.24.91 2.74 2.4 6.63-4.06 3.5 3.82.11-3.22 1.62-1.76 6.63-.4-4.54-5.18-.87-3.52-2.46-3.77v-2.36l4.35-5.64 6.78-2.52 3.61.24 2.43-2.24.87-3.44 8.54-2.86 2.24-2.42.27-5 3-2.66.59-2.05 2.78-2.23 5.17-1.88.61-6.73 1.18-.82 9.12 2.61.74-.92-1.6-1.89 1.06-1.6-2.11-3z" fill="url(#b)"/></g></svg>