<svg viewBox="0 0 123.01 98.53" xmlns="http://www.w3.org/2000/svg"><text fill="#494549" font-family="Roboto-Medium, Roboto" font-size="12" font-weight="500" transform="translate(0 10.27)"><tspan letter-spacing="-.02em">V</tspan><tspan x="7.49" y="0">aleurs</tspan></text><text fill="#494549" font-family="Roboto-Regular, Roboto" font-size="11" transform="translate(17.29 25.27)">a</text><text fill="#494549" font-family="Roboto-Regular, Roboto" font-size="11" transform="translate(17.2 42.84)">b</text><text fill="#494549" font-family="Roboto-Regular, Roboto" font-size="11" transform="translate(17.41 60.41)">c</text><text fill="#494549" font-family="Roboto-Regular, Roboto" font-size="11" transform="translate(17.18 77.98)">d</text><text fill="#494549" font-family="Roboto-Regular, Roboto" font-size="11" transform="translate(17.37 95.55)">e</text><text fill="#494549" font-family="Roboto-Regular, Roboto" font-size="11" transform="translate(68.29 25.27)">catégorie 1</text><path d="m50.3 15.99h15.88v10.59h-15.88z" fill="#edf4f7"/><text fill="#494549" font-family="Roboto-Regular, Roboto" font-size="11" transform="translate(68.29 43.27)">catégorie 2</text><path d="m50.3 33.99h15.88v10.59h-15.88z" fill="#acccd9"/><text fill="#494549" font-family="Roboto-Regular, Roboto" font-size="11" transform="translate(68.29 60.27)">catégorie 3</text><path d="m50.3 50.99h15.88v10.59h-15.88z" fill="#92bccd"/><text fill="#494549" font-family="Roboto-Regular, Roboto" font-size="11" transform="translate(68.29 78.27)">catégorie 4</text><path d="m50.3 68.99h15.88v10.59h-15.88z" fill="#5a98b3"/><text fill="#494549" font-family="Roboto-Regular, Roboto" font-size="11" transform="translate(68.29 95.27)">catégorie 5</text><path d="m50.3 85.99h15.88v10.59h-15.88z" fill="#005f88"/><g fill="#494549"><path d="m29.24 21.78h10.02v1h-10.02z"/><path d="m37.85 24.13.78-1.85-.78-1.85 4.39 1.85z"/><path d="m29.24 39.28h10.02v1h-10.02z"/><path d="m37.85 41.63.78-1.85-.78-1.85 4.39 1.85z"/><path d="m29.24 56.78h10.02v1h-10.02z"/><path d="m37.85 59.13.78-1.85-.78-1.85 4.39 1.85z"/><path d="m29.24 74.28h10.02v1h-10.02z"/><path d="m37.85 76.63.78-1.85-.78-1.85 4.39 1.85z"/><path d="m29.24 91.78h10.02v1h-10.02z"/><path d="m37.85 94.13.78-1.85-.78-1.85 4.39 1.85z"/></g></svg>