<svg viewBox="0 0 200 100" xmlns="http://www.w3.org/2000/svg" xmlns:xlink="http://www.w3.org/1999/xlink"><clipPath id="a"><path d="m0 0h200v100h-200z"/></clipPath><g clip-path="url(#a)"><path d="m126.73 109.47 5.47-5.3 2.33 2.15 8.44-2.51-2.91-7 4.27-3.24 2.85 1.7.1-5.91-2.28-3.78-2.87-.58.58-3.67 3.61-1.09h1.11v-.5l2.36-.47 4.73 3.23 2.37-1.62 1.11 1.12 1.81 2.18 2.88-.47 3.58 2.7 3.5 4.27 4.15-3.22 1.68 2.17 3.62-1.57 2.35 5.34-3 7 .14.14 3.92 4.2 1.26 1.59v2.67l3 8.1-.59 4.35 3 2.68-.67 3.85.68 2.1-1.31 3.3.61 4.29-1.71 4.33-3.69-1-6.57 5.37-4.31 1.07-1.12-2.19-3.73 4.35-3 2.16-1.17 3.78 2.39 3.81-4.28 2.73-3-.68-5.48 1.1-4.94 4.82v2.12l-5.49-.09-.56-2.72v-.51l1.23-1.07 1.23-.49-2.41-5.51 1.32-6-2.39-1.65 1.25-2.16-4.77-3.37 2.47-3.23-1.72-4.32 4.31-5.37-4.76-2.27 1.24-5.85-2.34-3.83v-2.68l-4.06-1.76-4.22 1.57-4.7-2.79 3-2.68z" fill="#7bccc4"/><path d="m57.63-55.82 3.37-.31 6.23-2.87 1.66.09 2.11 2.75 2.74.7 1.53 2.68 6.15-.77 1.06 1.11.53.52 3.3.71h.56l.32 5.31 4.23 4.9 2.31-2 3.35-2 1.29-2.56 5.57-.28.58-2.66 3-4.13 1.68-.43.5-.48 5 1.71 3.32.1 3.81 2.73 2.79-.42 2.15 2.67.44 4.24 1 3.13-2.79-.07-1.67 2.64-1.18 2.09-1.3 5.72-2.35 3.68-3.92.32-1.14.53-.65.47-.66 5.22 1 2.73-1.7.51-.15 4.67-2.84.48-2.35 2.62.49 2.68-2.33 2.09-7.91-.9-2.89 1.45-1.68-.55-2.35 2-4.58.87-2.26-.08-3 3-2.78-1.13.78-4.23-2.11-3.3-2.76-1.76-2.72-2.27.14-2.62-9-1.46-1.64-1.72 1.37-3.12 1.13-1.43.23-4.24-3.2-1.81 3.65-6.59-2.23-.11.86-4.2v-.57l-2.7-1.7 2.27-2-2.53-2.83z" fill="#2b8cbe"/><path d="m80 .79 3-3 2.27.1 4.57-.89 2.35-2 1.68.57 2.89-1.47 7.91.86 2.33-2-.47-2.64 2.35-2.62 2.84-.48.15-4.67 1.7-.51 1.58 1.6 2.18 4.89-.71 4.74 2.74 3.2-2.36 3.08.42 2.64 5 6.55 3.94 2.26-.12 4.7 2.7 3.34 4.11-1 2.19 4.32.53 2.16-1.25 4.75 1.62 1.61-1.7 2.1 1.07 3.74-1.2 2.12-3 1.58-.68 4.28-7 1.9-2.88-.65-2.84.49-1.91 2.56-4-.12v.57l.48 3.24-4.06-2.28-.06 2.59-3.47 1.53-2.9-.1-3.48-2.28-5.51-4.47-.45-3.24-4.61-.69-1.71-2.22-6.91.69.14-4.22-1.08-1.63-1.1-1.12 1.78-1-2.53-7.62.6-2 4.7-.85 2.94-3.09.23-4.3 2-4.69-1.75-2.14-3.82-2.3z" fill="#2b8cbe"/><path d="m47 77 4.7 1.42 2.3 2.27h.51l3.89-5.2 4.77-1.33 3.65-2.55 1.18-.91 3.42 2.3 5.83.85 1.49 6 3.05-2.53 2.32.6 1.65 2.74 2.3 1.25-.79 3.09 2.18 4.34 2.3 1.75v.51l-1.71 2-.08.14 1 4.88-.74 3.73 2.29 2.26 3-1.47 3.33 4.39 1.72 3.9 1.64 4.33-2.45 1.58-3.21 5.66-3.54-1.63h-.6l-4.84 1.33-1.29 2.12-2.27 11.3-2 3.18-.12 2.7-6 .83-.58-.54-1.68-2.84-.48-2.71-5.14-6.22-.36-4.89-5.87-2.47 1 3.32-4.77-.25-3.11 2-4.1-1.9-2.46 1-.38-3.8.84-4.23-3-.83-2.38-.14-1-2.74.06-1-5.26-2-1-2.74 1.75-9 3.19-3.64 2-4.15.72-2.12.13-2.16 2.6-5.26z" fill="#4eb3d3"/><path d="m79.27 42.22 6.91-.69 1.71 2.22 4.61.69.5 3.24 5.56 4.51 3.44 2.28 2.9.1 3.46-1.57.09-2.65 4.06 2.28 1.71 1.06-1.82 2.59 3.3 3.91-3.55 4.13 2.25 2.8 2.3 1.14 4.61 2.79 1.52 5.95 4.69.12 1.29-1.55 10.56-.34h.51l4.12 1.19 1.77-.47 1.62 4.27h-1.11l-3.61 1.09-.54 3.69 2.85.62 2.3 3.79-.1 5.91-2.85-1.7-4.27 3.24 2.91 7-8.44 2.51-2.33-2.15-5.47 5.3-3.46-1.25-3.51-2.27-3.53-1.12-9 2.4-6.69 4.12-1.72-3.9-3.33-4.39-3 1.47-2.29-2.26.74-3.73-1-4.88.08-.14 1.71-2v-.51l-2.3-1.75-2.16-4.31.79-3.14-2.3-1.25-1.65-2.74-2.32-.6-3.05 2.53-1.49-6-5.83-.8-3.42-2.3-1.22.94-1.78-1.1 9.89-9.22-.37-4.32 1.81-1.42 2.4-1.58-1-3.28 1.27-3.13-2.17-3.33 1.17-.44z" fill="#4eb3d3"/><path d="m136.14 30.82 9.31-2 1.18-2.05 3.91 2.71 5.76-1 .59 4.3 2.3.52 2.81 4.35-3.58 4.18 3.58 1.17v-.57l5.71-.52 2.88 1.16 4.64-3.19v2.65l3.51-1.53 3.47-.57 4.62 2.15 1.09 4.22 2.9 3.22.67 4.29-3 3.17-.58 1.65h-2.31l1.24 4.3-.58 4.81-3.58 1.58h-4l-.68 3.78 2.93 1.59 1.24 1.59.51 1.58v.58l-.52 1.06.51 2.16 1.25 2.16h-3l-3.53 1.57v.58l1.84 1.59-3.62 1.57-1.68-2.17-4.15 3.22-3.5-4.27-3.58-2.7-2.88.47-1.82-2.18-1.09-1.16-2.37 1.62-4.73-3.23-2.36.47v.5l-1.64-4.2-1.77.47-4.16-1.16h-.51l-10.56.34-1.29 1.55-4.69-.2-1.52-5.94-4.61-2.76-2.3-1.14-2.25-2.8 3.55-4.13-3.3-3.91 1.82-2.59-1.71-1.06-.51-3.24v-.57l4 .12 1.89-2.6 2.84-.49 2.88.65 7-1.9.68-4.28 3-1.58 1.2-2.12-1.07-3.74z" fill="#08589e"/><path d="m-25.57 59.33.83-2.67-.05.57 2.18 1.77 3.49.31 5.68 2.08 3.68-1.86 4.44 3 1.24-.9 3.32 2.42 6.38 1 4.16-.7 2.49-2 5.17 1.38.9 3.88 3.54-.33 2.26 1.24 2.05 4.48 3.4.81 1.35-1.5 3.45 1.23 3.89 3.57 2.93.18 1.67 1.61 4.12-1.9-.38 6.47-2.6 5.26-.13 2.16-.68 2.11-2 4.15-3.21 3.63-1.75 9-3.61.35-1.46 4.18-3.12 2-2.25-2.31-4.73-.83-8.49 1.58-7.78-.07-.81 3.12-3.77 1.89-10.23-.23-3.08.84-.92-2.3-4-2-.74 1.61-6.36-2.74.83-2.61-1.6-2.32-3.52-.83 4.68-5.54-1.3-5.48-3 .24-2-4.53.2-2.16 5.4-.6 1.27-.9 6.48.56 4.86-1.25-.5-8.14-3.48-.81-5.82-1.08-.17-4.79 6.4 1.07 1.9-1.5-6.26-3.2-2.05-3.43-.22-3.76-2.32-.81z" fill="#a8ddb5"/><path d="m-9.26-54.25-1 5.15 4.6 5.21 5.48 1.45-1.39 3.14 2.11 1.66.21 4.27-2.11 5.15-4.74 2.73-2.85.33-.41 4.73-1.12-.1-3.7 3.45 2.73 1.24.34 2.66 7.33.62 4.38 2 2 3.86 1.2 5.93-.9 4.21-4.9 4.39-4.54-.83h-.57l-1.83 1.25-3.29-1.78-3.36-.86-4.92-2.61-2.56 3-4.27 2.75-4.92-2.6-1.87-4.4.71-1.5-1.86-4.46 5.66.54 2.46-1.84-4.33-2.49-1.39-3.34-1.49-2.28.37-3.78-1-1.6 2-8.34 1-4.74-1.59-1.15-.6-5.38 1.36-2.49-.1-4.76-2-2.82-2.16-6.51-2.44-3.5-2.61-1.82.37-3.64-.57-5.36-1.49-1.71 1.91-2.42v-5.85l-3.57-2.51.37-3.56 12 6.43 6.57.64 5.27-3.18 6.52 1.67 2.32 4.93-3.62 3.34-.78 2.54 5.73 10.54-.78 2.55z" fill="#ccebc5"/><path d="m-24.74 56.66 2.65-3.51 2.35-6.77 2.5-1.93 4.09-.16 1-5.3-1.6-1.71-.46-8.08-.79-3.86.88-3.58 2.47-1.94-.43-1.68-1.3-4.9 1.15-6.77 3.29 1.78 1.83-1.34h.57l4.54.92 2.56 3.35 1.58 1.82h5.74l1.84-1.51 1.18-.49 2.28.18 1.9-2.5 2.92-.38 5 2.42 1.32-2.55 5.9-2.73 2.64 3.32-.32 4.76 4.54.79-.35 5.41-4.07.73-1.36 3.13 1 1.71-1.9 2.52.87 4.28-5.4 2.91 1.47 3.83v.5l-.8 3.24-4.69.68.35 3.26.93 3.29-2.46 1.92-2.9-.21.39 2.76.5 1.11-4.3 2.93 2.75 2.36.36 3.19-5.17-1.38-2.49 2-4.16.7-6.38-1-3.32-2.42-1.24.9-4.44-3-3.68 1.86-5.68-2.08-3.52-.44-2.18-1.78z" fill="#a8ddb5"/><path d="m183.92 84.34 2.35.5 4-2.16 1.26 3.81 4.06 1 1.26 2.73 3.47.49h2.36l2.34-2.18 4.21 1 1.67-2.68 3.64 2.62v2.16l4.08 1.54 3.66 3.26 3.5 1.46 2.35-1 5.36 1.49.65 2.65 6.5-.64 1.35 7 3.05-.08 2.37 2.62-1.08 4.37-1.1.54-3.61 1.68-3 .64-.45 3.28 1.75 1.48-2.23 3.89.76 7.61 3 3.13-2.9 1.74 1.2 3.17-5.39 1.79-1.08 2.13-5.4 2.29-1.8.54-3.08-3.66-3 1.06-2.43-.47-3.06 2.22-1.2 1-2.9 3.89-2.43-.48-.64-3.86h-2.42-.6l-1.28.52-1.81 1.18-1.14-1.16-1.29-1-3.61 2.71-3.46-3.16-4.23-2.76-.6-2.18 1.73-4.36-.61-4.29 1.27-3.27-.68-2.1.67-3.85-3-2.68.59-4.35-3-8.1v-2.68l-1.26-1.59-3.92-4.2-.14-.14 3-7-2.35-5.34-1.84-1.59v-.58l3.53-1.57z" fill="#a8ddb5"/><path d="m.6-10.57 6.45-2.62 1.38-3.16 2.73 1.35 10.94-2.47 2.55 3.95 1.88-2.48 7.14 3.12 4.62-1.34 1.86-2.51 4-1.3v-.57l1.25-2 2.88-1 1 2.19 5.8-2.79 2.72 1.72 3.41-.38-1.3 3.16 1.67 1.7 9 1.46-.14 2.62 2.72 2.27 2.75 1.76 2.09 3.32-.78 4.23 2.78 1.13 1.41 6.47 3.82 2.3 1.69 2.14-2 4.69-.18 4.27-2.94 3.09-4.7.85-.6 2 2.53 7.62-1.78 1-3 .36-2.52-4.88-5.73.22-3.36-2.82-5-4-1.17-9.1-2.2-1.62-4.6.23-4.67 2.39-4.84 4-3.43-.21.27-5.48-4.54-.79.32-4.76-2.61-3.32-5.9 2.73-1.27 2.55-5-2.42-2.89.36-1.9 2.5-2.31-.16-1.18.41-1.84 1.49-5.74.1-1.58-1.82-2.56-3.35 4.9-4.39.9-4.21-1.24-5.94z" fill="#e0f3db"/><path d="m36.68 19.72 3.43.21 4.89-3.93 4.72-2.36 4.6-.23 2.15 1.59 1.14 9.13 5 4 3.39 2.79 5.78-.22 2.57 4.92 3-.36 1.1 1.12 1.01 1.62-.19 4.21-1.27 1.61-1.18.44 2.18 3.33-1.31 3.16 1 3.28-2.4 1.54-1.77 1.43.38 4.33-9.9 9.21 1.78 1.1-3.65 2.55-4.77 1.33-3.89 5.2h-.51l-2.22-2.32-4.74-1.4-4.16 1.91-1.67-1.61-2.93-.18-3.89-3.57-3.41-1.25-1.35 1.5-3.4-.8-2.05-4.4-2.26-1.24-3.54.33-.9-3.88-.36-3.19-2.75-2.36 4.3-2.93-.5-1.11-.39-2.76 2.9.21 2.46-1.92-.93-3.29-.35-3.26 4.69-.68.8-3.24v-.5l-1.44-3.78 5.39-2.86-.87-4.28 1.9-2.52-1-1.71 1.36-3.13z" fill="#7bccc4"/><path d="m164.66 1.54 1.68-5.81-.55-2.73-1.64-5.76 1.73-4.81-2.21-4.27 1.8-5.22 2.26-1.53 3.27 2.67 2.24.57 1.76-1.65 1.06-1 2.87 2.13 1.61-1.06 3.44.57 3.85-.56.56-2.62 4.49 1.54 1.71 6.3 5.08 4.22 1.22 3.18 6.74 4.69.63-.5-4 6.92 3.41 1-.51 6.4 5.15 2.57-2.84 1-1.68 2.72-1.59 5.29-2.2 1.21 1.7 6.25-2.85 1.67-3.37-.48-4.66 1-2.82-.44-1.79 1.08h-2.8l-1.14 3.72 1.15 2.71-1.8 4.21-3.39 3.72-3.47.57-3.54 1.56v-2.68l-4.64 3.19-2.88-1.16-5.71.52v.56l-3.53-1.18 3.54-4.17-2.83-4.32-2.3-.52-.59-4.3 1.75-2.61 1.83-2.7 1.72-.48h.57l-1.15-2.64.08-6.91 1.8-4.17z" fill="#08589e"/><path d="m118.92-27.34 2.26-.5 3.29 2.71 5.1-1.93 5 3.8 3.33 1.7 3.4-1.06h.49l4 2.69 1.65 2.15-.69 3.18-1.07 1-1.27 3.67 3.95 4.82-4.13 1.61-3.43 5.27-2.32 2.09.46 2.07-1.75 5.3-3 2.57-1.14 4.2-4.11 1-2.7-3.34.12-4.7-3.93-2.24-5-6.55-.43-2.62 2.36-3.13-2.74-3.2.71-4.74-2.18-4.89-1.58-1.59-1-2.73.66-5.22.65-.47 1.12-.58z" fill="#08589e"/><path d="m182.21 40.41 3.39-3.72 1.8-4.21-1.15-2.71 1.14-3.72h2.8l1.81-1.05 2.8.49 4.66-1 3.37.48 2.85-1.67.67 2.71 3.36-1.1 2.29 3.63 1.81 1.62 1.7 3.12-1 3.73 2.32 1.61 1.17 3.14 4-.56 6 10.06 2.37 2.61.63 2.64 4.67.41 3.53-1.09 1.12 1 4.57-3.27 1.9 3.11 2.32-.06-1.71 3.85.65 2.64 2.39 2.09 1.36 4.2-4.09 2.84-.4 4.33-1.76 2.71-1.63 5.37-2.92 2.79.13 5.33-2.31 2.73 1.89 4.87-6.5.64-.65-2.65-5.36-1.49-2.35 1-3.5-1.46-3.66-3.26-4.08-1.54v-2.16l-3.64-2.62-1.67 2.68-4.21-1-2.34 2.18h-2.36l-3.47-.49-1.26-2.73-4.06-1-1.26-3.81-4 2.16-2.35-.5-1.25-2.16-.58-2.15.51-1.08v-.58l-.51-1.58-1.24-1.59-2.92-1.57.67-3.8h4l3.58-1.58.58-4.81-1.24-4.3h2.33l.58-1.65 3-3.17-.68-4.29-2.9-3.22-1.09-4.22z" fill="#7bccc4"/><g fill="#08589e"><path d="m148.29-5.06 2.71 1.68 1.76.52 5.57 2.2 1.21-.48 1.64-.55 1.21 2.69 2.27.59-1.78 7.41-1.82 4.18-.06 6.9 1.19 2.65h-.57l-1.72.48-1.83 2.7-1.75 2.61-5.76 1-3.91-2.71-1.18 2.05-9.31 2-1.62-1.61 1.25-4.75-.53-2.16-2.21-4.34 1.16-4.18 3-2.57 1.75-5.3-.46-2.07 2.32-2.09 3.43-5.27z"/><path d="m153.42-7.61 4-2.57 3.39-.46 5 3.67.55 2.7-1.68 5.81-2.29-.54-1.18-2.64-1.64.55-1.21.48-5.57-2.2z"/></g></g></svg>