<svg viewBox="0 0 56 20" xmlns="http://www.w3.org/2000/svg"><path d="m0 0h56v20h-56z" fill="none"/><g fill="#e60080"><path d="m28 7a3 3 0 1 1 -3 3 3 3 0 0 1 3-3m0-4.5a7.5 7.5 0 1 0 7.5 7.5 7.5 7.5 0 0 0 -7.5-7.5z"/><circle cx="46.23" cy="10" r="3"/><path d="m46.23 5.5a4.5 4.5 0 1 1 -4.5 4.5 4.51 4.51 0 0 1 4.5-4.5m0-3a7.5 7.5 0 1 0 7.5 7.5 7.5 7.5 0 0 0 -7.5-7.5z"/><path d="m9.77 7.75a2.25 2.25 0 1 1 -2.25 2.25 2.25 2.25 0 0 1 2.25-2.25z"/><path d="m9.77 4a6 6 0 1 1 -6 6 6 6 0 0 1 6-6m0-1.5a7.5 7.5 0 1 0 7.5 7.5 7.5 7.5 0 0 0 -7.5-7.5z"/></g></svg>