<svg xmlns="http://www.w3.org/2000/svg" viewBox="0 0 108.77 135.25"><defs><style>.cls-1{font-size:12px;font-family:Roboto-Medium, Roboto;font-weight:500;}.cls-1,.cls-3,.cls-4{fill:#494549;}.cls-2{letter-spacing:-0.02em;}.cls-3{font-size:11px;font-family:Roboto-Regular, Roboto;}.cls-5{fill:#edf4f7;}.cls-6{fill:#acccd9;}.cls-7{fill:#5a98b3;}</style></defs><title>Fichier 25</title><g id="Calque_2" data-name="Calque 2"><g id="classes"><text class="cls-1" transform="translate(0 10.27)"><tspan class="cls-2">V</tspan><tspan x="7.49" y="0">aleurs</tspan></text><text class="cls-3" transform="translate(17.2 25.27)">1</text><text class="cls-3" transform="translate(17.2 40.55)">3</text><text class="cls-3" transform="translate(17.2 55.84)">5</text><text class="cls-3" transform="translate(17.2 71.12)">8</text><text class="cls-3" transform="translate(14.11 86.41)">12</text><text class="cls-3" transform="translate(14.11 101.69)">15</text><text class="cls-3" transform="translate(14.11 116.98)">20</text><text class="cls-3" transform="translate(14.11 132.27)">23</text><text class="cls-3" transform="translate(68.28 40.76)">classe 1</text><text class="cls-3" transform="translate(68.28 85.94)">classe 2</text><text class="cls-3" transform="translate(68.28 123.23)">classe 3</text><path class="cls-4" d="M29,56.51q6.51-2,6.51-8.52V43.22c0-3.65,1.61-5.83,4.84-6.56q-4.84-1-4.84-6.56V25.47q0-6.91-6.4-8.75l.32-.92a10.13,10.13,0,0,1,5.47,3.32,9.64,9.64,0,0,1,1.85,6v5.09Q36.7,36,42.43,36v1.35q-5.73,0-5.73,5.82V48a9.64,9.64,0,0,1-1.8,6.1,10.31,10.31,0,0,1-5.52,3.34Z"/><path class="cls-4" d="M29,102.84q6.51-2,6.51-8.52V89.56q0-5.48,4.84-6.56c-3.23-.67-4.84-2.85-4.84-6.56V71.8q0-6.9-6.4-8.75l.32-.91a10.07,10.07,0,0,1,5.47,3.32,9.63,9.63,0,0,1,1.85,6v5.09q0,5.79,5.73,5.79v1.35q-5.73,0-5.73,5.82v4.84a9.61,9.61,0,0,1-1.8,6.1,10.19,10.19,0,0,1-5.52,3.34Z"/><path class="cls-4" d="M29,133.76q6.51-1.35,6.51-5.79v-3.24q0-3.72,4.84-4.45c-3.23-.46-4.84-1.94-4.84-4.46v-3.16q0-4.69-6.4-5.94l.32-.63a11.66,11.66,0,0,1,5.47,2.26,5.28,5.28,0,0,1,1.85,4.08v3.46q0,3.93,5.73,3.93v.91q-5.73,0-5.73,4V128a5.21,5.21,0,0,1-1.8,4.15,11.73,11.73,0,0,1-5.52,2.27Z"/><rect class="cls-5" x="50.29" y="31.48" width="15.88" height="10.59"/><rect class="cls-6" x="50.29" y="77.67" width="15.88" height="10.59"/><rect class="cls-7" x="50.29" y="114.95" width="15.88" height="10.59"/></g></g></svg>