<?xml version="1.0" encoding="utf-8"?>
<!-- Generator: Adobe Illustrator 16.0.0, SVG Export Plug-In . SVG Version: 6.00 Build 0)  -->
<!DOCTYPE svg PUBLIC "-//W3C//DTD SVG 1.1//EN" "http://www.w3.org/Graphics/SVG/1.1/DTD/svg11.dtd">
<svg version="1.1" id="Calque_1" xmlns="http://www.w3.org/2000/svg" xmlns:xlink="http://www.w3.org/1999/xlink" x="0px" y="0px"
	 width="160px" height="160px" viewBox="-3.78 -3.78 160 160" enable-background="new -3.78 -3.78 160 160" xml:space="preserve">
<path fill="#977864" d="M76.217,0C34.192,0,0,34.192,0,76.218s34.191,76.217,76.217,76.217c42.027,0,76.219-34.19,76.219-76.217
	S118.244,0,76.217,0z M76.217,137.234c-33.644,0-61.016-27.371-61.016-61.016c0-33.646,27.372-61.017,61.016-61.017
	c33.646,0,61.019,27.372,61.019,61.017C137.235,109.863,109.862,137.234,76.217,137.234z M101.011,33.513L69.879,53.888
	c-6.993,4.58-14.588,14.907-16.873,22.948l-10.154,35.789c-2.28,8.041,1.576,10.873,8.568,6.299l31.127-20.375
	C89.54,93.973,97.134,83.646,99.415,75.6l10.164-35.784C111.864,31.771,108.003,28.938,101.011,33.513z M87.102,84.223
	c-4.423,6.017-12.88,7.297-18.89,2.879c-6.016-4.418-7.308-12.875-2.888-18.889c4.423-6.021,12.88-7.307,18.895-2.889
	C90.233,69.752,91.525,78.215,87.102,84.223z"/>
</svg>
