<?xml version="1.0" encoding="utf-8"?>
<!-- Generator: Adobe Illustrator 16.0.0, SVG Export Plug-In . SVG Version: 6.00 Build 0)  -->
<!DOCTYPE svg PUBLIC "-//W3C//DTD SVG 1.1//EN" "http://www.w3.org/Graphics/SVG/1.1/DTD/svg11.dtd">
<svg version="1.1" id="Calque_1" xmlns="http://www.w3.org/2000/svg" xmlns:xlink="http://www.w3.org/1999/xlink" x="0px" y="0px"
	 width="160px" height="160px" viewBox="-3.78 -3.78 160 160" enable-background="new -3.78 -3.78 160 160" xml:space="preserve">
<path fill="#977864" d="M76.222,0C34.215,0,0,34.215,0,76.222c0,42.006,34.215,76.221,76.222,76.221
	c42.006,0,76.221-34.215,76.221-76.221C152.442,34.215,118.228,0,76.222,0z M86.892,11.688c-1.016,3.048-6.267,1.017-8.468,1.017
	c1.692-0.678,4.234-1.524,5.759-2.709c0.169-0.17,0.169-0.17,0.339-0.339c1.017,0.169,1.862,0.339,2.879,0.508
	c-0.847,0.339-1.692,0.678-2.541,1.187C85.537,11.518,86.215,11.518,86.892,11.688z M60.299,13.042
	c1.187,1.187,2.372-0.677,3.559-1.186c2.54-1.354,6.097-1.354,8.976-2.032c-0.507,1.354-4.572,0.847-6.097,1.354
	c-1.863,0.679-1.017,1.188-2.202,3.219c0.51,0,1.187,0.338,1.693,0.17v0.338c-1.185-0.17-2.37-0.677-2.71,0.849
	c-1.524-2.371-2.71-2.202-4.403,0c1.693,1.016,3.388,2.032,2.031,3.727c-1.692,1.862-2.54-0.509-1.016-1.524
	c-1.524-0.678-2.71-1.862-3.896-0.339c0.51,0,1.018,0.17,1.524,0.17c-0.339,0.339-0.508,1.693-0.847,1.861
	c-0.679,0.34-3.05-0.507-3.728-0.507c-1.864-0.17-3.558-0.17-5.421,0c0.34,2.201-2.202,0.169-3.049-0.509
	c1.695-1.693,3.558-1.017,5.59-0.847c1.525,0.169,3.896,0.169,4.066-1.863c-1.695-0.338-2.541-0.338-3.39-1.524
	c0-0.169-0.169-0.339-0.169-0.339c3.049-1.187,6.268-2.201,9.484-3.049C59.791,11.857,59.621,12.534,60.299,13.042z M9.147,76.222
	c0-15.922,5.589-30.489,14.905-42.007c1.185,0.847,2.371,1.863,2.879,2.201c1.187,1.017,1.694,2.203,2.371,3.389
	c0,0,0.677,1.016,0.847,1.524c0.848,0.846,1.356,1.692,1.524,2.709c0.17,1.187-0.338,2.373-0.338,3.728
	c-0.34,4.065,0.17,7.792,3.388,10.671c0.846,0.849,2.032,1.188,2.879,2.032c0.849,0.848,0.849,1.523,1.355,2.371
	c1.354,2.372,3.387,4.743,5.081,6.944c1.522,2.032,2.031,1.525,0.677-0.509c-1.016-1.354-2.201-2.71-3.048-4.232
	c0-0.17-0.849-2.203-0.68-2.033c2.203,0.509,2.712,2.033,4.235,3.896c1.354,1.862,2.71,2.879,3.557,4.911
	c1.018,2.541,2.54,3.728,4.911,4.912c1.188,0.508,3.221,2.032,4.574,2.201c1.524,0.17,2.371-0.847,3.727-0.169
	c1.017,0.508,1.694,1.864,2.88,2.371c1.187,0.339,1.863-0.169,3.05,0.679c1.354,0.848,1.693,2.37,2.878,3.218
	c0.848,0.679,2.032,1.524,3.219,1.693c0.849,0.169,1.694-0.508,2.372-0.169c1.354,0.508,1.693,2.202,1.354,3.556
	c-0.509,1.526-1.862,2.541-2.54,4.066c-0.509,1.354-0.169,2.54-0.339,3.896c-0.17,1.354-1.354,0-0.17,2.371
	c0.509,1.017,1.187,2.032,1.862,3.05c1.355,2.03,2.203,3.725,3.896,5.25c1.187,1.187,3.896,2.372,4.403,4.064
	c0.51,1.524,0.17,4.741-0.169,6.269c-0.508,3.218-0.508,7.112-1.354,10.161c-0.847,2.881-1.863,3.896-1.188,6.943
	c0.341,1.357,0.511,0.679,0,2.542c-0.17,0.509,0,0.678-0.17,1.188c-0.337,1.016-1.354,1.692-1.861,2.88
	c1.354,0,1.354,0.507,1.187,1.015c-1.863,0.169-3.558,0.34-5.42,0.34C39.296,143.296,9.147,113.146,9.147,76.222z M88.924,142.11
	c-0.339-0.339-0.677-0.847-0.677-1.017c0-0.338,1.354-2.202,1.522-2.541c0.341-0.676,0.512-2.202,1.019-2.708
	c0.678-0.848,2.372-0.51,2.031-2.373c3.558,0,5.081-0.508,5.591-4.234c-0.679-0.339-0.51-0.17-0.679-0.679
	c0.169,0.679,2.71-0.339,2.879,0.169c0.169,0.34,3.39-4.063,3.729-4.401c0.847-1.018,1.693-1.693,2.201-2.88
	c0.169-0.508,0.51-1.863,1.017-2.542c0,0.172,0,0.172-0.169,0.342c1.186-1.864,2.54-1.526,4.234-2.373
	c1.692-0.678,0.508-0.507,1.692-1.692c1.524-1.355,1.693-0.509,2.202-2.88c0.338-1.693-0.17-3.219,0.508-4.574
	c0.678-1.862,2.202-2.54,3.39-4.063c0.846-1.187,1.692-3.219,0.508-4.404c-0.847-1.016-3.729-1.863-4.913-2.202
	c-1.523-0.339-3.217-0.339-4.573-1.017c-1.692-0.678-2.879-2.371-3.727,0.339c-0.339-0.169-1.354-0.847-1.354-1.187
	c0,0.679,1.524-0.508,1.865-0.847c-0.68,0-3.051,0.509-3.39,0.339c0.17-0.677,1.354-2.201,1.354-2.37
	c0.169-1.694-2.202-3.558-3.558-3.896c-1.693-0.508-2.711-0.339-4.234-1.354c-1.863-1.354-3.558-2.88-5.928-3.049
	c-0.509,0-1.016,0.169-1.525,0.169c-1.185-0.169-1.692-1.017-2.71-1.185c-1.354-0.339-1.861,0.847-2.54,0.847
	c-1.187,0-1.354-1.186-3.049-0.169c-2.541,1.523-1.187,2.37-3.896,1.693c-1.523-0.339-3.218,0.508-4.572-0.51
	c-1.355-0.847-1.525-3.388-0.341-4.401c-0.676,0.507-0.676-1.188-1.016-1.526c-0.679-0.508-1.863,0-2.711-0.169
	c-1.185-0.339-1.861-0.339-1.522-1.523c0.339-1.186,3.556-4.403,0.169-4.403c-1.862,0-2.371,2.71-4.234,3.049
	c-2.032,0.339-3.896-0.339-5.081-2.203c-2.202-3.896,1.354-8.637,5.081-8.977c2.88-0.339,7.113-2.371,9.314,0.848
	c0.68,0.847,2.204,4.573,2.881,2.201c0.17-0.677-0.677-3.727-0.847-5.081c0.509-0.848,1.523-1.524,2.201-2.202
	c-0.17,0-0.17,0.169-0.339,0.338c0.678-0.677,2.71-1.692,3.049-2.709c0.171-0.508-0.678-1.354-0.169-2.033
	c0.34-0.677,1.188-0.338,1.523-0.677c0.509-0.509,0.509-1.523,1.016-2.202c0.511-0.677,1.526-0.677,2.034-1.186
	c1.187-1.018,1.524-2.372,2.879-2.88c1.354-0.848,2.709-2.371,4.404-1.693c-0.678,0.678-2.203,1.187-2.542,1.693s2.203,0.17,2.542,0
	c1.354-0.508,2.54-1.693,3.896-2.371c2.032-1.354,4.573-1.524,7.114-1.018c0.847,0.169-1.354-3.048-1.695-3.218
	c-0.846-1.017-1.017-1.862-2.538-0.679c-0.341,0.339-0.849,1.695-1.188,2.202c-0.847,1.693-0.678,1.355-2.71,2.373
	c0.17,0,0.17-0.17,0.339-0.17c-1.354,0.339-2.88,0.847-3.387-0.848c-0.17-0.679,0.677-1.524,0.169-2.033
	c-1.016-1.354-4.404,1.524-5.59,1.863c0.678-4.912,6.438-2.371,9.484-3.219c0.848-0.338,4.065-1.523,4.233-2.201
	c0.34-1.186-2.54-3.049-3.047-3.558c-1.356-1.187-2.033-1.862-2.88-3.558c-0.849-1.862-1.354-3.895-3.388-2.371
	c-0.68,0.509-0.17,1.693-1.524,1.863c-0.848,0.169-1.694-0.848-2.202-1.354c-0.678-0.679-1.524-2.541-2.71-2.71
	s-4.234-1.694-5.59-0.678c-1.187,0.847,0.17,3.896,0.509,4.911c0.677,2.372,1.186,2.372-0.848,3.896
	c-1.018,0.679-1.524,0-1.187,1.863c0.169,1.017,1.354,1.187,0.508,2.031c-0.508,0.51-1.692,0.51-2.2,0.17
	c-1.693-0.847-0.17-1.862-1.019-3.049c-0.676-0.848-4.064-1.523-5.081-2.032c-2.54-1.187-9.315-2.372-7.112-6.267
	c0.507-1.017,2.709-2.711,3.557-3.219c1.017-0.679,2.202-0.848,3.049-1.693c0.508-0.509,0.508-1.863,0.847-2.202
	c0.509-0.509,2.201-0.339,3.22-0.17c3.896-0.848,0.337-6.437,5.42-5.42c1.354,0.338,2.881,1.693,4.063,2.54
	c1.356,0.847,1.696,0.847,1.356,2.203c-0.17,0.338-1.524,1.692-1.863,2.032c-0.676,0.508-1.862,0.847-2.54,1.185
	c2.71,0,3.896-0.168,6.098,1.355c1.862,1.186,3.049,2.032,5.422,2.032c-0.169-1.187-2.203-0.678-2.034-1.862
	c0-1.018,1.186,0.338,1.354,0.338c0.681,0,2.373,0.848,2.033-1.017c-0.338-1.523-3.727-0.848-2.71-3.388
	c1.525-0.169,1.188,1.525,2.203,1.863c1.017,0.339,2.539-1.018,2.709-1.863c-1.523-0.848-6.269-2.033-5.759-4.234
	c3.05,2.033,6.268,4.065,9.314,5.929c-2.54,2.202,1.864,1.017,2.032,1.017c0.679,0.169,2.712,1.863,1.354,2.202
	c-1.354,0.339-2.031-1.524-3.217-0.17c1.017,0.339,4.912,0.509,3.896,2.542c-0.339,0.846-2.88,0.677-3.558,2.37
	c0.509-0.169,1.017,0,1.692,0c-1.185,1.864,0.51,3.05,1.525,4.574c1.018,1.692,2.541,4.232,4.742,4.742
	c4.573,1.185,4.066-6.268,7.453-7.452c1.017-0.341,2.032-0.171,3.048-0.341c1.017-0.339,1.694-1.016,2.542-1.692
	c1.863-1.355,3.558-1.524,5.591-1.524c6.773,6.774,12.025,15.074,15.412,24.392c-0.34,0.17-0.678,0.339-0.847,0.678
	c-0.34,0.338-0.34,0.678-0.509,1.186c-0.169,0.169-0.338,0.339-0.508,0.508c-0.34,0.679,0,1.524,0,2.202
	c0,0.849-0.34,1.524,0.17,2.201c0.338,0.679,1.016,1.356,1.692,1.864c0.509,0.509,1.187,1.017,1.862,1.017
	c0.17,0,0.678,0,1.018-0.169c0.169,1.016,0.339,2.032,0.508,3.048c-0.678,0.679-1.524,1.524-1.862,2.202
	c-0.509,1.017-0.509,1.693-1.524,2.542c-0.847,0.847-1.862,1.016-2.711,2.032c-0.676,1.016-0.676,1.693-1.185,2.709
	c-0.34,0.508-1.018,0.678-1.187,1.354c-0.679,1.354,0.169,3.558,0,5.083c0,1.86-0.679,3.387,0.338,5.079
	c1.019,1.524,2.541,3.05,3.896,4.066c0.847,0.847,1.862,1.524,2.879,1.862C134.657,117.889,114.332,137.198,88.924,142.11z"/>
</svg>
