<svg xmlns="http://www.w3.org/2000/svg" xmlns:xlink="http://www.w3.org/1999/xlink" viewBox="0 0 200 100"><defs><style>.cls-1,.cls-6{fill:none;}.cls-2{clip-path:url(#clip-path);}.cls-3{fill:#e3dbd5;}.cls-4{fill:#f68d07;}.cls-4,.cls-5{stroke:#fff;}.cls-4,.cls-5,.cls-6{stroke-miterlimit:10;stroke-width:1.5px;}.cls-5{fill:#48a692;}.cls-6{stroke:#1d1d1b;stroke-linecap:square;}</style><clipPath id="clip-path"><polygon class="cls-1" points="200 36.9 200 18.45 200 0 84.75 0 69.5 0 69.5 0 69.5 0 34.75 0 0 0 0 36.4 0 72.8 0 86.4 0 100 25.15 100 50.3 100 75.15 100 200 100 200 68.45 200 36.9 200 36.9 200 36.9"/></clipPath></defs><title>large-8</title><g id="symboles"><g class="cls-2"><polygon class="cls-3" points="200 36.9 200 18.45 200 0 84.75 0 69.5 0 69.5 0 69.5 0 34.75 0 0 0 0 36.4 0 72.8 0 86.4 0 100 25.15 100 50.3 100 75.15 100 200 100 200 68.45 200 36.9 200 36.9 200 36.9"/><path class="cls-4" d="M63.13,10.25v12a6,6,0,0,0,0-12Z"/><path class="cls-5" d="M52.63,16.27a10.5,10.5,0,0,0,10.5,10.5v-21a10.48,10.48,0,0,0-10.5,10.5Z"/><path class="cls-5" d="M44.82,35.2A12.07,12.07,0,0,0,56.89,47.27V23.13A12.07,12.07,0,0,0,44.82,35.2Z"/><path class="cls-4" d="M56.89,28.44V42a6.76,6.76,0,1,0,0-13.52Z"/><path class="cls-5" d="M106.07,69.51a20.86,20.86,0,0,0,20.87,20.87V48.64a20.86,20.86,0,0,0-20.87,20.87Z"/><path class="cls-4" d="M126.94,4.14V134.88a65.37,65.37,0,0,0,0-130.74Z"/><polyline class="cls-6" points="126.94 4.14 126.94 69.51 126.94 134.88"/><path class="cls-4" d="M23.63,78.57v10.2a5.1,5.1,0,0,0,0-10.2Z"/><polyline class="cls-6" points="63.13 26.77 63.13 16.27 63.13 5.77"/><path class="cls-5" d="M3.58,39.67A27.86,27.86,0,0,0,31.43,67.52V11.82A27.84,27.84,0,0,0,3.58,39.67Z"/><path class="cls-4" d="M31.43,28.64v22a11,11,0,1,0,0-22Z"/><path class="cls-5" d="M40.87,72.05a6.42,6.42,0,0,0,6.43,6.43V65.62a6.44,6.44,0,0,0-6.43,6.43Z"/><path class="cls-4" d="M47.3,59.15V85a12.9,12.9,0,0,0,0-25.8Z"/><path class="cls-5" d="M34.42,93.42A5.6,5.6,0,0,0,40,99V87.82a5.6,5.6,0,0,0-5.6,5.6Z"/><path class="cls-4" d="M40,85.21v16.42a8.21,8.21,0,0,0,0-16.42Z"/><polyline class="cls-6" points="47.3 59.15 47.3 72.05 47.3 84.95"/><path class="cls-5" d="M151.69,8.5a6.44,6.44,0,0,0,6.43,6.43V2.07a6.42,6.42,0,0,0-6.43,6.43Z"/><path class="cls-4" d="M158.12-4.4V21.4a12.9,12.9,0,0,0,0-25.8Z"/><polyline class="cls-6" points="158.12 -4.4 158.12 8.5 158.12 21.4"/><path class="cls-5" d="M92.84,31.42a6.44,6.44,0,0,0,6.43,6.43V25a6.45,6.45,0,0,0-6.43,6.43Z"/><path class="cls-4" d="M99.27,18.52v25.8a12.9,12.9,0,0,0,0-25.8Z"/><polyline class="cls-6" points="99.27 18.52 99.27 31.42 99.27 44.32"/><polyline class="cls-6" points="40.02 85.21 40.02 93.42 40.02 101.63"/><polyline class="cls-6" points="31.43 67.52 31.43 39.67 31.43 11.82"/><polyline class="cls-6" points="56.89 47.27 56.89 35.2 56.89 23.13"/><path class="cls-5" d="M16,83.67a7.61,7.61,0,0,0,7.61,7.61V76.06A7.61,7.61,0,0,0,16,83.67Z"/><polyline class="cls-6" points="23.63 91.28 23.63 83.67 23.63 76.06"/><path class="cls-4" d="M177.89,18.91v10.2a5.1,5.1,0,0,0,0-10.2Z"/><path class="cls-5" d="M170.28,24a7.6,7.6,0,0,0,7.61,7.61V16.4A7.61,7.61,0,0,0,170.28,24Z"/><polyline class="cls-6" points="177.89 31.63 177.89 24.01 177.89 16.4"/><path class="cls-4" d="M85.84,75.72v29.42a14.71,14.71,0,0,0,0-29.42Z"/><path class="cls-5" d="M79,90.43a6.79,6.79,0,0,0,6.8,6.8V83.63a6.79,6.79,0,0,0-6.8,6.8Z"/><polyline class="cls-6" points="85.83 75.74 85.83 90.43 85.83 105.14"/><path class="cls-4" d="M181,75.61V105a14.71,14.71,0,0,0,0-29.41Z"/><path class="cls-5" d="M167.77,90.32A13.23,13.23,0,0,0,181,103.55V77.08a13.23,13.23,0,0,0-13.23,13.24Z"/><polyline class="cls-6" points="181 75.63 181 90.32 181 105.02"/></g></g></svg>