<svg height="454.129" viewBox="42 329.151 1824.178 454.129" width="1824.178" xmlns="http://www.w3.org/2000/svg"><path d="m123.78 776.4h-81.78v-447.24h81.78zm263.88 0h-92l-155.9-236.83 155.9-210.42h92l-155.9 210.42 155.9 236.84zm307.54.48h-79.2v-177.88c1.6-23.02-3.66-46-15.14-66.02-11.4-14.92-29.64-22.96-48.34-21.3-23.17-.5-45.3 9.62-60.06 27.48v237.72h-79.02v-448.2h79.23v139.34c19.57-13.48 42.7-20.9 66.45-21.3 90.73 0 136.1 50.9 136.1 152.7v177.48zm289.5-320.78h72.63c-13.16 28.54-22.8 58.57-28.76 89.44-6.1 25.02-9.94 50.54-11.5 76.24.86 24.74 4.43 49.3 10.65 73.27 6.33 27.9 15.24 55.12 26.62 81.36h-70.92c-1-3.97-2.77-9.58-5.32-16.82-4.26-12.07-7.88-24.14-10.86-36.2-35.32 58.78-111.6 77.8-170.38 42.48-14.78-8.88-27.55-20.74-37.5-34.82-25.1-35.98-38.16-79-37.26-122.9-1.18-40.78 11.93-80.7 37.06-112.87 24.96-31.07 63.27-48.33 103.08-46.43 43.8.2 84.05 24.07 105.2 62.4 4.74-18.68 10.5-37.1 17.26-55.15zm-175.92 160.56c-1.2 25.34 5.33 50.45 18.74 72 16.68 27.16 52.22 35.66 79.4 18.98 6.62-4.07 12.36-9.45 16.87-15.8 13.9-22.48 20.32-48.8 18.3-75.18 1.84-26.6-5.04-53.06-19.6-75.4-10.63-15.72-28.28-25.27-47.27-25.55-19.4.1-37.42 10.16-47.7 26.62-13.72 22.28-20.26 48.22-18.75 74.33zm457.92-164.83-15.32 74.75h-29.4c-12.28-.12-24.4 2.96-35.14 8.95-9.83 5.13-17.86 13.16-23 23v217.87h-79.23v-319.45h74.13l1.92 33.86c21.53-24.56 52.53-38.74 85.2-38.97h21.3-.44zm210.93 265.79-7.03 65.18h-56.86c-12.67.3-25.28-1.96-37.06-6.6-10.07-4.08-19.2-10.17-26.84-17.9-7.27-7.58-12.8-16.67-16.2-26.62-3.6-10.48-5.4-21.5-5.3-32.6v-176.96h-45.6l7.04-65.16h38.34v-70.28l79.22-8.3v78.58h70.3v65.17h-70.3v144.4c-.14 9.6.3 19.2 1.28 28.76.34 5.6 2.42 10.97 5.97 15.33 3.88 3.75 9.06 5.88 14.47 5.96h26.83 21.3l.43 1.06zm122.15-309.24h-79.23v-79.23h79.23zm0 368.03h-79.23v-319.46h79.23v319.45zm141.99 6.39c-37.52 2.64-75-5.57-107.98-23.65l7.02-67.72c6.15 4.44 12.7 8.3 19.6 11.5 8.08 3.92 16.4 7.33 24.9 10.22 8.86 3.06 17.9 5.55 27.06 7.46 8.83 1.83 17.82 2.75 26.83 2.77 13.4 1.35 26.83-2.3 37.7-10.22 7.07-6.34 11.03-15.43 10.87-24.92.52-7.85-2.26-15.57-7.66-21.3-6.2-5.6-13.43-9.95-21.3-12.77-9.65-3.55-21.3-7.4-34.92-11.5-15.85-4.9-31.24-11.17-46-18.75-11.72-6.24-21.62-15.4-28.76-26.6-7.56-13.65-11.73-28.92-12.14-44.52 0-12.94 2.3-25.78 6.82-37.9 4.6-12.25 11.88-23.3 21.3-32.38 10.37-9.96 22.7-17.65 36.2-22.58 17.06-6.18 35.1-9.14 53.24-8.73 19.46 0 38.84 2.35 57.72 7.02 15.04 3.08 29.44 8.7 42.6 16.6l-7.03 67.74c-5.26-4.7-10.88-8.98-16.82-12.78-6.75-4.38-13.88-8.15-21.3-11.3-7.85-3.24-15.97-5.8-24.27-7.66-8.18-1.84-16.54-2.77-24.92-2.77-13.15-.52-26.22 2.42-37.9 8.52-9.77 5.2-15.67 15.57-15.12 26.63-.65 8.8 3 17.37 9.8 23 8.15 5.94 17.1 10.68 26.62 14.06l10.86 3.2 12.35 3.4 11.5 4.26c12.34 3.52 24.38 8 36 13.4 10.35 4.73 19.8 11.22 27.9 19.18 7.8 7.8 13.82 17.16 17.68 27.48 4.25 12.1 6.27 24.87 5.97 37.7.57 62.6-40.9 93.9-124.38 93.9z" fill="#fff"/></svg>