<svg viewBox="0 0 200 100" xmlns="http://www.w3.org/2000/svg" xmlns:xlink="http://www.w3.org/1999/xlink"><clipPath id="a"><path d="m0 0h200v100h-200z"/></clipPath><clipPath id="b"><path d="m0 136h200v100h-200z"/></clipPath><g clip-path="url(#a)"><path d="m69.5 0h-69.5v72.8 27.2h50.3 149.7v-63.1-36.9z" fill="#e3dbd5"/><g fill="#007a91" stroke="#fff" stroke-miterlimit="10" stroke-width="1.5"><circle cx="20.2" cy="16.2" r="39.1"/><circle cx="42.6" cy="40.1" r="20.2"/><circle cx="74.3" cy="16.7" r="10.5"/><circle cx="77.4" cy="40.8" r="5.4"/><circle cx="61.5" cy="82.9" r="12.9"/><circle cx="72.7" cy="76.6" r="6.8"/><circle cx="49.4" cy="76" r="5.6"/><circle cx="34.8" cy="84.1" r="5.1"/><circle cx="93.75" cy="63.7" r="14.1"/><circle cx="16.3" cy="73.7" r="3.7"/><circle cx="161.52" cy="61.86" r="20.2"/><circle cx="188.44" cy="61.04" r="56.47"/><circle cx="184.92" cy="93.56" r="10.5"/><circle cx="160.82" cy="96.66" r="5.4"/><circle cx="118.72" cy="80.76" r="12.9"/><circle cx="125.02" cy="91.96" r="6.8"/><circle cx="125.62" cy="68.66" r="5.6"/><circle cx="117.52" cy="54.06" r="5.1"/><circle cx="139.38" cy="82.06" r="5.1"/><circle cx="109.54" cy="78.45" r="5.1"/><circle cx="141.96" cy="50.08" r="14.1"/><circle cx="127.92" cy="35.56" r="3.7"/><circle cx="127.23" cy="20.35" r="3.7"/><circle cx="134.28" cy="16.65" r="3.7"/><circle cx="113.66" cy="-.43" r="3.7"/><circle cx="154.79" cy="44.56" r="6.8"/><circle cx="141.45" cy="63.59" r="5.4"/></g></g><g clip-path="url(#b)"><path d="m190.53 63.88-1-6.81-1.76-2.07 4.9-8.35.6-4.69 1.56-1.06 1.15-.56 2.19 1.11 3.18-1.14 6.65 1.03 2.62-2.62 2.75 2 4.85-3.22 1.64 1.1 3.89.42 2.75 2 4.87-1.7-.49 2.6 4.33 2 2.78-.55 4.33 1.43-.51 3.2 1.67 1-2 8.95 2.23 1.49-3.12 4.29-1.64.53-3.75 7.4.65 4.21-1.56 1.58.16 7.39-.45 3.71-3.44-1.48-.56-1.07-1.13-1-6 3.77-7.15 3.23.54 3.66 2.29 4.21 2.29 3.57h-2.73-3.43l-.52 2.69 2.31 5.2-1.61 5.9-2.78 2.77-1.61 1.08-1.64 4.77h-.57l-.63.5-6.74-4.69-1.22-3.18-5.08-4.22-1.71-6.3-4.49-1.54 2.86-3.19-4.47-4.23v-4.14l-2.78-1.63 1-3.1 4-.5 1-4.23 2.76-3.17-2.77-1 1.71-7.89-2.22-3.65z" fill="#4eb3d3"/><path d="m-9.26 81.75 2.48-3h6.13l4.76 3.08 11 1.91 2.22.17 7.17 1 4.26 2.91 3.81 1.39 6.18-.72 4.58-1.83 6.42-4.83 4.55-1.83 3.33.19 1.13 9.52 2.56 2.83-2.27 2 2.7 1.7v.57l-.86 4.2 2.23.12-3.65 6.59 3.2 1.81-.23 4.24-1.13 1.43-3.41.38-2.72-1.72-5.8 2.79-1-2.19-2.88 1-1.25 2v.57l-4 1.3-1.86 2.51-4.62 1.34-7.24-3.18-1.88 2.5-2.55-4-10.94 2.5-2.73-1.35-1.38 3.16-6.45 2.62-4.38-2-7.33-.62-.34-2.66-2.73-1.24 3.7-3.45 1.12.1.41-4.73 2.85-.33 4.74-2.73 2.11-5.15-.21-4.26-2.11-1.66 1.38-3.14-5.48-1.45-4.6-5.21z" fill="#4eb3d3"/><path d="m57.63 80.18 3.37-.31 6.23-2.87 1.66.09 2.11 2.75 2.74.7 1.53 2.68 6.15-.77 1.06 1.11.53.52 3.3.71h.56l.32 5.31 4.23 4.9 2.31-2 3.35-2 1.29-2.56 5.57-.28.58-2.66 3-4.13 1.68-.43.5-.48 5 1.71 3.32.1 3.81 2.73 2.79-.42 2.15 2.67.44 4.24 1 3.13-2.79-.07-1.67 2.64-1.18 2.09-1.3 5.72-2.35 3.68-3.92.32-1.14.53-.65.47-.66 5.22 1 2.73-1.7.51-.15 4.67-2.84.48-2.35 2.62.47 2.64-2.31 2.13-7.91-.86-2.89 1.45-1.68-.59-2.35 2-4.58.87-2.27-.1-3 3-2.8-1.13.77-4.23-2.11-3.3-2.75-1.76-2.72-2.27.14-2.62-9-1.46-1.67-1.72 1.37-3.12 1.13-1.43.23-4.24-3.2-1.81 3.65-6.59-2.17-.09.86-4.2v-.57l-2.7-1.7 2.27-2-2.53-2.83z" fill="#2b8cbe"/><path d="m-9.26 81.75-1 5.15 4.6 5.21 5.48 1.45-1.39 3.14 2.11 1.66.21 4.27-2.11 5.15-4.74 2.73-2.85.33-.41 4.73-1.12-.1-3.7 3.45 2.73 1.24.34 2.66 7.33.62 4.38 2 2 3.86 1.24 5.94-.9 4.21-4.94 4.38-4.54-.83-.57-.05-1.83 1.34-3.29-1.78-3.36-.86-4.92-2.65-2.56 3-4.27 2.75-4.92-2.6-1.87-4.4.71-1.5-1.86-4.46 5.66.54 2.46-1.84-4.33-2.49-1.39-3.34-1.49-2.28.36-3.74-.99-1.64 1.94-8.35 1-4.74-1.59-1.15-.6-5.38 1.36-2.49-.1-4.76-2-2.82-2.16-6.51-2.44-3.5-2.61-1.82.37-3.64-.57-5.36-1.49-1.71 1.91-2.42v-5.85l-3.51-2.5.37-3.56 12 6.43 6.57.64 5.27-3.18 6.52 1.67 2.32 4.93-3.62 3.34-.78 2.54 5.73 10.54-.78 2.55z" fill="#ccebc5"/><path d="m128.58 59.52 2.65 1.12-.06 2.59 2.18.62 2.31-1.57 4.38.59 1.61 2.13 4.43-1.47 7.12 1.66 2.72 2.15h3.24l6.09 3.72 1.59-.48 2.81 2.63 1.12-3.65 4.41 1.08.49-3.16 5.52-3.64 5.56 2 1.58-2.6 2.2.56-1 5.76 2.22 3.65-1.75 7.97 2.77 1-2.77 3.22-1 4.23-4 .5-1 3.1 2.78 1.63v4.14l4.47 4.23-2.86 3.19-.56 2.62-3.85.56-3.44-.57-1.61 1.06-2.87-2.09-1.06 1-1.77 1.61-2.24-.57-3.27-2.64-2.25 1.6-7.78-5.38-3.42-.54-1.59-1.58-2.9 2-1.57-2.08-5-.08-2.21-1.62-2.83 2.06-5.12.39-.57.48-3.8-1.65h-.68l-2.25.5-2-4.29 1.67-2.64 2.79.07-1-3.13-.44-4.24-2.15-2.67 2.89-4.71-2.71-2.19 1.66-2.56-1-3.13-.42-4.79.11-4.14 1.16-3.08z" fill="#2b8cbe"/><path d="m110.67 37 3.26.1-.05 1.61 1.05 1.08 1.6 1.1 1 1.08 3.23 3.74 2.68 1.62 2.1 2.67.89 5.28 2.15 4.27-2.27.43-1.12 3.13-.11 4.14.42 4.75 1 3.13-1.7 2.57 2.71 2.18-2.89 4.71-2.79.42-3.83-2.72-3.32-.1-5-1.71-.5.48-1.68.43-3 4.13-.58 2.66-5.57.28-1.27 2.54-3.35 2-2.31 2-4.26-4.91-.32-5.31h-.56l-3.28-.7-.53-.52-1.06-1.11-6.15.77-1.53-2.68-2.73-.7-2.08-2.72-1.69-.12-6.23 2.87-2.76-.15-8.76-2.07-1.93-4.84 4.4-8.74.7-2.57 2.32-2 5.6-1.72 11.91-7.23 6.63-1.22 3.21.15 8.41-3.34 3.25.7 8.31-3.84 6.1-5z" fill="#4eb3d3"/><path d="m118.92 108.66 2.35-3.68 1.27-5.69 1.18-2.09 2 4.29 2.28-.49h.63l3.8 1.65.57-.48 5.12-.39 2.88-2.06 2.21 1.6 5 .08 1.57 2.08 2.9-2 1.59 1.58 3.42.54 7.78 5.38-1.8 5.22-4.55 4.21-4.41-1.55-3.47 1.44-4.56 3.12.69-3.18-1.65-2.15-4-2.69h-.49l-3.4 1.06-3.33-1.7-5-3.8-5.1 1.93-3.29-2.71z" fill="#08589e"/></g></svg>