<svg viewBox="0 0 200 100" xmlns="http://www.w3.org/2000/svg" xmlns:xlink="http://www.w3.org/1999/xlink"><clipPath id="a"><path d="m63.07 0h-63.09v49.65 50.35h27.23 172.79v-69.48-30.52z"/></clipPath><clipPath id="b"><path d="m0-149h200v100h-200z"/></clipPath><g clip-path="url(#a)"><path d="m63.07 0h-63.09v49.65 50.35h27.23 172.79v-69.48-30.52z" fill="#e3dbd5"/><g fill="#e60080"><path d="m19.38 29.33a3 3 0 1 1 -3 3 3 3 0 0 1 3-3m0-4.5a7.5 7.5 0 1 0 7.5 7.5 7.5 7.5 0 0 0 -7.5-7.5z"/><path d="m54.67 93.15a3 3 0 1 1 -3 3 3 3 0 0 1 3-3m0-4.5a7.5 7.5 0 1 0 7.5 7.5 7.5 7.5 0 0 0 -7.5-7.5z"/><path d="m95.1 62.12a3 3 0 1 1 -3 3 3 3 0 0 1 3-3m0-4.5a7.5 7.5 0 1 0 7.5 7.5 7.5 7.5 0 0 0 -7.5-7.5z"/><path d="m121.05-1.36a3 3 0 1 1 -3 3 3 3 0 0 1 3-3m0-4.5a7.5 7.5 0 1 0 7.5 7.5 7.5 7.5 0 0 0 -7.5-7.5z"/><path d="m178.78 18.92a3 3 0 1 1 -3 3 3 3 0 0 1 3-3m0-4.5a7.5 7.5 0 1 0 7.5 7.5 7.5 7.5 0 0 0 -7.5-7.5z"/><path d="m139.72 57.42a3 3 0 1 1 -3 3 3 3 0 0 1 3-3m0-4.5a7.5 7.5 0 1 0 7.5 7.5 7.5 7.5 0 0 0 -7.5-7.5z"/><circle cx="58.23" cy="25.92" r="5.03"/><path d="m58.23 18.37a7.55 7.55 0 1 1 -7.55 7.55 7.56 7.56 0 0 1 7.55-7.55m0-5a12.58 12.58 0 1 0 12.58 12.55 12.58 12.58 0 0 0 -12.58-12.58z"/><path d="m23.64 80.47a1.66 1.66 0 1 1 -1.64 1.66 1.66 1.66 0 0 1 1.64-1.66z"/><path d="m23.64 77.7a4.43 4.43 0 1 1 -4.43 4.43 4.44 4.44 0 0 1 4.43-4.43m0-1.11a5.54 5.54 0 1 0 5.54 5.54 5.54 5.54 0 0 0 -5.54-5.54z"/><path d="m6.22 72a1.66 1.66 0 1 1 -1.66 1.66 1.66 1.66 0 0 1 1.66-1.66z"/><path d="m6.22 69.26a4.43 4.43 0 1 1 -4.43 4.43 4.44 4.44 0 0 1 4.43-4.43m0-1.11a5.54 5.54 0 1 0 5.54 5.54 5.54 5.54 0 0 0 -5.54-5.54z"/><path d="m10.62 91a1.67 1.67 0 1 1 -1.62 1.71 1.66 1.66 0 0 1 1.62-1.71z"/><path d="m10.62 88.28a4.43 4.43 0 1 1 -4.43 4.43 4.43 4.43 0 0 1 4.43-4.43m0-1.11a5.54 5.54 0 1 0 5.54 5.54 5.54 5.54 0 0 0 -5.54-5.54z"/><path d="m73.07 58.53a1.66 1.66 0 1 1 -1.66 1.66 1.66 1.66 0 0 1 1.66-1.66z"/><path d="m73.07 55.76a4.43 4.43 0 1 1 -4.43 4.43 4.44 4.44 0 0 1 4.43-4.43m0-1.1a5.54 5.54 0 1 0 5.54 5.53 5.53 5.53 0 0 0 -5.54-5.53z"/><path d="m80.12 47.47a1.66 1.66 0 1 1 -1.66 1.66 1.66 1.66 0 0 1 1.66-1.66z"/><path d="m80.12 44.7a4.43 4.43 0 1 1 -4.42 4.43 4.43 4.43 0 0 1 4.42-4.43m0-1.11a5.54 5.54 0 1 0 5.54 5.54 5.54 5.54 0 0 0 -5.54-5.54z"/><path d="m97.6 53.88a1.66 1.66 0 1 1 -1.66 1.66 1.66 1.66 0 0 1 1.66-1.66z"/><path d="m97.6 51.11a4.43 4.43 0 1 1 -4.43 4.43 4.43 4.43 0 0 1 4.43-4.43m0-1.11a5.54 5.54 0 1 0 5.54 5.54 5.54 5.54 0 0 0 -5.54-5.54z"/><path d="m107.31 51.23a1.66 1.66 0 1 1 -1.66 1.66 1.66 1.66 0 0 1 1.66-1.66z"/><path d="m107.31 48.46a4.43 4.43 0 1 1 -4.43 4.43 4.44 4.44 0 0 1 4.43-4.43m0-1.11a5.54 5.54 0 1 0 5.54 5.54 5.54 5.54 0 0 0 -5.54-5.54z"/><path d="m111.72 66.76a1.66 1.66 0 1 1 -1.66 1.66 1.66 1.66 0 0 1 1.66-1.66z"/><path d="m111.72 64a4.43 4.43 0 1 1 -4.43 4.43 4.43 4.43 0 0 1 4.43-4.43m0-1.1a5.54 5.54 0 1 0 5.54 5.53 5.54 5.54 0 0 0 -5.54-5.53z"/><path d="m74.12 99.19a1.66 1.66 0 1 1 -1.66 1.66 1.66 1.66 0 0 1 1.66-1.66z"/><path d="m74.12 96.42a4.43 4.43 0 1 1 -4.43 4.43 4.44 4.44 0 0 1 4.43-4.43m0-1.1a5.54 5.54 0 1 0 5.54 5.53 5.52 5.52 0 0 0 -5.54-5.53z"/><path d="m62.82 87.36a1.67 1.67 0 1 1 -1.66 1.64 1.67 1.67 0 0 1 1.66-1.64z"/><path d="m62.82 84.59a4.43 4.43 0 1 1 -4.43 4.41 4.43 4.43 0 0 1 4.43-4.43m0-1.1a5.54 5.54 0 1 0 5.54 5.53 5.54 5.54 0 0 0 -5.54-5.53z"/><path d="m96.17 22.17a1.66 1.66 0 1 1 -1.66 1.66 1.66 1.66 0 0 1 1.66-1.66z"/><path d="m96.17 19.4a4.43 4.43 0 1 1 -4.43 4.43 4.44 4.44 0 0 1 4.43-4.43m0-1.11a5.54 5.54 0 1 0 5.53 5.54 5.54 5.54 0 0 0 -5.53-5.54z"/><path d="m127.49 15.84a1.66 1.66 0 1 1 -1.66 1.66 1.66 1.66 0 0 1 1.66-1.66z"/><path d="m127.49 13.07a4.43 4.43 0 1 1 -4.43 4.43 4.44 4.44 0 0 1 4.43-4.43m0-1.11a5.54 5.54 0 1 0 5.51 5.54 5.54 5.54 0 0 0 -5.51-5.5z"/><path d="m134.26 8.34a1.66 1.66 0 1 1 -1.66 1.66 1.66 1.66 0 0 1 1.66-1.66z"/><path d="m134.26 5.57a4.43 4.43 0 1 1 -4.43 4.43 4.43 4.43 0 0 1 4.43-4.43m0-1.11a5.54 5.54 0 1 0 5.54 5.54 5.54 5.54 0 0 0 -5.54-5.54z"/><path d="m159.17-.2a1.67 1.67 0 1 1 -1.66 1.66 1.66 1.66 0 0 1 1.66-1.66z"/><path d="m159.17-3a4.43 4.43 0 1 1 -4.43 4.43 4.44 4.44 0 0 1 4.43-4.43m0-1.1a5.54 5.54 0 1 0 5.53 5.53 5.54 5.54 0 0 0 -5.53-5.53z"/><path d="m190 7.17a1.66 1.66 0 1 1 -1.66 1.66 1.66 1.66 0 0 1 1.66-1.66z"/><path d="m190 4.4a4.43 4.43 0 1 1 -4.43 4.43 4.44 4.44 0 0 1 4.43-4.43m0-1.11a5.54 5.54 0 1 0 5.54 5.54 5.54 5.54 0 0 0 -5.54-5.54z"/><path d="m197.76 35.43a1.66 1.66 0 1 1 -1.67 1.66 1.66 1.66 0 0 1 1.67-1.66z"/><path d="m197.76 32.66a4.43 4.43 0 1 1 -4.43 4.43 4.43 4.43 0 0 1 4.43-4.43m0-1.1a5.54 5.54 0 1 0 5.53 5.53 5.53 5.53 0 0 0 -5.53-5.53z"/><path d="m197.87 51.56a1.67 1.67 0 1 1 -1.66 1.67 1.66 1.66 0 0 1 1.66-1.67z"/><path d="m197.87 48.8a4.43 4.43 0 1 1 -4.43 4.43 4.43 4.43 0 0 1 4.43-4.43m0-1.11a5.54 5.54 0 1 0 5.54 5.54 5.53 5.53 0 0 0 -5.54-5.54z"/><path d="m190 48.34a1.66 1.66 0 1 1 -1.66 1.66 1.66 1.66 0 0 1 1.66-1.66z"/><path d="m190 45.57a4.43 4.43 0 1 1 -4.43 4.43 4.44 4.44 0 0 1 4.43-4.43m0-1.11a5.54 5.54 0 1 0 5.54 5.54 5.54 5.54 0 0 0 -5.54-5.54z"/><path d="m175.49 42.8a1.66 1.66 0 1 1 -1.66 1.66 1.67 1.67 0 0 1 1.66-1.66z"/><path d="m175.49 40a4.43 4.43 0 1 1 -4.42 4.43 4.43 4.43 0 0 1 4.42-4.43m0-1.1a5.54 5.54 0 1 0 5.51 5.56 5.54 5.54 0 0 0 -5.54-5.53z"/><path d="m159.07 70.91a1.67 1.67 0 1 1 -1.67 1.66 1.67 1.67 0 0 1 1.67-1.66z"/><path d="m159.07 68.14a4.43 4.43 0 1 1 -4.43 4.43 4.44 4.44 0 0 1 4.43-4.43m0-1.1a5.54 5.54 0 1 0 5.53 5.53 5.54 5.54 0 0 0 -5.53-5.57z"/><path d="m153.89 58.51a1.66 1.66 0 1 1 -1.66 1.66 1.66 1.66 0 0 1 1.66-1.66z"/><path d="m153.89 55.74a4.43 4.43 0 1 1 -4.43 4.43 4.44 4.44 0 0 1 4.43-4.43m0-1.11a5.54 5.54 0 1 0 5.54 5.54 5.54 5.54 0 0 0 -5.54-5.54z"/><path d="m146.92 75.52a1.67 1.67 0 1 1 -1.66 1.66 1.67 1.67 0 0 1 1.66-1.66z"/><path d="m146.92 72.75a4.43 4.43 0 1 1 -4.43 4.43 4.44 4.44 0 0 1 4.43-4.43m0-1.1a5.54 5.54 0 1 0 5.53 5.53 5.54 5.54 0 0 0 -5.53-5.53z"/><path d="m168.26 48.34a1.66 1.66 0 1 1 -1.66 1.66 1.66 1.66 0 0 1 1.66-1.66z"/><path d="m168.26 45.57a4.43 4.43 0 1 1 -4.43 4.43 4.44 4.44 0 0 1 4.43-4.43m0-1.11a5.54 5.54 0 1 0 5.53 5.54 5.54 5.54 0 0 0 -5.53-5.54z"/><path d="m132 73.29a1.66 1.66 0 1 1 -1.7 1.71 1.66 1.66 0 0 1 1.7-1.71z"/><path d="m132 70.52a4.43 4.43 0 1 1 -4.47 4.48 4.43 4.43 0 0 1 4.47-4.48m0-1.1a5.54 5.54 0 1 0 5.5 5.58 5.54 5.54 0 0 0 -5.5-5.58z"/><path d="m135 91.09a1.66 1.66 0 1 1 -1.67 1.66 1.66 1.66 0 0 1 1.67-1.66z"/><path d="m135 88.32a4.43 4.43 0 1 1 -4.43 4.43 4.43 4.43 0 0 1 4.43-4.43m0-1.11a5.54 5.54 0 1 0 5.53 5.54 5.54 5.54 0 0 0 -5.53-5.54z"/><path d="m178.75 89.41a1.67 1.67 0 1 1 -1.66 1.67 1.66 1.66 0 0 1 1.66-1.67z"/><path d="m178.75 86.65a4.43 4.43 0 1 1 -4.43 4.43 4.43 4.43 0 0 1 4.43-4.43m0-1.11a5.54 5.54 0 1 0 5.54 5.54 5.54 5.54 0 0 0 -5.54-5.54z"/><path d="m166.2 97.8a4.43 4.43 0 1 1 -4.43 4.43 4.44 4.44 0 0 1 4.43-4.43m0-1.1a5.54 5.54 0 1 0 5.53 5.53 5.54 5.54 0 0 0 -5.53-5.53z"/><path d="m80.87 2.18a1.66 1.66 0 1 1 -1.66 1.66 1.66 1.66 0 0 1 1.66-1.66z"/><path d="m80.87-.59a4.43 4.43 0 1 1 -4.43 4.43 4.44 4.44 0 0 1 4.43-4.43m0-1.11a5.54 5.54 0 1 0 5.54 5.54 5.54 5.54 0 0 0 -5.54-5.54z"/><path d="m88.11 51a1.66 1.66 0 1 1 -1.66 1.66 1.66 1.66 0 0 1 1.66-1.66z"/><path d="m88.11 48.27a4.43 4.43 0 1 1 -4.43 4.43 4.43 4.43 0 0 1 4.43-4.43m0-1.11a5.54 5.54 0 1 0 5.53 5.54 5.54 5.54 0 0 0 -5.53-5.54z"/><path d="m81.61 75.38a1.66 1.66 0 1 1 -1.61 1.62 1.66 1.66 0 0 1 1.61-1.62z"/><path d="m81.61 72.61a4.43 4.43 0 1 1 -4.43 4.39 4.43 4.43 0 0 1 4.43-4.43m0-1.11a5.54 5.54 0 1 0 5.54 5.54 5.54 5.54 0 0 0 -5.54-5.54z"/><path d="m90.23 77.78a1.66 1.66 0 1 1 -1.66 1.66 1.66 1.66 0 0 1 1.66-1.66z"/><path d="m90.23 75a4.43 4.43 0 1 1 -4.43 4.43 4.43 4.43 0 0 1 4.43-4.43m0-1.11a5.54 5.54 0 1 0 5.54 5.54 5.54 5.54 0 0 0 -5.54-5.54z"/><path d="m25.65 3a1.66 1.66 0 1 1 -1.65 1.69 1.66 1.66 0 0 1 1.65-1.69z"/><path d="m25.65.26a4.43 4.43 0 1 1 -4.43 4.43 4.44 4.44 0 0 1 4.43-4.43m0-1.11a5.54 5.54 0 1 0 5.54 5.54 5.54 5.54 0 0 0 -5.54-5.54z"/><path d="m9 8.62a1.66 1.66 0 1 1 -1.66 1.66 1.66 1.66 0 0 1 1.66-1.66z"/><path d="m9 5.85a4.43 4.43 0 1 1 -4.43 4.43 4.43 4.43 0 0 1 4.43-4.43m0-1.11a5.54 5.54 0 1 0 5.54 5.54 5.54 5.54 0 0 0 -5.54-5.54z"/><path d="m38.75 37.62a1.67 1.67 0 1 1 -1.66 1.66 1.66 1.66 0 0 1 1.66-1.66z"/><path d="m38.75 34.86a4.43 4.43 0 1 1 -4.43 4.42 4.42 4.42 0 0 1 4.43-4.42m0-1.11a5.54 5.54 0 1 0 5.54 5.53 5.54 5.54 0 0 0 -5.54-5.53z"/><path d="m47.75 36.37a1.67 1.67 0 1 1 -1.66 1.63 1.66 1.66 0 0 1 1.66-1.63z"/><path d="m47.75 33.61a4.43 4.43 0 1 1 -4.43 4.39 4.42 4.42 0 0 1 4.43-4.42m0-1.11a5.54 5.54 0 1 0 5.54 5.53 5.54 5.54 0 0 0 -5.54-5.53z"/><path d="m49.21 51.79a1.67 1.67 0 1 1 -1.66 1.67 1.66 1.66 0 0 1 1.66-1.67z"/><path d="m49.21 49a4.43 4.43 0 1 1 -4.43 4.43 4.43 4.43 0 0 1 4.43-4.43m0-1.11a5.54 5.54 0 1 0 5.54 5.54 5.53 5.53 0 0 0 -5.54-5.54z"/></g></g><g clip-path="url(#b)"><path d="m94-48.53 3.18 7.79-.18 2.18 3.9 4.51 2.81 1.77 1.23 1.89 5 .63 2.27 1.58 4.43 1.05 4-.36 2.55 2.2 2.16 1.14 2.5 3.16-5 2.42-5.07 2.33-6.07 5.7-1 .4-2 3.33-3.5 2.22-1.91 2.46-7.59 7.47-3.64-5-5.52-1.8-3 1.36-3.4-1.32-2 .36-1.3-1.63-2.68-5-3.17-7.47 1.34-1.34-.27-5.95 1.49-1.86 5-.41 1.44-4.92-2-2.61-1.13-3.44-1.97-3.31.3-4.69-3-4.65-.2-2.18-2.24-3.48-2.26-4.52-.25-8.17-1.69-2-.43-1.4-4.07-.33-1.6-1.89 1.06-1.6 5.37 1.59 4 3.19 3.45 3.69 7.48 2.44-2.6 2.42-1 1.7-2.73 1.63 1.68 3.63 5.82.4 3.11-1.27 2.81 1.76 5.3 2.21z" fill="#ffd92f"/><path d="m61.06-70.4 4.07.33.43 1.4 1.69 2 .25 8.17 2.26 4.5 2.24 3.48.2 2.18 3 4.65-.3 4.69 2 3.31 1.1 3.44 2 2.61-1.44 4.92-5 .41-1.49 1.86.27 5.95-1.34 1.34 3.17 7.46 2.68 5-3 6.7-2.16 1.58-.4 3-4 3.77-5.92-.86-5.37-2.49-6.8-.33-3.43 3.61-4.2 4.2-8.46-9.11-3.56-3.21-2.65-4.31v-3.06l-1.27-5.56-1.88-.86-1.3-3.29-4.22-2.19-1.58-1.89-4.54-5.18-.87-3.52-2.46-3.78v-2.36l4.35-5.64 6.76-2.52 3.61.24 2.43-2.24.87-3.44 8.54-2.86 2.24-2.42.27-5 3-2.66.59-2 2.78-2.23 5.17-1.88.61-6.78 1.18-.82 9.12 2.61z" fill="#ffd92f"/><path d="m94-48.53 3.18 7.79-.18 2.18 3.9 4.51 2.81 1.77 1.23 1.89 5 .63 2.27 1.58 4.43 1.05 4-.36 2.55 2.2 2.16 1.14 2.5 3.16-5 2.42-5.07 2.33-6.07 5.7-1 .4-2 3.33-3.5 2.22-1.91 2.46-7.59 7.47-3.64-5-5.52-1.8-3 1.36-3.4-1.32-2 .36-1.3-1.63-2.68-5-3.17-7.47 1.34-1.34-.27-5.95 1.49-1.86 5-.41 1.44-4.92-2-2.61-1.13-3.44-1.97-3.31.3-4.69-3-4.65-.2-2.18-2.24-3.48-2.26-4.52-.25-8.17-1.69-2-.43-1.4-4.07-.33-1.6-1.89 1.06-1.6 5.37 1.59 4 3.19 3.45 3.69 7.48 2.44-2.6 2.42-1 1.7-2.73 1.63 1.68 3.63 5.82.4 3.11-1.27 2.81 1.76 5.3 2.21z" fill="none"/><path d="m162.28-93.25 7.39 1.58 2.75-1.33.33-2.34 2.39-1.65 1.57-3.78 3.29 1.3 7.81-.67 6.19 6.69 2.58-1.12.33 3.33-.21 3.14.9 4.59 1.56 3.56 4.13 4.47.92 3.28 4.11 4.12.11 2.82 3 3.38-.22 1.13 2.58 3.28 3.63 1.31.9.93 7.77 9.61 4.06 1.79 1.42 3.16 5.43 2.22 5.83.22 3.37 2.48 2.78.15.73 1.1-1.11.56-5.21 7.23-.55 1.83 2 4.79 3.34 1.43 5.42 7.4 4.85 6.14 2.07-.23 5.13-1.1.44-2.28 6 5.71-3.59 3.41-4.68-1.19-4-.78-4.39 2.92-3.75-1.91-1.14 4.63-4.39 2.94-4.09-.86-3.29 2.37-2.08 2.27-2-1.44-1.59 1.41-2.54 1.8-2 3.68-2.1 1.91-.63 1.74-6.21-6.8-3.49-.54-3.58-3-2.57-4-2.83-1.2-3.67-3.41-5.61 5.8-1.49-2.54-2.38 2.35.66 1.35-2.55 3.11 1.89 4.34.68 2.06-3.49 1.85-.79 2.25-2.55 3.5-4.65-1-2.72-.75-4.48-1.93-5.17-2.89-13.9 13.68-1 2.32-1.43 1.25-1.12 2.58-2.31-1 .63-1.73-2.24-2.53-.78-2.14.58-2.78 1.89-.8-.49-3.53 2.52-2.52 1.89 1.23 2.75-.93-.58-6v-5.36l-.65-3-4.49-4.26-3.18-7.25-.64-5 .37-5.68-1.14-2.16-1.84-2.18-1-2.67-3.45-2.77-4.18-5.51-2.55-4.21-1.41-4.08-3-3.61-3.26-4.24-1.15-4.55.86-4.15 5.62-2.14 5.14-.93 3.82-2.91 4.64-2.44-2-4.61.21-1.13 2.74-1.64 2.44-7.92 3-.41 1.33-1.7-.55-2.19 1.22-2.14 4.08-3 3.11-2.93z" fill="#fc8d62"/><path d="m130.11-42.23 3 3.61 1.41 4.08 2.55 4.21 4.18 5.51 3.43 2.82 1 2.67 1.84 2.18 1.13 2.15-.37 5.68.64 5 3.18 7.25 4.54 4.24.65 3v5.36l.58 6-2.75.93-1.89-1.23-2.52 2.52.49 3.53-1.89.8-3.5-.16-.43 2.26.35 4.41-9.43-2.09.52-6.56-5.41-1.73.31-3.06 2.56-3.83-2-2.72h5.08l4.31-3.76-1-4.08-3.15-4.17-4.71-3.71-5.38-1-4.21-8.23-2.28.08-3.07 4-4-1.66-2-2.62 6.07-5.7 5.07-2.33 5-2.42-2.5-3.16-2.62-7.63-.16-5.51 4.2-2.19z" fill="#66c2a5"/><path d="m103.36-2.13 6.51 6.48-6.82 6.65-1.32 2h-1.66l-4.36-7.66z" fill="none"/><path d="m111.77-10.54 2 2.62 4 1.66 3.07-4 2.28-.08 4.18 8.24 5.38 1 4.71 3.71 3.15 4.17 1 4.08-4.31 3.76h-5.08l2 2.72-2.56 3.83-.31 3.06 5.41 1.73-.52 6.56-10.35-.64-7.5-1.46-8.34-2.64-1.75-2.09-.56-2.69-2.75-5.11-3.19-4.89 1.32-2 6.82-6.64-6.51-6.48 1.91-2.46 3.5-2.22 2-3.33z" fill="#66c2a5"/><path d="m61.06-70.4 4.07.33.43 1.4 1.69 2 .25 8.17 2.26 4.5 2.24 3.48.2 2.18 3 4.65-.3 4.69 2 3.31 1.1 3.44 2 2.61-1.44 4.92-5 .41-1.49 1.86.27 5.95-1.34 1.34 3.17 7.46 2.68 5-3 6.7-2.16 1.58-.4 3-4 3.77-5.92-.86-5.37-2.49-6.8-.33-3.43 3.61-4.2 4.2-8.46-9.11-3.56-3.21-2.65-4.31v-3.06l-1.27-5.56-1.88-.86-1.3-3.29-4.22-2.19-1.58-1.89-4.54-5.18-.87-3.52-2.46-3.78v-2.36l4.35-5.64 6.76-2.52 3.61.24 2.43-2.24.87-3.44 8.54-2.86 2.24-2.42.27-5 3-2.66.59-2 2.78-2.23 5.17-1.88.61-6.78 1.18-.82 9.12 2.61z" fill="none"/><path d="m162.28-93.25 7.39 1.58 2.75-1.33.33-2.34 2.39-1.65 1.57-3.78 3.29 1.3 7.81-.67 6.19 6.69 2.58-1.12.33 3.33-.21 3.14.9 4.59 1.56 3.56 4.13 4.47.92 3.28 4.11 4.12.11 2.82 3 3.38-.22 1.13 2.58 3.28 3.63 1.31.9.93 7.77 9.61 4.06 1.79 1.42 3.16 5.43 2.22 5.83.22 3.37 2.48 2.78.15.73 1.1-1.11.56-5.21 7.23-.55 1.83 2 4.79 3.34 1.43 5.42 7.4 4.85 6.14 2.07-.23 5.13-1.1.44-2.28 6 5.71-3.59 3.41-4.68-1.19-4-.78-4.39 2.92-3.75-1.91-1.14 4.63-4.39 2.94-4.09-.86-3.29 2.37-2.08 2.27-2-1.44-1.59 1.41-2.54 1.8-2 3.68-2.1 1.91-.63 1.74-6.21-6.8-3.49-.54-3.58-3-2.57-4-2.83-1.2-3.67-3.41-5.61 5.8-1.49-2.54-2.38 2.35.66 1.35-2.55 3.11 1.89 4.34.68 2.06-3.49 1.85-.79 2.25-2.55 3.5-4.65-1-2.72-.75-4.48-1.93-5.17-2.89-13.9 13.68-1 2.32-1.43 1.25-1.12 2.58-2.31-1 .63-1.73-2.24-2.53-.78-2.14.58-2.78 1.89-.8-.49-3.53 2.52-2.52 1.89 1.23 2.75-.93-.58-6v-5.36l-.65-3-4.49-4.26-3.18-7.25-.64-5 .37-5.68-1.14-2.16-1.84-2.18-1-2.67-3.45-2.77-4.18-5.51-2.55-4.21-1.41-4.08-3-3.61-3.26-4.24-1.15-4.55.86-4.15 5.62-2.14 5.14-.93 3.82-2.91 4.64-2.44-2-4.61.21-1.13 2.74-1.64 2.44-7.92 3-.41 1.33-1.7-.55-2.19 1.22-2.14 4.08-3 3.11-2.93z" fill="#fc8d62"/><path d="m130.11-42.23 3 3.61 1.41 4.08 2.55 4.21 4.18 5.51 3.43 2.82 1 2.67 1.84 2.18 1.13 2.15-.37 5.68.64 5 3.18 7.25 4.54 4.24.65 3v5.36l.58 6-2.75.93-1.89-1.23-2.52 2.52.49 3.53-1.89.8-3.5-.16-.43 2.26.35 4.41-9.43-2.09.52-6.56-5.41-1.73.31-3.06 2.56-3.83-2-2.72h5.08l4.31-3.76-1-4.08-3.15-4.17-4.71-3.71-5.38-1-4.21-8.23-2.28.08-3.07 4-4-1.66-2-2.62 6.07-5.7 5.07-2.33 5-2.42-2.5-3.16-2.62-7.63-.16-5.51 4.2-2.19z" fill="#66c2a5"/><path d="m103.36-2.13 6.51 6.48-6.82 6.65-1.32 2h-1.66l-4.36-7.66z" fill="none"/><path d="m111.77-10.54 2 2.62 4 1.66 3.07-4 2.28-.08 4.18 8.24 5.38 1 4.71 3.71 3.15 4.17 1 4.08-4.31 3.76h-5.08l2 2.72-2.56 3.83-.31 3.06 5.41 1.73-.52 6.56-10.35-.64-7.5-1.46-8.34-2.64-1.75-2.09-.56-2.69-2.75-5.11-3.19-4.89 1.32-2 6.82-6.64-6.51-6.48 1.91-2.46 3.5-2.22 2-3.33z" fill="#66c2a5"/><path d="m94-48.53 3.18 7.79-.18 2.18 3.9 4.51 2.81 1.77 1.23 1.89 5 .63 2.27 1.58 4.43 1.05 4-.36 2.55 2.2 2.16 1.14 2.5 3.16-5 2.42-5.07 2.33-6.07 5.7-1 .4-2 3.33-3.5 2.22-1.91 2.46-7.59 7.47-3.64-5-5.52-1.8-3 1.36-3.4-1.32-2 .36-1.3-1.63-2.68-5-3.17-7.47 1.34-1.34-.27-5.95 1.49-1.86 5-.41 1.44-4.92-2-2.61-1.13-3.44-1.97-3.31.3-4.69-3-4.65-.2-2.18-2.24-3.48-2.26-4.52-.25-8.17-1.69-2-.43-1.4-4.07-.33-1.6-1.89 1.06-1.6 5.37 1.59 4 3.19 3.45 3.69 7.48 2.44-2.6 2.42-1 1.7-2.73 1.63 1.68 3.63 5.82.4 3.11-1.27 2.81 1.76 5.3 2.21z" fill="none"/><g fill="#fc8d62"><path d="m130.11-42.23 3 3.61 1.41 4.08 2.55 4.21 4.18 5.51 3.43 2.82 1 2.67 1.84 2.18 1.13 2.15-.37 5.68.64 5 3.18 7.25 4.54 4.24.65 3v5.36l.58 6-2.75.93-1.89-1.23-2.52 2.52.49 3.53-1.89.8-3.5-.16-.43 2.26.35 4.41-9.43-2.09.52-6.56-5.41-1.73.31-3.06 2.56-3.83-2-2.72h5.08l4.31-3.76-1-4.08-3.15-4.17-4.71-3.71-5.38-1-4.21-8.23-2.28.08-3.07 4-4-1.66-2-2.62 6.07-5.7 5.07-2.33 5-2.42-2.5-3.16-2.62-7.63-.16-5.51 4.2-2.19z"/><path d="m103.36-2.13 6.51 6.48-6.82 6.65-1.32 2h-1.66l-4.36-7.66z"/><path d="m111.77-10.54 2 2.62 4 1.66 3.07-4 2.28-.08 4.18 8.24 5.38 1 4.71 3.71 3.15 4.17 1 4.08-4.31 3.76h-5.08l2 2.72-2.56 3.83-.31 3.06 5.41 1.73-.52 6.56-10.35-.64-7.5-1.46-8.34-2.64-1.75-2.09-.56-2.69-2.75-5.11-3.19-4.89 1.32-2 6.82-6.64-6.51-6.48 1.91-2.46 3.5-2.22 2-3.33z"/></g><g fill="none"><path d="m61.06-70.4 4.07.33.43 1.4 1.69 2 .25 8.17 2.26 4.5 2.24 3.48.2 2.18 3 4.65-.3 4.69 2 3.31 1.1 3.44 2 2.61-1.44 4.92-5 .41-1.49 1.86.27 5.95-1.34 1.34 3.17 7.46 2.68 5-3 6.7-2.16 1.58-.4 3-4 3.77-5.92-.86-5.37-2.49-6.8-.33-3.43 3.61-4.2 4.2-8.46-9.11-3.56-3.21-2.65-4.31v-3.06l-1.27-5.56-1.88-.86-1.3-3.29-4.22-2.19-1.58-1.89-4.54-5.18-.87-3.52-2.46-3.78v-2.36l4.35-5.64 6.76-2.52 3.61.24 2.43-2.24.87-3.44 8.54-2.86 2.24-2.42.27-5 3-2.66.59-2 2.78-2.23 5.17-1.88.61-6.78 1.18-.82 9.12 2.61z"/><path d="m165.78-51.01-6.52 21.64-13.93 9.07.34.92 1.84 2.18 1.14 2.16-.37 5.68.64 5.03 3.18 7.24 4.54 4.24.64 3.01-.04 5.36.58 6-2.75.93-1.89-1.23-2.52 2.52.49 3.53-1.89.8-.58 2.78.78 2.14 2.2 2.56-.63 1.73 2.31.99 1.12-2.59 1.43-1.25 1.04-2.32 13.86-13.68 5.17 2.89 4.51 1.89 2.73.75 4.65 1.02 2.57-3.48.79-2.25 3.49-1.85-.68-2.06-1.91-4.32 2.58-3.13-.66-1.35 2.35-2.35 1.49 2.54 5.61-5.8 3.6 3.36 2.83 1.2 2.57 4.02 3.58 3.01 3.49.54 6.21 6.8.63-1.73 2.1-1.92 2.04-3.68 2.53-1.8 1.59-1.41 2.04 1.44 2.08-2.27 3.29-2.37 4.09.86 4.39-2.92 1.14-4.63 3.77 1.91 4.39-2.92 3.98.78 4.68 1.19 3.6-3.41-6.03-5.71-.44 2.28-5.13 1.1-2.06.23-4.86-6.14-5.42-7.4-3.34-1.43-1.98-4.79.55-1.83 5.21-7.23 1.11-.56-.73-1.1-2.78-.15-3.37-2.48-5.83-.22-5.46-2.22-1.42-3.16-4.06-1.79-7.77-9.61-.9-.93-3.63-1.31-2.58-3.28.22-1.13-3.02-3.38-.11-2.82-4.11-4.12-.92-3.28-2.28-2.47-17.53 20.45z"/></g></g></svg>