<svg xmlns="http://www.w3.org/2000/svg" xmlns:xlink="http://www.w3.org/1999/xlink" viewBox="0 0 200 100"><defs><style>.cls-1{fill:none;}.cls-2{clip-path:url(#clip-path);}.cls-3{fill:#e3dbd5;}.cls-4{fill:#fed158;}.cls-4,.cls-5,.cls-6,.cls-7{stroke:#fff;stroke-miterlimit:10;stroke-width:1.5px;}.cls-5{fill:#fc2b00;}.cls-6{fill:#b10026;}.cls-7{fill:#fea125;}</style><clipPath id="clip-path"><rect class="cls-1" width="200" height="100"/></clipPath></defs><title>large-6</title><g id="Calque_1" data-name="Calque 1"><g class="cls-2"><polygon class="cls-3" points="69.7 53 66.2 43.8 58 43.8 58.6 47.1 60.7 55.7 53.5 70.7 72.8 100 200 100 200 49.7 86.2 62.7 69.7 53"/><circle class="cls-4" cx="134.23" cy="99.58" r="28.33"/><polygon class="cls-3" points="60.7 55.7 58.6 47.1 58 43.8 49.4 26.7 41.4 22 21.6 39.1 3.9 30.6 0 30.5 0 100 72.8 100 53.5 70.7 60.7 55.7"/><rect class="cls-1" width="200" height="100"/><polygon class="cls-3" points="21.6 39.1 41.4 22 36.9 12.6 36.9 0 0 0 0 30.5 3.9 30.6 21.6 39.1"/><rect class="cls-1" width="200" height="100"/><polygon class="cls-3" points="36.9 0 36.9 12.6 41.4 22 49.4 26.7 58 43.8 66.2 43.8 69.7 53 86.2 62.7 200 49.7 200 0 36.9 0"/><rect class="cls-1" width="200" height="100"/><rect class="cls-1" width="200" height="100"/><circle class="cls-5" cx="16.2" cy="79.8" r="39.1"/><circle class="cls-4" cx="176.23" cy="12.2" r="55.23"/><rect class="cls-1" width="200" height="100"/><circle class="cls-6" cx="40.1" cy="57.4" r="20.2"/><circle class="cls-6" cx="163.49" cy="95.98" r="20.2"/><rect class="cls-1" width="200" height="100"/><circle class="cls-6" cx="16.7" cy="25.7" r="10.5"/><rect class="cls-1" width="200" height="100"/><circle class="cls-7" cx="40.8" cy="22.6" r="5.4"/><rect class="cls-1" width="200" height="100"/><circle class="cls-4" cx="82.9" cy="38.5" r="12.9"/><rect class="cls-1" width="200" height="100"/><circle class="cls-5" cx="76.6" cy="27.3" r="6.8"/><circle class="cls-5" cx="124.45" cy="72.9" r="3.75"/><circle class="cls-5" cx="136.67" cy="89.65" r="3.75"/><circle class="cls-5" cx="146.96" cy="84.43" r="3.75"/><circle class="cls-5" cx="121.56" cy="17.94" r="13.79"/><rect class="cls-1" width="200" height="100"/><circle class="cls-7" cx="76" cy="50.6" r="5.6"/><circle class="cls-7" cx="128.93" cy="32.66" r="5.6"/><rect class="cls-1" width="200" height="100"/><circle class="cls-7" cx="84.1" cy="65.2" r="5.1"/><rect class="cls-1" width="200" height="100"/><circle class="cls-7" cx="82.5" cy="2.9" r="14.1"/><circle class="cls-7" cx="93.73" cy="101.78" r="19.48"/><circle class="cls-7" cx="181.19" cy="77.96" r="14.1"/><rect class="cls-1" width="200" height="100"/><circle class="cls-6" cx="73.7" cy="83.7" r="3.7"/><circle class="cls-6" cx="148.6" cy="61.87" r="5.92"/><circle class="cls-5" cx="187.64" cy="66.48" r="3.75"/><circle class="cls-5" cx="124.75" cy="39.7" r="3.75"/></g></g></svg>