<svg viewBox="0 0 200 100" xmlns="http://www.w3.org/2000/svg" xmlns:xlink="http://www.w3.org/1999/xlink"><clipPath id="a"><path d="m0-141h200v100h-200z"/></clipPath><clipPath id="b"><path d="m0 136.33h200v100h-200z"/></clipPath><clipPath id="c"><path d="m0 0h200v100h-200z"/></clipPath><g clip-path="url(#a)"><path d="m126.73-31.53 5.47-5.3 2.33 2.15 8.47-2.51-2.91-7 4.27-3.24 2.85 1.7.1-5.91-2.31-3.78-2.87-.58.58-3.67 3.61-1.09h1.11v-.5l2.36-.47 4.73 3.23 2.37-1.62 1.11 1.12 1.81 2.18 2.88-.47 3.58 2.7 3.5 4.27 4.15-3.22 1.68 2.17 3.62-1.57 2.35 5.34-3 7 .14.14 3.92 4.2 1.26 1.59v2.67l3 8.1-.59 4.35 3 2.68-.69 3.87.68 2.1-1.29 3.28.61 4.29-1.71 4.33-3.69-1-6.57 5.37-4.31 1.07-1.12-2.19-3.73 4.35-3 2.16-1.17 3.78 2.39 3.81-4.28 2.73-3-.68-5.48 1.1-4.94 4.82v2.12l-5.49-.09-.56-2.72v-.51l1.23-1.07 1.23-.49-2.41-5.51 1.32-6-2.39-1.65 1.25-2.16-4.77-3.37 2.47-3.23-1.72-4.32 4.29-5.32-4.76-2.27 1.24-5.85-2.32-3.88v-2.68l-4.06-1.76-4.22 1.57-4.7-2.79 3-2.68z" fill="#7bccc4"/><path d="m75.88 1.82 6-.83.12-2.69 2-3.18 2.29-11.32 1.29-2.12 4.84-1.33h.6l3.52 1.65 3.2-5.76 2.45-1.58-1.64-4.33 6.69-4.12 9-2.4 3.52 1.19 3.51 2.26 3.46 1.25-.08 3.18-3 2.68 4.7 2.79 4.22-1.57 4.06 1.76v2.68l2.32 3.89-1.24 5.85 4.74 2.23-4.31 5.37 1.72 4.32-2.47 3.23 4.77 3.37-1.25 2.16 2.39 1.65-1.32 6 2.34 5.52-1.23.49-1.23 1.07v.51l.56 2.72h-.61l-3.15 1.12-5.45-1.8-9.07-.21-1.23-2.22-2.46.52-.09 3.18-3.57-.69-2 2.14-2.35-2.85-2.44-.03-2.43 2.11-4.39 3.23-2.91-4-3.1 2.09-4.82-1.86-1.85.51 2-3.21-3-1.73.15-3.86v-.51l-1.17-1.07-1.86-1.27-3.57-.14-1.8-2.27-3.47-2.27-1.18-2.21 2.12-5.3-2.26-3.45z" fill="#e0f3db"/><path d="m47-64 4.7 1.42 2.3 2.27h.51l3.89-5.2 4.77-1.33 3.65-2.55 1.18-.91 3.42 2.3 5.83.85 1.49 6 3.05-2.53 2.32.6 1.65 2.74 2.3 1.25-.79 3.09 2.18 4.34 2.3 1.75v.51l-1.71 2-.08.14 1 4.88-.74 3.73 2.29 2.26 3-1.47 3.33 4.39 1.72 3.9 1.64 4.33-2.45 1.58-3.21 5.66-3.54-1.63h-.6l-4.84 1.33-1.27 2.1-2.29 11.32-2 3.18-.12 2.7-6 .83-.58-.54-1.68-2.85-.48-2.71-5.14-6.21-.36-4.89-5.87-2.47 1 3.32-4.77-.25-3.11 2-4.1-1.9-2.46.95-.33-3.79.84-4.23-3-.83-2.38-.14-1-2.74.06-1-5.26-2-1-2.74 1.75-9 3.19-3.64 2-4.15.72-2.12.13-2.16 2.6-5.26z" fill="#4eb3d3"/><path d="m183.92-56.66 2.35.5 4-2.16 1.26 3.81 4.06 1 1.26 2.73 3.47.49h2.36l2.34-2.18 4.21 1 1.67-2.68 3.64 2.62v2.16l4.08 1.54 3.66 3.26 3.5 1.46 2.35-1 5.36 1.49.65 2.65 6.5-.64 1.35 7 3.05-.08 2.37 2.62-1.08 4.37-1.1.54-3.61 1.68-3 .64-.45 3.28 1.83 1.43-2.23 3.89.76 7.61 3 3.13-2.9 1.74 1.2 3.17-5.36 1.79-1.08 2.13-5.39 2.29-1.8.54-3.09-3.66-3 1.06-2.43-.47-3.06 2.22-1.2 1-2.9 3.89-2.43-.48-.64-3.86h-2.42-.6l-1.28.52-1.81 1.18-1.14-1.1-1.29-1-3.61 2.7-3.57-3.16-4.23-2.79-.6-2.21 1.73-4.36-.63-4.26 1.27-3.27-.68-2.1.67-3.85-3-2.68.59-4.35-3-8.1v-2.68l-1.26-1.59-3.92-4.2-.14-.14 3-7-2.35-5.34-1.84-1.59v-.58l3.53-1.57z" fill="#a8ddb5"/></g><g clip-path="url(#b)"><path d="m3.63 65.11 1.15 4 3.22 1.36 2.4 4.24 6 2.86 20.6 18.32 20.95 19 11.32 10.38-5.27 5.28 2.38 2.21-14.55 4-14.51 4.25-14.5 4-14.46 4.2-1.56 7.45-1.3 5.16-5.39-.32-9.66 4.88-5.45-1.38-6.23 1.07-1 3.21-4.77-1.28-2.61-2.18-6.81-1.11-.56-4.05-3.8-3-2.53-3.37-2.87-2.1-3.72-5.19-2.81-2.36-6.35-3.22.77-3.35-1.79-2.64-2.84-1.76 1-5-.62-3.07.72-3.67-4.14-4.5 7.1-3.24 1.43-2.36 4.63-2.78 8.49-3.52 7.07 2.51 5.06-3 8.67-4.06 7.72-2.19.54-3.49-.53-4.45-5.32-3-1.38-4 .47-5.63 2.26-3.72 7.07-4.87 4.24.73 1.6-1.59 2.42-.58 5.13-3.84z" fill="#ffd92f"/><path d="m193.88 79.74v2.56l-2.48 1.56-3.4.14-5.19-1.23-3.91.25-3.16-.33-6.4 1.81-3.16 3.17-2.32.11-1.42 3.81-5.32.55 2.88 5.14-6.73 4.35-2.7-1.52-6.36-9.61-3.21-3.9-.34-3.15 2.45-4.09-1-5.28 9.33 3.34 6.56 3.37h5.29l11.61-1.53 5.93.31 5.77.47 3.34.5z" fill="#a6d854"/><path d="m191.4 83.86.91 4 1.16 4 1.86 1.14 1.67 1.53 2.81-2.53.53-1.45 2.21-.2 1 2.86 4.71 1.15 4.42.89h3.83l21.69-8.87 4-4 3.43 29.16-5.86 6.22-.3 8-2.76 2.95.32 3-3.19 3.19h-3.7l-2.14 6.47 1 3.6-3.4 2.67-1.65.37-1 1.36-1.61 1.42-10.6 1.27-3.19 3.2h-3.44l-3.07-3-3.28 1.45-8.81-2.91-3.31.76-3.08-1.32-5.06-.25-3.22 2.49-1.6-4.48 2.42-2.6-1.1-2.4-4.22-4-.66-.63-4.59-6.95.67-3.59-1.77-2.63-2.25-6v-5.49l-3.59-6.86-4.29-5.24 6.7-4.33-2.88-5.19 5.32-.55 1.42-3.81 2.32-.11 3.16-3.17 6.4-1.81 3.16.33 3.91-.25 5.19 1.28z" fill="#66c2a5"/><path d="m3.63 65.11 1.15 4 3.22 1.36 2.4 4.24 6 2.86 20.6 18.32 20.95 19 11.32 10.38-5.27 5.28 2.38 2.21-14.55 4-14.51 4.25-14.5 4-14.46 4.2-1.56 7.45-1.3 5.16-5.39-.32-9.66 4.88-5.45-1.38-6.23 1.07-1 3.21-4.77-1.28-2.61-2.18-6.81-1.11-.56-4.05-3.8-3-2.53-3.37-2.87-2.1-3.72-5.19-2.81-2.36-6.35-3.22.77-3.35-1.79-2.64-2.84-1.76 1-5-.62-3.07.72-3.67-4.14-4.5 7.1-3.24 1.43-2.36 4.63-2.78 8.49-3.52 7.07 2.51 5.06-3 8.67-4.06 7.72-2.19.54-3.49-.53-4.45-5.32-3-1.38-4 .47-5.63 2.26-3.72 7.07-4.87 4.24.73 1.6-1.59 2.42-.58 5.13-3.84z" fill="none"/><path d="m153.28 101.63 4.29 5.24 3.59 6.86v5.49l2.25 6 1.77 2.63-.67 3.59 4.59 6.95.66.63-.86.49-2.72-2.59-2.39-1.28-4.6.21-4.63-3.06-3.49-4.58-2.54 1.79.9 1.49-2.56 3.1 2.87.43 3.54 2.69.6 5.45 1.7 6.18-1.69 3-7.13.72-.76 2.94 1.09 2-1.31 3.33 1 1.24-4.69 4.69-1.62-.57-3.47 3.25-.84 2.48-1.8.89-5.52-.7-2.43-.69-2.51 4.15 1.19 3.76 3.77 5.94-.65 2.67-.79 1.88-.61.06-3.16.24-2.11-1.38-1.4-3-2.24-2.16-6.13-.65-2.93-1.83-1.31-1.25-3.26.14-3.35-2.88-3.08-1.32-1.3 2-1.45-2.29-1.17-3.4-2.85-1.74-.19-3.11-2.23-.16-2.31-4.47-1.9-6 4.37-3.63-22.48-20.73-2.33-2.21 5.28-5.28-11.37-10.38 9.09-9.27 9.28-9.14 8.73-8.85 8.89-8.73 9-9.1 9.11-9 7.16 3.5.09 1.94 6.51 4.52 8.72 4.32 3.11-.35 4.53-.67 1 5.28-2.45 4.09.32 3.17 3.26 3.9 6.36 9.61z" fill="#a6d854"/><g fill="none"><path d="m193.88 79.74v2.56l-2.48 1.56-3.4.14-5.19-1.23-3.91.25-3.16-.33-6.4 1.81-3.16 3.17-2.32.11-1.42 3.81-5.32.55 2.88 5.14-6.73 4.35-2.7-1.52-6.36-9.61-3.21-3.9-.34-3.15 2.45-4.09-1-5.28 9.33 3.34 6.56 3.37h5.29l11.61-1.53 5.93.31 5.77.47 3.34.5z"/><path d="m191.4 83.86.91 4 1.16 4 1.86 1.14 1.67 1.53 2.81-2.53.53-1.45 2.21-.2 1 2.86 4.71 1.15 4.42.89h3.83l21.69-8.87 4-4 3.43 29.16-5.86 6.22-.3 8-2.76 2.95.32 3-3.19 3.19h-3.7l-2.14 6.47 1 3.6-3.4 2.67-1.65.37-1 1.36-1.61 1.42-10.6 1.27-3.19 3.2h-3.44l-3.07-3-3.28 1.45-8.81-2.91-3.31.76-3.08-1.32-5.06-.25-3.22 2.49-1.6-4.48 2.42-2.6-1.1-2.4-4.22-4-.66-.63-4.59-6.95.67-3.59-1.77-2.63-2.25-6v-5.49l-3.59-6.86-4.29-5.24 6.7-4.33-2.88-5.19 5.32-.55 1.42-3.81 2.32-.11 3.16-3.17 6.4-1.81 3.16.33 3.91-.25 5.19 1.28z"/><path d="m153.28 101.63 4.29 5.24 3.59 6.86v5.49l2.25 6 1.77 2.63-.67 3.59 4.59 6.95.66.63-.86.49-2.72-2.59-2.39-1.28-4.6.21-4.63-3.06-3.49-4.58-2.54 1.79.9 1.49-2.56 3.1 2.87.43 3.54 2.69.6 5.45 1.7 6.18-1.69 3-7.13.72-.76 2.94 1.09 2-1.31 3.33 1 1.24-4.69 4.69-1.62-.57-3.47 3.25-.84 2.48-1.8.89-5.52-.7-2.43-.69-2.51 4.15 1.19 3.76 3.77 5.94-.65 2.67-.79 1.88-.61.06-3.16.24-2.11-1.38-1.4-3-2.24-2.16-6.13-.65-2.93-1.83-1.31-1.25-3.26.14-3.35-2.88-3.08-1.32-1.3 2-1.45-2.29-1.17-3.4-2.85-1.74-.19-3.11-2.23-.16-2.31-4.47-1.9-6 4.37-3.63-22.48-20.73-2.33-2.21 5.28-5.28-11.37-10.38 9.09-9.27 9.28-9.14 8.73-8.85 8.89-8.73 9-9.1 9.11-9 7.16 3.5.09 1.94 6.51 4.52 8.72 4.32 3.11-.35 4.53-.67 1 5.28-2.45 4.09.32 3.17 3.26 3.9 6.36 9.61z"/><path d="m193.88 79.74v2.56l-2.48 1.56-3.4.14-5.19-1.23-3.91.25-3.16-.33-6.4 1.81-3.16 3.17-2.32.11-1.42 3.81-5.32.55 2.88 5.14-6.73 4.35-2.7-1.52-6.36-9.61-3.21-3.9-.34-3.15 2.45-4.09-1-5.28 9.33 3.34 6.56 3.37h5.29l11.61-1.53 5.93.31 5.77.47 3.34.5z"/><path d="m191.4 83.86.91 4 1.16 4 1.86 1.14 1.67 1.53 2.81-2.53.53-1.45 2.21-.2 1 2.86 4.71 1.15 4.42.89h3.83l21.69-8.87 4-4 3.43 29.16-5.86 6.22-.3 8-2.76 2.95.32 3-3.19 3.19h-3.7l-2.14 6.47 1 3.6-3.4 2.67-1.65.37-1 1.36-1.61 1.42-10.6 1.27-3.19 3.2h-3.44l-3.07-3-3.28 1.45-8.81-2.91-3.31.76-3.08-1.32-5.06-.25-3.22 2.49-1.6-4.48 2.42-2.6-1.1-2.4-4.22-4-.66-.63-4.59-6.95.67-3.59-1.77-2.63-2.25-6v-5.49l-3.59-6.86-4.29-5.24 6.7-4.33-2.88-5.19 5.32-.55 1.42-3.81 2.32-.11 3.16-3.17 6.4-1.81 3.16.33 3.91-.25 5.19 1.28z"/><path d="m3.63 65.11 1.15 4 3.22 1.36 2.4 4.24 6 2.86 20.6 18.32 20.95 19 11.32 10.38-5.27 5.28 2.38 2.21-14.55 4-14.51 4.25-14.5 4-14.46 4.2-1.56 7.45-1.3 5.16-5.39-.32-9.66 4.88-5.45-1.38-6.23 1.07-1 3.21-4.77-1.28-2.61-2.18-6.81-1.11-.56-4.05-3.8-3-2.53-3.37-2.87-2.1-3.72-5.19-2.81-2.36-6.35-3.22.77-3.35-1.79-2.64-2.84-1.76 1-5-.62-3.07.72-3.67-4.14-4.5 7.1-3.24 1.43-2.36 4.63-2.78 8.49-3.52 7.07 2.51 5.06-3 8.67-4.06 7.72-2.19.54-3.49-.53-4.45-5.32-3-1.38-4 .47-5.63 2.26-3.72 7.07-4.87 4.24.73 1.6-1.59 2.42-.58 5.13-3.84z"/><path d="m153.28 101.63 4.29 5.24 3.59 6.86v5.49l2.25 6 1.77 2.63-.67 3.59 4.59 6.95.66.63-.86.49-2.72-2.59-2.39-1.28-4.6.21-4.63-3.06-3.49-4.58-2.54 1.79.9 1.49-2.56 3.1 2.87.43 3.54 2.69.6 5.45 1.7 6.18-1.69 3-7.13.72-.76 2.94 1.09 2-1.31 3.33 1 1.24-4.69 4.69-1.62-.57-3.47 3.25-.84 2.48-1.8.89-5.52-.7-2.43-.69-2.51 4.15 1.19 3.76 3.77 5.94-.65 2.67-.79 1.88-.61.06-3.16.24-2.11-1.38-1.4-3-2.24-2.16-6.13-.65-2.93-1.83-1.31-1.25-3.26.14-3.35-2.88-3.08-1.32-1.3 2-1.45-2.29-1.17-3.4-2.85-1.74-.19-3.11-2.23-.16-2.31-4.47-1.9-6 4.37-3.63-22.48-20.73-2.33-2.21 5.28-5.28-11.37-10.38 9.09-9.27 9.28-9.14 8.73-8.85 8.89-8.73 9-9.1 9.11-9 7.16 3.5.09 1.94 6.51 4.52 8.72 4.32 3.11-.35 4.53-.67 1 5.28-2.45 4.09.32 3.17 3.26 3.9 6.36 9.61z"/></g></g><g clip-path="url(#c)"><path d="m44.3 60.7 8.6-2.1 3.3-.6 17.1-8.6 4.7-8-17.1-19.8 8.5-17.7.1-3.9h-69.5v72.8l29.3-19.3z" fill="#e3dbd5"/><path d="m60.9 21.6 17.1 19.8 9.4-4.5h112.6v-36.9h-130.5l-.1 3.9z" fill="#e3dbd5"/><path d="m200 36.9h-112.6l-9.4 4.5-4.7 8-17.1 8.6v8.2l-9.2 3.5-9.7 16.5 13 13.8h149.7z" fill="#e3dbd5"/><path d="m47 69.7 9.2-3.5v-8.2l-3.3.6-8.6 2.1-15-7.2-29.3 19.3v27.2h50.3l-13-13.8z" fill="#e3dbd5"/><g fill="#2b8cbe"><path d="m34.9 72.1-6.8-14.8a1.57 1.57 0 0 0 -1.4-.9 1.51 1.51 0 0 0 -1.4.9l-6.8 14.8a1.39 1.39 0 0 0 .1 1.4 1.71 1.71 0 0 0 1.3.7h13.5a1.71 1.71 0 0 0 1.3-.7 1.37 1.37 0 0 0 .2-1.4z"/><path d="m47.4 59.2-6.8-14.8a1.57 1.57 0 0 0 -1.4-.9 1.51 1.51 0 0 0 -1.4.9l-6.8 14.8a1.39 1.39 0 0 0 .1 1.4 1.71 1.71 0 0 0 1.3.7h13.6a1.71 1.71 0 0 0 1.3-.7 1.69 1.69 0 0 0 .1-1.4z"/><path d="m55.4 84.7-6.8-14.8a1.57 1.57 0 0 0 -1.4-.9 1.51 1.51 0 0 0 -1.4.9l-6.8 14.8a1.39 1.39 0 0 0 .1 1.4 1.71 1.71 0 0 0 1.3.7h13.6a1.71 1.71 0 0 0 1.3-.7 1.69 1.69 0 0 0 .1-1.4z"/><path d="m150.21 22.51-6.8-14.8a1.57 1.57 0 0 0 -1.4-.9 1.51 1.51 0 0 0 -1.4.9l-6.8 14.8a1.39 1.39 0 0 0 .1 1.4 1.71 1.71 0 0 0 1.3.7h13.6a1.71 1.71 0 0 0 1.3-.7 1.69 1.69 0 0 0 .1-1.4z"/><path d="m134.9 6.92-6.8-14.8a1.57 1.57 0 0 0 -1.4-.9 1.51 1.51 0 0 0 -1.4.9l-6.8 14.8a1.39 1.39 0 0 0 .1 1.4 1.71 1.71 0 0 0 1.3.7h13.6a1.71 1.71 0 0 0 1.3-.7 1.69 1.69 0 0 0 .1-1.4z"/><path d="m63 51.7-6.8-14.8a1.42 1.42 0 0 0 -1.3-.9 1.51 1.51 0 0 0 -1.4.9l-6.7 14.8a1.39 1.39 0 0 0 .1 1.4 1.71 1.71 0 0 0 1.3.7h13.5a1.4 1.4 0 0 0 1.3-2.1z"/></g><g fill="#66a61e"><path d="m23.1 31.2-4.3-4.3-4.2 4.3-2.1-2.2 4.2-4.2-4.2-4.2 2.1-2.2 4.2 4.3 4.3-4.3 2.1 2.2-4.3 4.2 4.3 4.2z"/><path d="m30.5 47.7-4.2-4.2-4.2 4.2-2.2-2.1 4.3-4.2-4.3-4.3 2.2-2.1 4.2 4.2 4.2-4.2 2.1 2.1-4.2 4.3 4.2 4.2z"/><path d="m30.9 24.1-2.1-2.2 4.3-4.2-4.3-4.2 2.2-2.2 4.2 4.3 4.2-4.2 2.1 2.1-4.2 4.2 4.3 4.2-2.2 2.2-4.2-4.3z"/><path d="m16.7 16.6-2.1-2.2 4.2-4.2-4.2-4.2 2.1-2.2 4.3 4.3 4.2-4.2 2.1 2.1-4.2 4.2 4.2 4.2-2.1 2.2-4.2-4.3z"/><path d="m83.4 90.9-4.3-4.2-4.2 4.2-2.1-2.1 4.2-4.3-4.2-4.2 2.1-2.1 4.2 4.2 4.3-4.2 2.1 2.1-4.2 4.2 4.2 4.3z"/><path d="m98.85 97.28-4.3-4.2-4.2 4.2-2.1-2.1 4.2-4.3-4.2-4.2 2.1-2.1 4.2 4.2 4.3-4.2 2.1 2.1-4.2 4.2 4.2 4.3z"/><path d="m103.52 84.56-4.3-4.2-4.2 4.2-2.1-2.1 4.2-4.3-4.2-4.2 2.1-2.1 4.2 4.2 4.3-4.2 2.1 2.1-4.2 4.2 4.2 4.3z"/><path d="m123.45 72.14-4.3-4.2-4.2 4.2-2.1-2.09 4.2-4.3-4.2-4.2 2.1-2.1 4.2 4.2 4.3-4.2 2.1 2.1-4.2 4.2 4.2 4.3z"/><path d="m138.71 58.59-4.3-4.2-4.2 4.2-2.11-2.1 4.21-4.3-4.21-4.2 2.11-2.1 4.2 4.2 4.3-4.2 2.1 2.1-4.21 4.2 4.21 4.3z"/><path d="m143.41 74.2-4.29-4.2-4.21 4.2-2.1-2.1 4.2-4.3-4.2-4.2 2.1-2.1 4.21 4.2 4.29-4.2 2.1 2.1-4.2 4.2 4.2 4.3z"/><path d="m205.98 25.44-4.3-4.2-4.2 4.2-2.1-2.1 4.2-4.3-4.2-4.2 2.1-2.1 4.2 4.2 4.3-4.2 2.1 2.1-4.2 4.2 4.2 4.3z"/><path d="m196.32 41.35-4.3-4.2-4.2 4.2-2.1-2.1 4.2-4.3-4.2-4.2 2.1-2.1 4.2 4.2 4.3-4.2 2.1 2.1-4.2 4.2 4.2 4.3z"/><path d="m145.51 86.6-4.29-4.2-4.21 4.2-2.1-2.1 4.21-4.3-4.21-4.2 2.1-2.1 4.21 4.2 4.29-4.2 2.11 2.1-4.21 4.2 4.21 4.3z"/></g><g fill="#e7298a"><circle cx="6.5" cy="92.5" r="2.3"/><circle cx="6.7" cy="86.6" r="2.3"/><circle cx="13.5" cy="89.8" r="2.3"/><circle cx="182.42" cy="58.3" r="2.3"/><circle cx="184.65" cy="66.27" r="2.3"/><circle cx="182.08" cy="70.7" r="2.3"/><circle cx="187.53" cy="68.74" r="2.3"/><circle cx="189.28" cy="79.96" r="2.3"/><circle cx="167.79" cy="34.72" r="2.3"/><circle cx="166.99" cy="22.57" r="2.3"/><circle cx="160.54" cy="16.38" r="2.3"/><circle cx="164.38" cy="15.72" r="2.3"/><circle cx="176.21" cy="20.47" r="2.3"/><circle cx="174.18" cy="84.13" r="2.3"/><circle cx="12.8" cy="83.7" r="2.3"/><circle cx="8.9" cy="78.3" r="2.3"/><circle cx="5.4" cy="70.2" r="2.3"/><circle cx="25.1" cy="83.5" r="2.3"/><circle cx="34" cy="88.9" r="2.3"/><circle cx="39" cy="92.8" r="2.3"/><circle cx="77.3" cy="42.1" r="2.3"/><circle cx="80.9" cy="47.3" r="2.3"/><circle cx="75.1" cy="50.2" r="2.3"/><circle cx="73.2" cy="57" r="2.3"/><circle cx="79.3" cy="55.2" r="2.3"/><circle cx="139.7" cy="98.67" r="2.3"/><circle cx="146.71" cy="96.37" r="2.3"/><circle cx="163.4" cy="85.8" r="2.3"/><circle cx="160.54" cy="94.07" r="2.3"/><circle cx="158.24" cy="96.37" r="2.3"/><circle cx="170.26" cy="98.91" r="2.3"/><circle cx="166.68" cy="95.1" r="2.3"/><circle cx="167.96" cy="89.1" r="2.3"/><circle cx="92.2" cy="39.4" r="2.3"/><circle cx="95.9" cy="44.7" r="2.3"/><circle cx="107.23" cy="44.11" r="2.3"/><circle cx="104.16" cy="39.51" r="2.3"/><circle cx="121.82" cy="55.05" r="2.3"/><circle cx="89.9" cy="44.8" r="2.3"/><circle cx="95.5" cy="41.2" r="2.3"/><circle cx="96.9" cy="34.7" r="2.3"/><circle cx="93.8" cy="26.9" r="2.3"/><circle cx="93.8" cy="17.9" r="2.3"/><circle cx="87.3" cy="51.5" r="2.3"/><circle cx="157.95" cy="72.38" r="2.3"/><circle cx="159.08" cy="66.02" r="2.3"/><circle cx="163.4" cy="70.19" r="2.3"/><circle cx="156.89" cy="68.78" r="2.3"/><circle cx="151.31" cy="72.38" r="2.3"/><circle cx="169.97" cy="67.29" r="2.3"/><circle cx="198.62" cy="55.47" r="2.3"/><circle cx="192.04" cy="52.57" r="2.3"/></g><path d="m6 11.3 2.2-2.2-4.3-4.2 4.3-4.2-.7-.7h-2.9l-2.8 2.8-1.8-1.8v7.9l1.8-1.9z" fill="#66a61e"/><path d="m1.8 89.8a2.3 2.3 0 0 0 0-4.6 2.14 2.14 0 0 0 -1.8.9v2.9a2.34 2.34 0 0 0 1.8.8z" fill="#e7298a"/></g></svg>