<svg xmlns="http://www.w3.org/2000/svg" viewBox="0 0 284.15 73.09"><defs><style>.cls-1{fill:#b3b3b3;}</style></defs><path class="cls-1" d="M4.93 32.7s4.66 4.54 10.72 4.54c3.27 0 6.24-1.7 6.24-5.21 0-7.69-20.29-6.36-20.29-19.56C1.6 5.33 7.77 0 16 0c8.48 0 12.84 4.6 12.84 4.6L25.46 11a15.7 15.7 0 0 0-9.51-3.75c-3.63 0-6.48 2.12-6.48 5.15 0 7.63 20.23 5.75 20.23 19.5 0 6.84-5.21 12.6-14.17 12.6A20.82 20.82 0 0 1 .69 38.58zM47.77 15.23c7.26 0 10.7 4.15 10.7 4.15l-3.06 4.75a10.92 10.92 0 0 0-7.26-3 8.27 8.27 0 0 0-8.46 8.63 8.48 8.48 0 0 0 8.68 8.73c4.69 0 8.19-3.55 8.19-3.55l2.68 4.91a15.86 15.86 0 0 1-11.46 4.53c-9.23 0-15.12-6.5-15.12-14.58 0-7.92 5.9-14.58 15.12-14.58M63.33 5h6.88v6.17h-6.88zm0 10.92h6.93v27.8h-6.93zM89 15.23c8 0 12.34 5.84 12.34 13.21 0 .82-.16 2.68-.16 2.68H81.95c.44 4.86 4.2 7.37 8.35 7.37a13.76 13.76 0 0 0 8-3.06l2.67 5a17.39 17.39 0 0 1-11.19 4c-9.23 0-15-6.66-15-14.58 0-8.57 5.84-14.57 14.14-14.57m5.35 11.13c-.11-3.77-2.46-5.79-5.51-5.79-3.55 0-6 2.18-6.66 5.79zM106 15.88h6.66v3.22a17.13 17.13 0 0 1-.11 1.91h.11a10.8 10.8 0 0 1 9.88-5.79c6.17 0 9.66 3.22 9.66 10.59v17.9h-6.88V27.24c0-3.38-.87-5.68-4.42-5.68a7.68 7.68 0 0 0-7.48 5.68 11.75 11.75 0 0 0-.49 3.71v12.77H106zM151.45 15.23c7.26 0 10.7 4.15 10.7 4.15l-3.06 4.75a10.92 10.92 0 0 0-7.26-3 8.27 8.27 0 0 0-8.46 8.63 8.47 8.47 0 0 0 8.63 8.72c4.7 0 8.19-3.55 8.19-3.55l2.67 4.91a15.86 15.86 0 0 1-11.46 4.53c-9.23 0-15.12-6.5-15.12-14.58 0-7.92 5.89-14.58 15.12-14.58M179.18 15.23c8 0 12.34 5.84 12.34 13.21 0 .82-.16 2.68-.16 2.68h-19.22c.44 4.86 4.2 7.37 8.35 7.37a13.75 13.75 0 0 0 8-3.06l2.67 5a17.39 17.39 0 0 1-11.19 4c-9.23 0-15-6.66-15-14.58 0-8.57 5.84-14.57 14.14-14.57m5.35 11.13c-.11-3.77-2.46-5.79-5.51-5.79-3.55 0-6 2.18-6.66 5.79zM198.07 35.43a11.64 11.64 0 0 0 7.59 3.06c2 0 3.66-.87 3.66-2.51 0-4.15-13.54-3.6-13.54-12.56 0-5.19 4.64-8.19 10.64-8.19 6.28 0 9.33 3.17 9.33 3.17l-2.57 5.13a10.57 10.57 0 0 0-6.82-2.4c-1.8 0-3.55.76-3.55 2.51 0 3.93 13.54 3.44 13.54 12.39 0 4.64-4 8.35-10.64 8.35a15.57 15.57 0 0 1-10.81-4.09zM222.47.73h16.59c8.05 0 13.69 5.63 13.69 14s-5.63 14.17-13.69 14.17h-8.78v14.82h-7.81zm15.14 21.37c4.54 0 7.21-2.91 7.21-7.39s-2.66-7.27-7.09-7.27h-7.45V22.1zM268.81 15.23c8.52 0 15.34 6.06 15.34 14.58s-6.82 14.58-15.29 14.58-15.34-6-15.34-14.58 6.82-14.58 15.29-14.58m.05 23.25c4.48 0 8.24-3.49 8.24-8.68a8.28 8.28 0 1 0-16.54 0 8.29 8.29 0 0 0 8.3 8.68M9.28 69H4.05l-1.26 3.84H0l5.25-14.91h2.83l5.25 14.91h-2.79zm-2.62-8.5S6.32 62 6 62.82l-1.32 4h3.93l-1.32-4C7 62 6.7 60.51 6.7 60.51zM17.47 60.26h-4.89v-2.33h12.49v2.33h-4.89v12.58h-2.71zM27 57.93h9v2.33h-6.24v3.9h5v2.34h-5v4h6.55v2.33H27zM39.12 57.93h2.71v12.58h6.45v2.33h-9.16zM50.44 57.93h2.71v14.91h-2.71zM56.93 57.93h8.92v2.33h-6.21v3.9h5v2.34h-5v4h6.55v2.33h-9.26zM69 57.93h4.81a6.93 6.93 0 0 1 3 .42 4.21 4.21 0 0 1 2.44 4.07 4.29 4.29 0 0 1-2.52 4.07 3.65 3.65 0 0 1 .5.73l3.07 5.56h-3l-3-5.56h-2.6v5.56H69zm5.14 7a2.16 2.16 0 0 0 2.35-2.35c0-1.43-.61-2.31-2.73-2.31h-2.05v4.66zM87.93 57.93H93c4.6 0 7.6 2.73 7.6 7.43s-3 7.47-7.6 7.47h-5.07zm4.93 12.58c3 0 5-1.79 5-5.14s-2-5.1-5-5.1h-2.23v10.24zM103.44 57.93h8.92v2.33h-6.21v3.9h5v2.34h-5v4h6.55v2.33h-9.26zM127.26 57.68a7.71 7.71 0 0 1 5.5 2l-1.3 2a6.57 6.57 0 0 0-4.07-1.57 4.86 4.86 0 0 0-5 5.12 5 5 0 0 0 5 5.33 6.42 6.42 0 0 0 4.33-1.89l1.43 2a8 8 0 0 1-5.86 2.41 7.71 7.71 0 0 1 0-15.41zM143.07 69h-5.23l-1.26 3.82h-2.79L139 57.93h2.83l5.25 14.91h-2.79zm-2.62-8.5s-.34 1.47-.63 2.31l-1.32 4h3.91l-1.32-4c-.27-.84-.59-2.31-.59-2.31zM149 57.93h4.81a6.94 6.94 0 0 1 3 .42 4.21 4.21 0 0 1 2.44 4.07 4.29 4.29 0 0 1-2.52 4.07 3.7 3.7 0 0 1 .5.73l3.06 5.56h-3l-3-5.56h-2.6v5.56H149zm5.14 7a2.16 2.16 0 0 0 2.35-2.35c0-1.43-.61-2.31-2.73-2.31h-2.06v4.66zM165.94 60.26H161v-2.33h12.49v2.33h-4.89v12.58h-2.71zM182.07 57.68a7.53 7.53 0 0 1 7.7 7.6 7.71 7.71 0 1 1-15.41 0 7.53 7.53 0 0 1 7.71-7.6zm0 12.93a5.05 5.05 0 0 0 4.93-5.33 4.92 4.92 0 1 0-9.83 0 5.05 5.05 0 0 0 4.9 5.33zM199.2 57.68a8.12 8.12 0 0 1 5.54 1.89l-1.34 2a6.42 6.42 0 0 0-4-1.43 4.83 4.83 0 0 0-5.12 5.12 5 5 0 0 0 5 5.33 5.61 5.61 0 0 0 3.72-1.53v-1.75h-2.29V65h4.72v7.85h-2.31v-.71-.63a6.32 6.32 0 0 1-4.33 1.6 7.34 7.34 0 0 1-7.31-7.73 7.52 7.52 0 0 1 7.72-7.7zM208.49 57.93h4.81a6.93 6.93 0 0 1 3 .42 4.21 4.21 0 0 1 2.44 4.07 4.29 4.29 0 0 1-2.52 4.07 3.65 3.65 0 0 1 .5.73l3.07 5.56h-3l-3-5.56h-2.6v5.56h-2.71zm5.14 7a2.16 2.16 0 0 0 2.37-2.36c0-1.43-.61-2.31-2.73-2.31h-2.06v4.66zM229.72 69h-5.23l-1.26 3.82h-2.79l5.25-14.91h2.83l5.25 14.91H231zm-2.62-8.5s-.34 1.47-.63 2.31l-1.32 4H229l-1.32-4c-.27-.84-.59-2.31-.59-2.31zM235.68 57.93h5.75a4.57 4.57 0 0 1 4.74 4.85 4.62 4.62 0 0 1-4.74 4.91h-3v5.14h-2.71zm5.25 7.41a2.34 2.34 0 0 0 2.5-2.56 2.31 2.31 0 0 0-2.43-2.52h-2.58v5.08zM248.57 57.93h2.71v6.32h6.82v-6.32h2.71v14.91h-2.71v-6.26h-6.82v6.26h-2.71zM264.6 57.93h2.71v14.91h-2.71zM271.09 57.93H280v2.33h-6.21v3.9h5v2.34h-5v4h6.55v2.33h-9.26z"/></svg>