<svg version="1.1" id="Calque_2" xmlns="http://www.w3.org/2000/svg" xmlns:xlink="http://www.w3.org/1999/xlink" x="0px" y="0px"
	 viewBox="0 0 17 17" style="enable-background:new 0 0 17.7 17.7;" xml:space="preserve">
<path d=" M 8.5 2.25 Q 8.759 2.25 8.942 2.433 Q 9.125 2.616 9.125 2.875 L 9.125 7.875 L 14.125 7.875 Q 14.384 7.875 14.567 8.058 Q 14.75 8.241 14.75 8.5 Q 14.75 8.759 14.567 8.942 Q 14.384 9.125 14.125 9.125 L 9.125 9.125 L 9.125 14.125 Q 9.125 14.384 8.942 14.567 Q 8.759 14.75 8.5 14.75 Q 8.241 14.75 8.058 14.567 Q 7.875 14.384 7.875 14.125 L 7.875 9.125 L 2.875 9.125 Q 2.616 9.125 2.433 8.942 Q 2.25 8.759 2.25 8.5 Q 2.25 8.241 2.433 8.058 Q 2.616 7.875 2.875 7.875 L 7.875 7.875 L 7.875 2.875 Q 7.875 2.616 8.058 2.433 Q 8.241 2.25 8.5 2.25 Z " fill="rgb(0,0,0)"/><path d=" M 16.952 8.5 C 16.952 3.82 13.132 0 8.452 0 C 3.772 0 0.048 3.82 0.048 8.5 C 0.048 13.18 3.868 17 8.548 17 C 13.228 17 16.952 13.18 16.952 8.5 Z  M 15.997 8.5 C 15.997 12.607 12.654 16.045 8.452 16.045 C 4.25 16.045 1.003 12.607 1.003 8.5 C 1.003 4.393 4.346 0.955 8.548 0.955 C 12.75 0.955 15.997 4.298 15.997 8.5 Z " fill="rgb(0,0,0)"/>
</svg>