<svg xmlns="http://www.w3.org/2000/svg" viewBox="0 0 20 20"><path d="M18.46,9.93A10.14,10.14,0,0,0,9.95,5.17H9.62l-.51-2.4-.78.17.49,2.29A9.9,9.9,0,0,0,1.54,9.9a9.3,9.3,0,0,0,1.46,2L2.59,9.94v0a5.7,5.7,0,0,1,.5-.67l.72,3.36a9.75,9.75,0,0,0,1,.73l-1-4.8a9,9,0,0,1,.69-.59l1.26,5.93a9,9,0,0,0,.9.39L5.14,7.45c.24-.15.49-.29.76-.42l1.6,7.52q.41.1.85.17l-.61-2.86a2.93,2.93,0,0,0,1,.79l.46,2.16.58,0H10L9.64,12.9l.36,0a2.93,2.93,0,0,0,.45,0l.92,4.34.78-.17-.51-2.4A10.91,10.91,0,0,0,18.46,9.93ZM7.19,9.22,6.65,6.7c.25-.1.52-.18.8-.26l.35,1.65A2.91,2.91,0,0,0,7.19,9.22ZM8.49,7.5,8.22,6.26c.25,0,.52-.08.79-.11l.22,1A2.9,2.9,0,0,0,8.49,7.5ZM10,7.08l-.21-1H10l.56,0a3.92,3.92,0,0,1,.91,7.49l-.2-1A2.92,2.92,0,0,0,10,7.08Zm3.44,6.06a4.76,4.76,0,0,0-.11-6.41,8.86,8.86,0,0,1,4.07,3.21A9.56,9.56,0,0,1,13.47,13.15Z"/></svg>
