<svg xmlns="http://www.w3.org/2000/svg" viewBox="0 0 1792 1792"><path d="M1668.7 956.4c.9 1.5 2.4 4.1 3.4 8.5l.9 3.5-1.6 8.7c-1.4 7.4-2.5 10-2.5 10-184 303.1-467.2 477.1-777.3 477.1-79.1 0-156.4-11.7-230.5-33.7l-93.4 91.2c102.7 38.3 211.3 60.3 324 60.3 352.1 0 672.1-194.6 878-533.7 9.4-15.8 14.7-33 17.7-50.8 6.9-10.6 5.8-51.6-1.4-62.5-3.7-13.5-9-27-16.4-39.3C1700 781 1610.1 684 1506 607.3l-86.4 84.2c98.8 69.4 184.5 158.2 249.1 264.9zM123.4 986.9c0-.1-1.2-2.5-2.5-10l-1.6-8.2 1.2-4.6c.7-2.6 1.6-4.8 2.9-7.1 158-269 445.3-429.6 768.9-429.6 83.3 0 164.3 11.1 241.5 31.6l95.3-92.8c-106.2-35.8-219.2-56.4-336.7-56.4-365.7 0-691.2 182.3-870.7 487.8-6.9 11.8-12 24.1-15.2 36.9-7.3 11-8.5 53.1-1.5 63.9 3.2 16.7 8 32.9 16.8 47.9 77 131 171.6 239.9 278.5 325l85.9-83.6c-101.1-77.4-190.6-177.9-262.8-300.8zm10.4 804c-13.4 0-26.9-5.2-37-15.6-19.9-20.4-19.5-53.1.9-73.1L1623.2 215.4c20.4-19.9 53.1-19.5 73.1.9 19.9 20.4 19.5 53.2-1 73.1L169.8 1776.2c-10 9.8-23 14.7-36 14.7z"/></svg>