<svg xmlns="http://www.w3.org/2000/svg" viewBox="0 0 1792 1792"><path d="M1785.3 934.3c-3.4-13.8-8.7-27.4-16.4-40-184.5-309.3-512.5-493.9-877.5-493.9-365.8 0-691.2 185.3-870.7 495.7-7 12-12 24.5-15.4 37.5-7.2 11.5-8.2 54.1-1.4 65.2 2.9 17 7.8 33.4 16.8 48.7 199.9 346 517.3 544.3 870 544.3h.2c352.3 0 672.3-197.7 878-542.4 9.7-16 14.7-33.5 17.9-51.6 7-10.7 5.8-52.4-1.5-63.5zm-411-55c-49.2 223-244.6 390-479 390-235.4 0-431.7-168.2-479.7-392.6C542.8 764 709.7 699.6 891.4 699.6c183.3 0 352.7 65.4 482.9 179.7z"/></svg>