<?xml version="1.0" encoding="utf-8"?>
<!-- Generated by IcoMoon.io -->
<!DOCTYPE svg PUBLIC "-//W3C//DTD SVG 1.1//EN" "http://www.w3.org/Graphics/SVG/1.1/DTD/svg11.dtd">
<svg version="1.1" xmlns="http://www.w3.org/2000/svg" xmlns:xlink="http://www.w3.org/1999/xlink" width="24" height="24" viewBox="0 0 24 24">
<path d="M12 0q0.422 0 0.711 0.289l3.531 3.539q0.297 0.297 0.297 0.711t-0.293 0.707-0.707 0.293-0.711-0.297l-1.828-1.828v7.586h7.586l-1.828-1.828q-0.297-0.297-0.297-0.711t0.293-0.707 0.707-0.293 0.711 0.297l3.539 3.531q0.289 0.289 0.289 0.711t-0.289 0.703l-3.539 3.539q-0.297 0.297-0.711 0.297t-0.707-0.293-0.293-0.707 0.297-0.711l1.828-1.828h-7.586v7.586l1.828-1.828q0.297-0.297 0.711-0.297t0.707 0.293 0.293 0.707-0.297 0.711l-3.531 3.539q-0.289 0.289-0.711 0.289-0.414 0-0.703-0.289l-3.539-3.539q-0.297-0.297-0.297-0.711t0.293-0.707 0.707-0.293 0.711 0.297l1.828 1.828v-7.586h-7.586l1.828 1.828q0.297 0.297 0.297 0.711t-0.293 0.707-0.707 0.293-0.711-0.297l-3.539-3.531q-0.289-0.289-0.289-0.711t0.289-0.711l3.539-3.531q0.297-0.297 0.711-0.297t0.707 0.293 0.293 0.707-0.297 0.711l-1.828 1.828h7.586v-7.586l-1.828 1.828q-0.297 0.297-0.711 0.297t-0.707-0.293-0.293-0.707 0.297-0.711l3.531-3.539q0.289-0.289 0.711-0.289z"></path>
</svg>
