<svg version="1.1" id="Calque_2" xmlns="http://www.w3.org/2000/svg" xmlns:xlink="http://www.w3.org/1999/xlink" x="0px" y="0px"
	 viewBox="0 0 17 17" style="enable-background:new 0 0 17 17;" xml:space="preserve">
<path d=" M 8.5 3.125 Q 8.723 3.125 8.88 3.282 Q 9.038 3.44 9.038 3.663 L 9.038 7.963 L 13.338 7.963 Q 13.56 7.963 13.718 8.12 Q 13.875 8.277 13.875 8.5 Q 13.875 8.723 13.718 8.88 Q 13.56 9.038 13.338 9.038 L 9.038 9.038 L 9.038 13.338 Q 9.038 13.56 8.88 13.718 Q 8.723 13.875 8.5 13.875 Q 8.277 13.875 8.12 13.718 Q 7.963 13.56 7.963 13.338 L 7.963 9.038 L 3.663 9.038 Q 3.44 9.038 3.282 8.88 Q 3.125 8.723 3.125 8.5 Q 3.125 8.277 3.282 8.12 Q 3.44 7.963 3.663 7.963 L 7.963 7.963 L 7.963 3.663 Q 7.963 3.44 8.12 3.282 Q 8.277 3.125 8.5 3.125 Z " fill="rgb(0,0,0)"/><path d=" M 16.952 8.5 C 16.952 3.82 13.132 0 8.452 0 C 3.772 0 0.048 3.82 0.048 8.5 C 0.048 13.18 3.868 17 8.548 17 C 13.228 17 16.952 13.18 16.952 8.5 Z  M 15.997 8.5 C 15.997 12.607 12.654 16.045 8.452 16.045 C 4.25 16.045 1.003 12.607 1.003 8.5 C 1.003 4.393 4.346 0.955 8.548 0.955 C 12.75 0.955 15.997 4.298 15.997 8.5 Z " fill="rgb(0,0,0)"/>
</svg>