<svg xmlns="http://www.w3.org/2000/svg" viewBox="0 0 1792 1792"><path d="M1237.7 1221.8c0-244.4-160.3-347.7-464.6-400-476.4-88.6-472.5-306.4-472.5-577.3V.2h253.7v244.4c0 244.4 150.2 347.7 454.5 400 441.3 88.6 482.6 306.4 482.6 577.3v244.4h-253.7v-244.5zm22.8-648.4c-71-29.1-213.2-56.7-299.2-79.9 159.1-63.6 273-117.5 276.4-248.6V.3h253.7v245.5c0 156.5-53 236-229.3 326.9l-1.6.7zm-959.7 892.7v-245.6c0-156.5 53-236 229.3-326.9 72.6 28.4 184.9 56 270.9 79.2-159.1 63.6-243.1 117.4-246.4 248.6V1466l-253.8.1zm126.8 325.7L20 1466.1h815.1l-407.5 325.7zm936.9 0L956.9 1466H1772l-407.5 325.8z"/></svg>