<svg version="1.1" id="Calque_2" xmlns="http://www.w3.org/2000/svg" xmlns:xlink="http://www.w3.org/1999/xlink" x="0px" y="0px"
	 viewBox="0 0 17 17" style="enable-background:new 0 0 17 17;" xml:space="preserve">
<path d=" M 16.952 8.5 C 16.952 3.82 13.132 0 8.452 0 C 3.772 0 0.048 3.82 0.048 8.5 C 0.048 13.18 3.868 17 8.548 17 C 13.228 17 16.952 13.18 16.952 8.5 Z  M 15.997 8.5 C 15.997 12.607 12.654 16.045 8.452 16.045 C 4.25 16.045 1.003 12.607 1.003 8.5 C 1.003 4.393 4.346 0.955 8.548 0.955 C 12.75 0.955 15.997 4.298 15.997 8.5 Z " fill="rgb(0,0,0)"/><path d=" M 9.204 10.218 L 11.204 5 L 12.3 5 L 9.144 13.116 L 8.138 13.116 L 5 5 L 6.078 5 L 8.09 10.251 L 8.09 10.251 Q 8.438 11.156 8.641 12.011 L 8.641 12.011 L 8.641 12.011 Q 8.857 11.112 9.204 10.218 L 9.204 10.218 Z " fill="rgb(0,0,0)"/></svg>