<?xml version="1.0" encoding="utf-8"?>
<!-- Generator: Adobe Illustrator 16.0.0, SVG Export Plug-In . SVG Version: 6.00 Build 0)  -->
<!DOCTYPE svg PUBLIC "-//W3C//DTD SVG 1.1//EN" "http://www.w3.org/Graphics/SVG/1.1/DTD/svg11.dtd">
<svg version="1.1" id="Calque_1" xmlns="http://www.w3.org/2000/svg" xmlns:xlink="http://www.w3.org/1999/xlink" x="0px" y="0px"
	 width="160px" height="160px" viewBox="-3.78 -3.78 160 160" enable-background="new -3.78 -3.78 160 160" xml:space="preserve">
<path fill="#977864" d="M76.172,0C34.102,0,0,34.103,0,76.171c0,42.073,34.102,76.173,76.172,76.173
	c42.071,0,76.173-34.1,76.173-76.173C152.345,34.103,118.243,0,76.172,0z"/>
<g>
	<path fill="#FFFFFF" d="M109.826,63.865h-3.74V48.908c0-16.521-13.391-29.912-29.913-29.912S46.259,32.39,46.259,48.908v14.957
		h-3.737c-2.066,0-3.738,1.672-3.738,3.737v56.086c0,2.068,1.672,3.74,3.738,3.74h67.306c2.066,0,3.738-1.672,3.738-3.74V67.604
		C113.565,65.537,111.892,63.865,109.826,63.865z M79.914,96.83v19.382h-7.48V96.83c-4.344-1.544-7.479-5.652-7.479-10.531
		c0-6.196,5.022-11.217,11.215-11.217c6.194,0,11.217,5.021,11.217,11.217C87.393,91.178,84.257,95.286,79.914,96.83z M94.87,63.865
		H57.478V48.908c0-10.309,8.389-18.695,18.695-18.695c10.309,0,18.697,8.388,18.697,18.695V63.865z"/>
</g>
</svg>
