<svg xmlns="http://www.w3.org/2000/svg" viewBox="0 0 90.15 22.8"><defs><style>.a{fill:#fff;}</style></defs><title>Khartis-logo</title><path class="a" d="M3.84,22.5H0V1.5H3.84v21Zm12.39,0H11.91L4.59,11.38,11.91,1.5h4.32L8.91,11.38Z"/><path class="a" d="M31.14,22.5H27.42V14.43a5.46,5.46,0,0,0-.71-3.1,2.57,2.57,0,0,0-2.27-1,3.56,3.56,0,0,0-2.82,1.29V22.5H17.91V0h3.72V8.28a5.67,5.67,0,0,1,3.12-1q6.39,0,6.39,7.17V22.5Z"/><path class="a" d="M46,7.46h3.41a18.32,18.32,0,0,0-1.35,4.2,20.29,20.29,0,0,0-.54,3.58,15.88,15.88,0,0,0,.5,3.44,21.63,21.63,0,0,0,1.25,3.82H45.94q-0.07-.28-0.25-0.79-0.3-.85-0.51-1.7a5.83,5.83,0,0,1-9.76.36,9.73,9.73,0,0,1-1.75-5.77,8.22,8.22,0,0,1,1.74-5.3,5.85,5.85,0,0,1,4.84-2.18,5.67,5.67,0,0,1,4.94,2.93A24.55,24.55,0,0,1,46,7.46ZM37.74,15a5.87,5.87,0,0,0,.88,3.38,2.71,2.71,0,0,0,4.52.15A5.86,5.86,0,0,0,44,15a5.76,5.76,0,0,0-.92-3.54,2.73,2.73,0,0,0-2.22-1.2,2.66,2.66,0,0,0-2.24,1.25A6,6,0,0,0,37.74,15Z"/><path class="a" d="M60.65,7.26l-0.72,3.51H58.55a3.32,3.32,0,0,0-1.65.42,2.55,2.55,0,0,0-1.08,1.08V22.5H52.1V7.5h3.48l0.09,1.59a5.37,5.37,0,0,1,4-1.83h1Z"/><path class="a" d="M70.6,19.74L70.27,22.8H67.6a4.46,4.46,0,0,1-1.74-.31,3.75,3.75,0,0,1-1.26-.84,3.38,3.38,0,0,1-.76-1.25,4.55,4.55,0,0,1-.25-1.53V10.56H61.45L61.78,7.5h1.8V4.2l3.72-.39V7.5h3.3v3.06H67.3v6.78a11.33,11.33,0,0,0,.06,1.35,1.26,1.26,0,0,0,.28.72,1,1,0,0,0,.68.28q0.45,0,1.26,0h1Z"/><path class="a" d="M76.57,5.22H72.85V1.5h3.72V5.22Zm0,17.28H72.85V7.5h3.72v15Z"/><path class="a" d="M84.27,22.8a9.2,9.2,0,0,1-5.07-1.11l0.33-3.18a5.64,5.64,0,0,0,.92.54,10.14,10.14,0,0,0,1.17.48,10.26,10.26,0,0,0,1.27.35,6.29,6.29,0,0,0,1.26.13,2.57,2.57,0,0,0,1.77-.48,1.54,1.54,0,0,0,.51-1.17,1.33,1.33,0,0,0-.36-1,3,3,0,0,0-1-.6q-0.68-.25-1.64-0.54a13.41,13.41,0,0,1-2.16-.88,3.63,3.63,0,0,1-1.35-1.25A4.56,4.56,0,0,1,79.35,12a5.12,5.12,0,0,1,.32-1.78,4.14,4.14,0,0,1,1-1.52,4.87,4.87,0,0,1,1.7-1.06,6.88,6.88,0,0,1,2.5-.41,11.28,11.28,0,0,1,2.71.33,6.36,6.36,0,0,1,2,.78l-0.33,3.18a6.21,6.21,0,0,0-.79-0.6,6.47,6.47,0,0,0-1-.53,6.89,6.89,0,0,0-1.14-.36,5.33,5.33,0,0,0-1.17-.13,3.54,3.54,0,0,0-1.78.4,1.34,1.34,0,0,0-.71,1.25,1.28,1.28,0,0,0,.46,1.08,4.92,4.92,0,0,0,1.25.66l0.51,0.15,0.58,0.16L86,13.8a11.54,11.54,0,0,1,1.69.63,4.58,4.58,0,0,1,1.31.9,3.63,3.63,0,0,1,.83,1.29,5,5,0,0,1,.28,1.77Q90.15,22.8,84.27,22.8Z"/></svg>